<mxfile host="Electron" agent="Mozilla/5.0 (Windows NT 10.0; Win64; x64) AppleWebKit/537.36 (KHTML, like Gecko) draw.io/24.7.5 Chrome/126.0.6478.183 Electron/31.3.0 Safari/537.36" version="24.7.5">
  <diagram id="C5RBs43oDa-KdzZeNtuy" name="Page-1">
    <mxGraphModel dx="1185" dy="684" grid="1" gridSize="10" guides="1" tooltips="1" connect="1" arrows="1" fold="1" page="1" pageScale="1" pageWidth="827" pageHeight="1169" math="0" shadow="0">
      <root>
        <mxCell id="WIyWlLk6GJQsqaUBKTNV-0" />
        <mxCell id="WIyWlLk6GJQsqaUBKTNV-1" parent="WIyWlLk6GJQsqaUBKTNV-0" />
        <mxCell id="WIyWlLk6GJQsqaUBKTNV-2" value="" style="rounded=0;html=1;jettySize=auto;orthogonalLoop=1;fontSize=11;endArrow=block;endFill=0;endSize=8;strokeWidth=1;shadow=0;labelBackgroundColor=none;edgeStyle=orthogonalEdgeStyle;entryX=0;entryY=0.5;entryDx=0;entryDy=0;" parent="WIyWlLk6GJQsqaUBKTNV-1" source="WIyWlLk6GJQsqaUBKTNV-3" target="Jy49ukYBbKdyJr5gnZlG-0" edge="1">
          <mxGeometry relative="1" as="geometry">
            <mxPoint x="420" y="170" as="targetPoint" />
          </mxGeometry>
        </mxCell>
        <mxCell id="Jy49ukYBbKdyJr5gnZlG-8" value="Dialogs as DialogEntry" style="edgeLabel;html=1;align=center;verticalAlign=middle;resizable=0;points=[];" vertex="1" connectable="0" parent="WIyWlLk6GJQsqaUBKTNV-2">
          <mxGeometry x="-0.0863" y="-1" relative="1" as="geometry">
            <mxPoint as="offset" />
          </mxGeometry>
        </mxCell>
        <mxCell id="WIyWlLk6GJQsqaUBKTNV-3" value="IDialogProvider" style="rounded=1;whiteSpace=wrap;html=1;fontSize=12;glass=0;strokeWidth=1;shadow=0;" parent="WIyWlLk6GJQsqaUBKTNV-1" vertex="1">
          <mxGeometry x="360" y="80" width="120" height="40" as="geometry" />
        </mxCell>
        <mxCell id="Jy49ukYBbKdyJr5gnZlG-0" value="DialogController" style="rounded=1;whiteSpace=wrap;html=1;fontSize=12;glass=0;strokeWidth=1;shadow=0;" vertex="1" parent="WIyWlLk6GJQsqaUBKTNV-1">
          <mxGeometry x="680" y="80" width="120" height="40" as="geometry" />
        </mxCell>
        <mxCell id="Jy49ukYBbKdyJr5gnZlG-2" style="edgeStyle=orthogonalEdgeStyle;rounded=0;orthogonalLoop=1;jettySize=auto;html=1;entryX=0;entryY=0.25;entryDx=0;entryDy=0;exitX=1;exitY=0.25;exitDx=0;exitDy=0;entryPerimeter=0;" edge="1" parent="WIyWlLk6GJQsqaUBKTNV-1" source="Jy49ukYBbKdyJr5gnZlG-1" target="WIyWlLk6GJQsqaUBKTNV-3">
          <mxGeometry relative="1" as="geometry" />
        </mxCell>
        <mxCell id="Jy49ukYBbKdyJr5gnZlG-3" value="Unity&#39;s Inspector" style="edgeLabel;html=1;align=center;verticalAlign=middle;resizable=0;points=[];" vertex="1" connectable="0" parent="Jy49ukYBbKdyJr5gnZlG-2">
          <mxGeometry x="-0.1148" relative="1" as="geometry">
            <mxPoint as="offset" />
          </mxGeometry>
        </mxCell>
        <mxCell id="Jy49ukYBbKdyJr5gnZlG-4" style="edgeStyle=orthogonalEdgeStyle;rounded=0;orthogonalLoop=1;jettySize=auto;html=1;exitX=1;exitY=0.75;exitDx=0;exitDy=0;entryX=0;entryY=0.75;entryDx=0;entryDy=0;" edge="1" parent="WIyWlLk6GJQsqaUBKTNV-1" source="Jy49ukYBbKdyJr5gnZlG-1" target="WIyWlLk6GJQsqaUBKTNV-3">
          <mxGeometry relative="1" as="geometry" />
        </mxCell>
        <mxCell id="Jy49ukYBbKdyJr5gnZlG-5" value="JSON file" style="edgeLabel;html=1;align=center;verticalAlign=middle;resizable=0;points=[];" vertex="1" connectable="0" parent="Jy49ukYBbKdyJr5gnZlG-4">
          <mxGeometry x="-0.1319" y="-2" relative="1" as="geometry">
            <mxPoint as="offset" />
          </mxGeometry>
        </mxCell>
        <mxCell id="Jy49ukYBbKdyJr5gnZlG-1" value="Dialogs data" style="rounded=1;whiteSpace=wrap;html=1;fontSize=12;glass=0;strokeWidth=1;shadow=0;" vertex="1" parent="WIyWlLk6GJQsqaUBKTNV-1">
          <mxGeometry x="40" y="80" width="120" height="40" as="geometry" />
        </mxCell>
        <mxCell id="Jy49ukYBbKdyJr5gnZlG-9" value="" style="shape=image;verticalLabelPosition=bottom;labelBackgroundColor=default;verticalAlign=top;aspect=fixed;imageAspect=0;image=data:image/png,iVBORw0KGgoAAAANSUhEUgAAAgAAAAIACAYAAAD0eNT6AAAABHNCSVQICAgIfAhkiAAAAAlwSFlzAAAOxAAADsQBlSsOGwAAABl0RVh0U29mdHdhcmUAd3d3Lmlua3NjYXBlLm9yZ5vuPBoAACAASURBVHic7N13nFTVwT7w58zM9gYLW+i9CCggRQRREKmCoBE0b0xssUGCaGJJNJEkJjHBn2IBJPHV5I0mxkZVQFGJoqgISBEQpO0u28u0nXrvPb8/AGOiwpaZOffeeb6fTz7vq+zsfWTLfeace84RICJbWjXxiY5CuM41YAwWAj0lHN0EZGcAeQCyAOSc/NAGADqAKkCWSziOCxj7hBS7RarYNWPtbcdV/TcQUfwI1QGIKDZemby8gxPaRCHFRAhMANAhJp9Y4LCU4l0H8Lam6a9f8daP6mLyeYlIKRYAIgtbNeHPRXBpswF5FYDRABxxvqQmIf7lEMarDqf4x/TX5jbE+XpEFCcsAEQWIyHFmklPjTeEnCuAmQBcioIEpcDLwhDLZ7552/tKMhBRi7EAEFnEO+MWujxpBf8jIO4BMEB1nv8g8aEQxkPbz69ds3DhQkN1HCI6MxYAIpM7ceMvvE4I/AwSPVXnOYO9Don7Zrwxd6XqIER0eiwARCa2avLSSwH8EWZ7x39mH8AQd3NqgMi8WACITGjtpGWDdCEfBXCJ6iytIAH5kssp77709R8dUx2GiP4TCwCRiay9dGlbIyoXSiHmQtXDfbF24mHBx0Va2m9nrr7RpzoOEZ3AAkBkAgsXLnQM2VJwjYB4GECB6jxxUi4kfrV9dPXTfFCQSD0WACLFVk1eMh4QiwGcozpLQgj5iTRw+6w35n2gOgpRMmMBIFJk5aQlXSDEbwXwfdVZFJAAXnbozp/O2HhLieowRMmIBYAowdbMWJ5pRLW7IcU9ANJV51EsACEX5YYyHxq/6fqQ6jBEyYQFgChBJKRYPWXZlZB4GEBX1XlMplRC3j9zw9y/CQipOgxRMmABIEqAFZOWDnM48BgkxqjOYmYC2KQb8o7L35z3qeosRHbHAkAUR2tmLG8vw9ovpBDzADhV57EIQwLPCy3lrplv3VSlOgyRXbEAEMXB8mHLU4rba3MB8WsAuarzWJRbAA+5HNriaevmh1WHIbIbFgCiGFs5eeklAngM1tu+16wOQuC+mevnvqQ6CJGdsAAQxcir057s69QdjwC4VHUWO5IQb7kkFkx/47Y9qrMQ2QELAFErrRj3aBuRlnavAO4AkKo6j81pEHjGkeK8b8aaW2pVhyGyMhYAohb6yva9iwAUqs6TTARQLyF/nRuuWTJ+00JNdR4iK2IBIGqB1VOXXiQNLAYwRHWW5Cb3CynuvOyNuetUJyGyGhYAomZ4ZerjnZ2G63cCuAb8+TGTtYbDueDydbccUh2EyCr4C4yoCV6c/UhGujd9vgTuB5CtOg99o6iQcpnLqf9i2rr5XtVhiMyOBYDoDFZOWjJDCPE4gO6qs1CT1ALywXBuwZNzXpqjqw5DZFYsAETfYtXUZUNhyMcAjFWdhVpCbJeQC2ZtmPue6iREZsQCQPRfXp20rNAp8CAgbwTgUJ2HWkUC4gUpjXtmvTGvVHUYIjNhASA66Svb9/4KQJ7qPBRDEkEp8HgkLB+cs2meX3UcIjNgASDCl9v3LgYwUHUWiiOJ41LIn/PYYSIWAEpyq6Ys7QeJ/wdu35tstjqE4/YZ62/dojoIkSosAJSU1l66tK2m4R5u35vUpASeS3HKuy99fV6l6jBEicYCQEnlnXELXb7UwhukwIMAClTnIVNohJAP54YyHxq/6fqQ6jBEicICQElj9aRlF0shHwVwjuosZEqlEvL+WRvm/Z/qIESJwAJAtrdq8pLegPgdgNmqs5AlvAOBBTPXz92lOghRPLEAkG1tmLQoK+TIvAtS3AsgTXUeshRDAs8bUvz0ijduq1YdhigeWADIdr5yTO8fABSrzkOW5hbAQ6Hc9o/OeWlORHUYolhiASBbWTnpyfMEHIshMEp1FrKVA0KKn1z2xm1rVQchihUWALIFHtNLCbJRwFhw2YYffaY6CFFr8RclWdqaGcszjah2NwxxNwQyVOehpBAVUi7TI5EHLt90h1t1GKKWYgEgS5KQYvWUZVdKiUUC6KY6DyUfAdRLyF/z2GGyKhYAspxVE58aDqexGBJjVGchEsA+Q4g7Zq2/bYPqLETNwQJAlrFq4hMd4XQ+AIkfgsf0kvmsdeq4ffrGuYdVByFqChYAMr0XZ7+YmuatuQ0QvwGQozoP0WlEhJRPuZz6L6atm+9VHYbodFgAyNRWTloyQwjxGIAeqrMQNUOFkFi4fXT10wsXLjRUhyH6JiwAZEqrpi4bCl0+CoGLVGchaikBbBNCLpixft5m1VmI/hsLAJnKqxOebOdyil9KIeYBcKrOQxQDEsDLLqdx16Wv/+iY6jBEp7AAkCksH7Y8pbi9NhcQvwKQpzoPURwEJPBEJCwfnLNpnl91GCIWAFJu5eSllwjgMQADVGchij9RJmHcN3PD3L8JCKk6DSUvFgBSZtWUpf2EIR+RQkxTnYVIgY+EAwsuWzf3Q9VBKDmxAFDCrb10aVtNwz0CuANAquo8RAoZEng+xSnvvvT1eZWqw1ByYQGghHln3EKXL7XwBinwIIAC1XmITKQRQj6cIvTfT1s3P6w6DCUHFgBKiNWTll0sgcUQ8mzVWYhM7AsI/Hzm+rkvqQ5C9scCQHG1avKS3oD4HYDZqrMQWYbA29KhL5j1+o93q45C9sUCQHGxYdKirJAj8y5IcS+ANNV5iCxIg8AzKUK7f9q6+TWqw5D9sABQTC1cuNAxZEvBNQL4IyCKVOchsoEGAfwhlNv+0TkvzYmoDkP2wQJAMbNy0pPnCeF4DMB5qrMQ2dDnUjjunLX+1tdVByF7YAGgVntl6uOdnYbrdwK4BvyeIoq3jdLhuH3Wulv3qg5C1sZf1tRiGyYtygoh614AP4FAhuo8REkkAonHUpzagzx2mFqKBYCaTUKK1VOWXSklFgmgm+o8REmsDpC/CecWPDnnpTm66jBkLSwA1CyrJj41HE5jMSTGqM5CRF/aAWksmPnGj95VHYSsgwWAmmTVxCc6wul8ABI/BOBQnYeIvtFaIfX5l73x4yOqg5D5sQDQab04+8XUNG/NbYD4DYAc1XmI6AwkglLgcZGW9tuZq2/0qY5D5sUCQN9q5aQlM4QQjwHooToLETVbuZD41fbR1U8vXLjQUB2GzIcFgL5m1dRlQ2FgMSAvVJ2FiFptq5Rywaw35n2gOgiZCwsAfenVCU+2cznFL6UQ8wA4VechopiRAF526M6fzth4S4nqMGQOLACE5cOWpxS31+YC4lcA8lTnIaK4CUDIRbmhzIfGb7o+pDoMqcUCkORWTl56iQAeAzBAdRYiSphSCXn/zA1z/yYgpOowpAYLQJJaNWVpP2HIR6QQ01RnISI1BLBJwLFgxoZbd6rOQonHApBk1l66tK0RlQulEHMBuFTnISLlDAk8L7SUu2a+dVOV6jCUOCwASeKdcQtdvtTCG6TAgwAKVOchItNxC+Ahl0NbPG3d/LDqMBR/LABJYM2UJycYhvNRCHm26ixEZHoHIXDfzPVzX1IdhOKLBcDG1kx8qo/hMH4LYLbqLERkORudUtwx/Y3b9qgOQvHBAmBDL45bkp2Wjp9CinsBpKnOQ0SWpUHgGUeK874Za26pVR2GYosFwEYWLlzoGLKl4BoB/BEQRarzEJE9CKBeQv46N1yzZPymhZrqPBQbLAA2sXrq0oukgcUAhqjOQkR2JfcLKe687I2561QnodZjAbC4lZOWdIEQvxXANeDXk4gSY63hcC64fN0th1QHoZbjDcOi1sxYnmlEtbshxT0A0lXnIaKkExVSLnM59V9MWzffqzoMNR8LgMVISLF6yrIrIfEwgK6q8xBR0qsF5IPh3IIn57w0R1cdhpqOBcBCVk9ZMkJKsRjAaNVZiIj+k9guIRfM2jD3PdVJqGlYACxg1cQnOsLpfAASPwTgUJ2HiOg01hpC/Pjy9bcdVR2ETo8FwMRenP1IRro3fb4E7gOQozoPEVGTSASlwOORsHxwzqZ5ftVx6JuxAJjUyklLZgghHgPQQ3UWIqIWkTguhfw5jx02JxYAk1kz+clzDTgfBeSFqrMQEcWCAD4WwrFgxvpbt6jOQv/GAmASr054sp3LKX4phZgHwKk6DxFRjEkJPJfilHdf+vq8StVhiAVAueXDlqcUt9fmAuJXAPJU5yEiirNGCPlwbijzofGbrg+pDpPMWAAUWjl56SUO4HEJnKU6CxFRgpVKyPtnbZj3f6qDJCsWAAXWTFre3xD6IwCmqs5CRKTYOxBYMHP93F2qgyQbFoAEenHy0/npMvyAFGIuAJfqPEREJmFI4HlDip9e8cZt1arDJAsWgAR4Z9xCly+18AYp8CCAAtV5iIhMyi2Ah0K57R+d89KciOowdscCEGdrpjw5QZeOxQIYpDoLEZFFHABw58wNc19THcTOWADiZM3Ep/oYDuO3AGarzkJEZFEbBYwFl2340Weqg9gRC0CMrRj3aBuRlnavABYASFOdh4jI4qJCymV6JPLA5ZvucKsOYycsADGycOFCx5AtBdcI4I+AKFKdh4jITgRQLyF/zWOHY4cFIAZWTFk2ziHlYgCDVWchIrIzAewzhLhj1vrbNqjOYnUsAK2wctKSLhDitwL4vuosRERJZq1Tx+3TN849rDqIVbEAtMCGSYuyQo7MuyDFPQDSVechIkpSESHlUy6n/otp6+Z7VYexGh460wwSUpw7pWi2htRVgJgJbuZDRKSSE0KcZ0jHdf/T61Jfv++P2LFp0yYeO9xEHAFootVTloyQUiwGMFp1FiIi+joBbJOGuH3mm7e9rzqLFbAAnMGa6cs66VH5ewFcA/59ERGZnQTwsstp3HXp6z86pjqMmfGG9i1enP1IRro3fb4E7gOQozoPERE1SwBCLgrnhP8w56U7g6rDmBELwDdYOWnJDCHE4wC6q85CREStIcokjPtmbpj7NwHB5wO+ggXgK9ZMfvJcA47FAMaqzkJERDH1kXBgwWXr5n6oOohZsAAAWDNjeXsZ1n4hhZgHrowgIrIrQwLPCy3lrplv3VSlOoxqSV0Alg9bnlLcXpsLiF8DyFWdh4iIEqIRQj6cIvTfT1s3P6w6jCpJWwBOzvM/CqCX6ixE8eBMdcGVlQJnegoAwJWWAkeK48T/n5UG8ZWffikltMYTx68bugEtGIXWGIEWjMKIctt1sq0vIPDzmevnvqQ6iApJVwDWTFre3xD6IwCmqs5C1FzCIZDePhuZRTnILM5BZlEuUnPTkZqbhtTcDKTmpZ/853Q402KzT5XUDUQbIwi7g4h4goh4Qgi7Awi7QwhW+xCo9iNY40Ow2s+yQNYk8LZ06Atmvf7j3aqjJFLSFIAXJz+dny7DD0gh5oI7+JHJZbTPRk6PfOT2aIfsTm2+vOGnt8+Gw+VQHe9bheoDaDzuhr/s5P9KT/zfQIUXUvIBbDI1DQLPpAjt/mnr5teoDpMIti8A74xb6PKlFt4gBX4LoL3qPERf5XA5kNuzPfJ6tUdu93zk9GiH3B7tkJqTpjpaTGnBKLxH6uA9XAvPoTp4DtXAe7gOhmaojkb03xoE8IdQbvtH57w0J6I6TDzZugCsnLz0EgCPCmCQ6ixEAJCSnYb8AcUn/jewGG36FsZsqN5q9IgGz8EaNOyrQv3eSjTsr0KoPqA6FtEpn0vhuHPW+ltfVx0kXmxZAF6d9mRfp+54EMBs1VkouaVkp6FgaGcUDO2M/IHFyO7aFkLY8scuJnwlDajdeRy1nx5H3a7jiPiS9gFtMo+N0uG4fda6W/eqDhJrtvpNtGLco21EWtq9AlgAwF5jqGQNAsjrVYDC4V1QNKIr2vYvgnCad87ezKSU8BysRdXHx1D18TF4DtbwOQJSJSqkXBYyXL+cs/EWj+owsWKLArBw4ULH0C2FNwP4DTjPTwnmSHWiaHhXFJ/fA4XDuyKtbYbqSLYUbgiiausxVH14FNWflEKPaKojUdKRVULgvu2jap5duHCh5R9gsXwBWDFxyRCHEMsgMEp1FkoejhQnCod1QcexvVB8fne4MlNVR0oqekRD7Y7jKH/vECrePwwtGFUdiZLIiWOHHbfOfPPWT1RnaQ3LFoB3xj2b7ksP/U5KOR/cvpcSwOFyoGBoZ3S8sDeKz++OlGzOMpmBHoqi4oMjKH3rAGp3lEEanCaghNCEkA+HcgoesOpqAUsWgNWTnxwo4XgewGDVWcj+sjrmoevks9B1Uj+ktc1UHYdOI1TXiLK3D6D0zc/hK2lQHYeSgAT2CIHvzVw/d5fqLM1luQKwavKSmwDxBPiQH8WRw+VA8fk90G3aABQM6WzBnxRyH6zBsXV7UfbWAehhPi9AcSQRhAM3z1w/9znVUZrDMr/W3hm30OVJK3xQAPeozkL2ldkhFz1mDEKXS/ohNTdddRyKgYg3hNI39uPIa58hUOFVHYfsTOBPlTXOH92y7RZLPJRiiQKwYdKirKAj61UhMUl1FrKnNn0K0HPWOeg0rjeX7dmUlBLVH5fg8MpdqNlRpjoO2dfGcFhePmfTPL/qIGdi+gLw+tTHC6LS+TqkGK46C9mLEALF53dHr+8MQf7AYtVxKIHcB6px6JWdKH/vEB8apHj4wOnC9OmvzTX1gyimLgArxj3axpGW9jaAoaqzkH04UpzoOrk/el0xGFkd81THIYUayz04+M/tKHvrAM8loFj71OnCxWYuAaYtAK9PfTw3arg2AhihOgvZg8PlQJeJ/dH3u8OQUZitOg6ZSLDajy9e2oFj6/fxSGOKHYkPwxE50azTAaYsAMuHLU8pLtDXQ+Ji1VnI+oQQ6HBBT5x13XnI6sR3/PTtgrV+HPj7NpRs2A+pc0SAYmLtjvOrZ5px50BTFoCVk5YtEULOVZ2DrO3Ujb//tSOR3bmN6jhkIYEqHw7+cztK1u3j+QPUehKLZr4x927VMf6b6QrAyslLrxfAM6pzkLW1G9QBg24dg7zeBaqjkIW5D9bgsz99gLrd5aqjkMUJiKsu23Dbi6pzfJWpCsCKqct7OQx9B4Ac1VnImjLaZ+Os689D54v7muy7m6ys6qNj2PPUZjRyHwFqOY8hxJDL1992VHWQU1yqA5zy4uwXnQ5v7T/Amz+1gDM9BX2uGope3xkMZ6ppvq3JJorO64aCczvj8IpdOPCPbTx8iFoizyHl/0nIiwSEKeaVTHOIzve6XvxjAdyoOgdZT+fxfXDer6aiaGQ3OLiJD8WJcDqQP7ADOk/oi2C1H/5S067uIvPqtr/3J2UvHHptu+oggEkGSV+btqRY08V+AHxEm5osvV0Wzpk3FsWje6iOQkmo9tPj2LXkXfhL3aqjkIUIoN6tR4f+YOPtJaqzmOLtkq5hIXjzpyYSQqDnzLNx8dPf5c2flGk/pBMuWjIbvWcPhXCY4r0UmVwkrKGq2p+vuyMrVGcBTDACsGLKsu4OKT8HkKo6C5lfTvd8DFkwDm37F6mOQvQl7+E67Ph/b8NzqFZ1FDIhXTfg9YYRCERO/AshkJ3lHPWDD+/6SGUu5SMADmn8Arz50xkIpwP9rhmBi56czZs/mU5uz3YY+9h30Pd/hvEwKfqSlBJebwhVVf5/3/xP/AE0TfxZXbITlI4AvD718YKo4SoBwHNX6VtlFuXg3Lsv4YE9ZAnuA9XY/oe34D/OZwOSWTAYhccTgv4tO0oKIZCRk9n7ug/mH0pwtC8praoR3XkzePOn0+hyST+Me+oq3vzJMtr0LcRFy2aj56xzTDDJSokWiWiorvGjvj7wrTd/4MToAKKRxQmM9jXKCoCEFEIILvujb5Sak4bh903C0J9eDFdGiuo4RM3iTHVh0K1jMPKBqUjN5XucZKDrEu6GIGpqGxGNNO1AqXBEnxTnWKelbB+AoZMKRwshfqLq+mRe7Qd3wqjfTUf+WXzXT9aW3bkNOo3rA/fn1QjWmPJAOGolKQF/Yxj1DQFEmnjj//drpXN296kHVh5/Y0+c4p2WshEAB3CVqmuTSQmg56xzcP7vpiOjPY/rJXvIKMjGmEUz0e+aERCCcwJ2EgxGUVXlg9cTgjRatrmfNLAgxrGaTNmeqVKIS1Vdm8zHlZGCoT+9GB3G9FQdhSjmTqxiGY42fQqwfdFbiPrDqiNRK0SiOrzuIMLNfMf/TaKaPjgGkVpESR1dPemJHlI4D6u4NplPdqc2GPHLycjplq86ClHcNZZ78PGv18N3tF51FGomw5Dw+sJojHGBy8/KOv/qj+Z/GNNP2gRKpgAMh0vpgw9kHsWjumPs49/hzZ+SRlbHPIx99Ap0uICjXZYhJXy+MKqqfDG/+QNAGJGbYv5Jm0BJAXBIeZ6K65KJCKD/tSMx8oGpSMniPlCUXFwZKRhx32T0u2YElwqaXPjE9r3wekMwWjjPfya6JkfF5ROfgZJnACQwUsV1yRwcLgeG3DkenS/uqzoKkToC6HfNcOR0a4sdi96GHtFUJ6Kv0DQdHncIoXD8vy66LrvH/SLfIOHd851xz6Z704J+mOgoYkqclOw0jHxgCtqd3VF1FCLTaNhfhY8XrkPYHVQdJekZhoTPF0KjP4L4vN//BgLIaBfOuH7TwlCiLgkomALwZIR7gjf/pJTZIRdjF1/Bmz/Rf2nbvwgXPHI5sjrxUFRVJIDGQATVVT74E3nzP3nx1Gjb8xN5SUBBAXAYWp9EX5PUa9u/CGMfvQLZnduojkJkSlkd8zB28Xd42JUCobCGmmof3A1B6HGa5z8TTTMuSPQ1E14ADOHsluhrklrtB3fC+b+fgbQ2GaqjEJlaak4aRj80A4XDuqiOkhQ0zUBdXQB1tY2IRr993/5EMKAPTPQ1E78KQErW2yRSdF43jPrNpdzPn6iJnOkpGPmraeh0UW/VUWzrxDG9YVRX+xAKRVXHAQBIQyZ87/OErwIQEAVI7OwKKdLpot4YetcEOFw8H52oORwuB8699xI401woeWO/6jj2IYHAyWN6DUPtO/6vkbJ9oi+Z+GWAAm15/7e/zhP6Yuid4yGcvPkTtYQQAkPuGA9nmgtH1ig5K8ZWImENbk8I0Wjrt++NB0MiN9HXTHwBkJJnY9pc9+mDcPa8C3jwCVFrCeDsuWMhHAKHV+1WncaSdN2A1xtGIBBRHeW0hETC50kVbAQk07j1lX31nHk2Bt2W8IdZiexLAINuPfEzxRLQdFJK+HwR+P1hSGn+YWep4H6s4hmAFPN/Kaglukzsj4G3jlEdg8h+TpYAQzNw9LXPVKcxvUAgCq83CF23zt1GyiQoABLCwYcA7afj2F4Ycsc4DvsTxYsAzvnRhTA0AyUb9qlOY0qRiA6PJ4hIDI7pTTShYGRcyVkAZC/Fo3tg2L2XQDh48yeKKwEMvv0iaIEIyt87pDqNaei6hM8bQmMwwveXzcACQK1SMLQzht87kU/7EyWIcAice88l0AIRVG8rVR1HKSkBf2MYPl8YUtEOflbG39rUYm37F2HkwqlwpPJoB6JEcrgcGH7/ZLTpU6A6ijKhkIbqKh+8nhBv/i3EAkAtklmci5EPTIUzjYNIRCq4MlIw6rfTkd0puc7XiEZ01Nb4UVfXCE032WY+FsMCQM2WmpOGUQ9eirS23NufSKXU3HSc9+ClSM2z/8+iYUi4PSFU1/gRtuBDfmbEAkDN4nA5MPy+yTzVj8gksjrkYuQDU+BIse9UnN8fQWWlD43+sOootsICQE0ngCF3jEf7IZ1UJyGir8gfUIxz75pguz3WwmENVdV+eDxBS2zmYzUsANRk/X8wEp0n9FUdg4i+QccLe6Hvd4epjhETmqajti6A2tpGaCbdu98OWACoSTpc0BN9r7bHLxciu+r//ZHocEFP1TFa7Mt5/io/wiY5ptfOWADojLI7t8HQO8fbbniRyHYEMPQnFyOnW77qJM0iATQGIqiuOjHPz8H+xGABoNNyZaRgxC+nwJWZqjoKETXBiZ/ZyUjJssbPbCisoabaB3dDEDrX8ycUCwB9OwEMuXM8crq2VZ2EiJohu1MbDL1rgqnP5tA0A/X1AdTVNiIa5Xp+FVgA6Fv1nj0UHcf2Uh2DiFqgeFR39Jo9RHWMr5FSwusNo7rah2CQ8/wqsQDQN2o/uBPOuu481TGIqBX6/2Ak2p5VpDrGCfLEMb2VlX74fCFwVZ96LAD0NSnZaRj6k4t5uh+RxTlcDgz/+SSk5qYrzREOa6iu8aOhIQDD4HC/WbAA0Nec8+MLkVGYrToGEcVARkE2hv7kYiWreHRdoqEhiNraRkS5nt90WADoP3Sd3B+dLuqtOgYRxVDRed3QfeqAhF3v1Dx/VZUPgUAkYdel5mEBoC9ldsjFoFsvUB2DiOJg4M2jE3JyYDAYRVXVqXl+TvSbGQsAAQCE04Fh91wCV0aK6ihEFAfO9BSce88lcLji82s/GtVRU+NHfX0AOo/ptQQWAAIA9P3uMLTtb5KnhYkoLtr0LUDv2UNj+jl1XcLdEER1jR8RHtNrKSwAhOwubdDnqtj+UiAic+p3zXDk9Wrf6s8jJeDzh1FV7UNjIALu32s9LABJTgiBIXeMt/VZ4kT0b8LpwODbL2rVMt9QSEN1lQ9eTwiS2/daFgtAkusx82zkDyhWHYOIEqhN30L0nHVOs18XjeiorfGjrq4RGuf5LY8FIIllFGaj/7UjVccgIgX6XzsSWR1ym/SxXx7TW+NHmPP8tsECkMQGz7+IT/0TJSlnmgtnzxt7xo/z+yOorDxxTC/ZCwtAkuo8vg8Kh3dVHYOIFCoc3hUdxvT8xj8LhzVUVfvh8QS5nt+mWACSkDPNhbOuH6U6BhGZwKBbx8CZ/u+RQE0zUFsXQG1tIzRu32trLABJqM/V53KvfyICcOKsgD5XDf33PH+VD+EQj+lNBi7VASixMgpz0Os7g1XHoATSwxoi3hAi3hCiJ49hNTQD+slf8inZaRACcGWlAQDS8jKQ1jaDS0OThNQNGA6B6iofdC7pSyosAElm4A/PhzOVdTwBzQAAIABJREFUX3a7Cdb64TtSD+/ROgQqvAhU+RCo8iFY7Yce0Vr0OVNz05GWn4mM9tnIKMxGTrd85HZri5xu7ZDWNiPG/wWkQuUnJdj80Juo+bxGdRRSgHeCJNJuUAd0HNtLdQxqJS0QQcO+KtTvq0T93kp4DtYg4ov9E9qnRg18R+u/9mepuenI61OAdgM7oN3ZHdC2XxEcqRwxsAr/cTc+emQTDryxX3UUUogFIEkIITDo1jFKzgSn1pFSwnOwBlVbS1C9tQTuA9XKd1+LeEOo2VaKmm2lAABHihNt+hai4NzO6HB+D+T2bKc0H32zaGMEu5/9CJ88+yF0rudPeiwASaLjRb2R17tAdQxqIikl6vdUoPzdQyjffBjhhoDqSKdlRHXUf1aB+s8q8PnftiKzOBcdRvdA8fndkT+oA4Rg81RJSonDaz/D+49sQmOtX3UcMgkFBUDyN0GCCYdAv2uGq45BTdBY7sGx9ftQ9tYBhOoaVcdpsUClF4de3YlDr+5EZlEOukzsj66T+nP1iQI1u45j80MbUbm7QnUUOq3E3xs5ApAEOk/oi+zObVTHoG8hDYmK9w/j6GufoXbncdudqhao8uHz57biwPOfoP25ndF96gAUj+nBUYE4C1T5sPWxf2Hvmj2qo5BJsQDYnMPlQL//4bt/M9KCURx/5yAOvbIT/uNu1XHiTkr55XMDmR1y0XPWOeg29SyuSokxPazhs+c+wcdPvY8o1/PTafAnz+a6TOyPzCYe+EGJoQWjOLxyFw69shPRJN1fPVDhxZ5lm3Hwhe3oOets9LjsbJ5L0VoSOPrmfrz/8NvwVnhVpyELYAGwMUeKE32/O0x1DDpJj2g4snoPvnhxByLekOo4phBuCGDfsx/h8Mrd6HfNcHSbchaEkxuUNlf9vipsfuhNHN9epjoKWQgLgI11ncyHrsyi/L1D2Pv0FgSqfKqjmFK4IYBdT7yLwyt24awbRqHD6B6qI1lCsLYR2558D7tXfAoYqtOQ1bAA2JQQAr2u4Ja/qnmP1mH3ks2o212uOool+Mvc2Prr9SgY2hnnzL+oyefVJxs9rGHfC9vx4bLNiDZGVMchi2IBsKni0T2Q1TFPdYykZWgGDr+6E/v/thUGT1RrtpodZdh0yz/Re85Q9Ln6XDhcnBY4pXzLUbz74AY0lDSojkIWxwJgU3z3r07D/ip8+sg78PEXdKvoEQ2fP7cVFe8fxpA7x6NNn+TeyMp9sAYf/HEjjn14THUUsgkWABtq07cQ+QOLVcdIOtKQOPTyp9j/fx/D0DghGyveI3V4b8Gr6PvdYej7vWFJt39AxBvCzmc+xLZnP1K+BTTZCwuADfWePUR1hKQTrPZh20MbUb+3UnUUW5K6gc+f24qG/VUY+pOLk+I0QkMz8PlLn2LLE+8i7OOqEYo9FgCbyeyQiw5jeqqOkVRqdpRh2+/f5NK+BKj+pASb5r6IYT+biPbndFQdJ27KPziCzX98C3WHalVHIRtjAbCZHjMGQTiSa4hUGQl88dIO7PsLh2YTKdwQwIc/X4Oz545Ft2kDVMeJKe+xemx5+B0c3nRQdRRKAiwANuJwOdBlQl/VMZKCoRnYuXgTSjd+rjpKUjI0Azsf/xfcX9Tg7LljLb9KIOoPY/f/bcUnT2+BzlUjlCAsADbSYUxPpObZf25Utag/jK2/2XDi4B5S6tjrexGo9GLEL6ZYcithqRs4uGo3tizehEBDUHUcSjIsADbSbepZqiPYXqiuEVt+toZL/EykZnsZtty7Guc9OB2pOWmq4zRZ1Sel2PyHN1G9v1p1FEpS1h43oy9ldshFu8GdVMewtWC1H+/ftYo3fxNq+Lwa7/9kBUJ1jaqjnJH/uAebfrYGr17/PG/+pBQLgE10mzIg6dZHJ1JjuQebf7oCjeUe1VHoW/hKGvD+XasQrDbneQtaIILtT76Hv1/2J+xb+5nqOEQsAHYgnA50mdhPdQzbCtb4seVnaxCs9quOQmfQWO7B+/esNtVIgJQSRzfsx9+n/xkfLX8feoQP+ZE5sADYQOGwLkjPz1Qdw5bCDUFs+dkanuJnIYEKL7bct9YU+zLU76vEmmufx7qfrkRjDb+HyFxYAGyg49heqiPYUtQfxgf3rIK/zK06CjWT72g9Pvrl69CCUSXXD1T58K+fr8U/5/wFx3eUKclAdCYsABbnSHGi+PzuqmPYjqEZ2Prr9Xzgz8Ia9ldh62/WQ+qJO5dBD0Wx808f4O/Tl2Pvmj0Juy5RS7AAWFzhsC5IybbO0idLkMDOxZtQu6tcdRJqpZrtZfjsTx/E/0ISKN10EP+8/H/xwRPvIhrS4n9NolbiPgAW1/FCDv/H2sEXd3CHPxs5vGo3crrno9vU+GwbXL+vCu//YSPKtpXG5fMTxQsLgIU5Up0oHtVddQxbqf20DPv/+pHqGBRju5e8h+zObdDu7NgdIBSqa8Snf9qCT/+5DVLnWRBkPZwCsLCi4V3hykxVHcM2gtU+fPK7N3mwjw0ZmoFPfvcGwjHYbteI6Njz14/x3KXLsePvn/DmT5bFAmBhxaN7qI5gG1JKbF/0timWjlF8hBuC2PHwW0Ar7tflW47ixcufxnsPv41oYyRW0YiU4BSAVQmg4NwuqlPYxoHnt6FuNx/6s7vqbaU4vGoXes46p1mvcx+swQeL3sKxLUfjkotIBRYAi8rrVcDNf2KkYX8VDvxjm+oYlCB7n/kQ7Qd3Qm6Pdmf82LA7iO1PvY+d/9jGqSGyHU4BWFTRiK6qI9iCEdWx4/+9ndC14qSWEdGxfdFbp/2aG5qBfS9sx/PTluPT5z/hzZ9siSMAFlU4nAUgFg78fRv8pdzpL9l4D9fh0Ipd6H3lkK/9WdW2Urz3+zdR8zlP6iN7YwGwoJTsNLTtX6g6huV5j9bhi5d2qI5Binz+t63oOLYXMotyAADeY/XY8vA7OLzpoOJkRInBKQALKhjaGcLJL11r7V6yGYbGof9kpYc17HriXUT9YexYuhn/uOIZ3vwpqXAEwIIKhnZWHcHyyt89xKf+k5wEcOTdL7DvrQMI+cOq4xAlHAuABeUP6qA6gqXpEQ17/3eL6hikUCiswesJIhrlCBAlLxUFQCi4pm2kZKchu0sb1TEs7cjqPQhU8Wz2ZKRpBrzeEIKKjgm2gox2WZiy+IoWvdZX7sHGe1bHJMelS2cjNSe9Ra9dfePfoUf0mORIFBXrTDgCYDH5A4ohBDtUS2nBKA69/KnqGJRgUkr4fBH4/SFIrug7LVeaC8VDOrXoteltMmKWo/Dsji3+fMLhAGCtAqACC4DF5A8sVh3B0g6v3IWwu/X7wZNFSCAQjMLjCcEwONxP9FUsABaTP4AFoKW0YBSHXtmpOgYlSCSiw+MJImKxoWCiRGEBsBCHy4E2fbn+v6VK1u9DlE97256uS3i9IQQCPKyH6HRYACwkt2d7ONP4JWsJqRs4vHKX6hgUR5znJ2oe3k0sJK/nmQ8voW9W8cERPvlvY8GT8/w6z3QgajIWAAtpyull9M2Orv1MdQSKg2hUh9sdQiSiqY5CZDksABaSyxGAFglUeFG767jqGBRDui7h84bQGIyoWUBNZAMsABaS0y1fdQRLOrpuL28SdiEl/I1ReH0hHtFL1EosABaR0T4bqbkt2xUrmUkpUfbWAdUxKAZCIQ0edxAa5/mJYoIFwCJye/Ddf0vU76lAqK5RdQxqhejJ9fxhrucniikWAIvI4QOALVL+7iHVEaiFDEPC6wujkXs3tEp+7/YY/IORTf54V0ZKi6+V2T4L4389rcWv/6qUzNQWv/bC+yc1a4po67LN8Fd4W3w9q2IBsIjsTjwAqLmklCjffFh1DGoBvz8CrzcEyQX9rZZVlIP+l5+TkGulZqcl7Fqn02/m2c36+D3/2M4CQOaVWZyjOoLleA7WINwQUB2DmiEc1uD2hKBFOdxPFG8sABaRWcQC0FxVW0tUR6Am0jQDbk8I4RCP6SVKFBYACxAOgfT22apjWE41C4DpGYaE3xeGrzEC7t9LlFgsABaQ3j4bDpdDdQxL0QIRuA9Uq45B30ICCAQi8HlC0Lmen0gJFgALyOL8f7PV76viRjEmFQ5r8HiCiEa5np9IJRYAC8goylUdwXIa9laqjkD/RdMMeL0hBIOc5ycyAxYAC8gs5Px/c9WzAJgGj+klMicWAAtIbZOhOoLleA7Vqo5AEgicPKbXMDjcT2Q2LAAWwDMAmidY40fEG1IdI6lFTm7fG+H2vUSmxQJgASwAzeM9Uqc6QtLSdQmvN4RAIKI6ChGdAQuABbAANI/vWL3qCEmH8/xE1sMCYAEsAM0TSMI9vVUKBqPwekPQNM7zE1kJC4AFpOaxADRHY5VPdYSkEI3qcLtDiEQ01VGIqAVYAEzOmeqCM5VfpuYIVrIAxJOuS/i8ITQGIye29CNTq/u8GhvvWd3kj09vk4ELfjaxRddqrPZjy/97u0Wv/W8X/XIKUrJadiTw2/e/BqMZB0p5j7tbdB2r453F5Fwt/AFIZsEav+oI9iQl/I1ReH0h7rJoIYHaRhx8fW+TPz6nY16LC0A0EGnWtU7ngp9NREoLX3tow35oPFjqjFgATM6R4lQdwVL0UBQ6h6RjLhTS4HEHoemc5yeyCxYAk3OyADRLxBtWHcFWoifX84e5np/IdlgATE6k8BTA5oh4g6oj2IJhSHh9YTT6WaiI7IoFwOQcLo4ANIfGg2Zaze+PwOsNQXJBP5GtsQCYnIMjAM1icKi6xcJhDW5PCFoznp4mIutiATA5jgA0j8HNaJpN0wy4PSGE+dQ0UVJhATA5jgA0j6Hx3WtTabqBigYfUnQHdBYnIqWEgEj0NRNfAAQENw9pBpHw7wlr49/XGUkA1V4/Sus8iOoGHHCgICsDmSIFOpf5ESUNjgCYnOQv5GbhssnT8wRDOFrrRiD87+F+AwaqGhvhdAp0zMyFQ5Ps6ERJgAXA5KTOX8XN4UhlAfgmoaiGkjoP6vyBb/0YXZco9XmQnuJCcUY2jCjLJ5GdsQCYHEcAmseZxm/pr9KlRHmDD+UNXhhNXNYXimo4GnUjPyMTea5UPh9AZFP8bWlyLADNw62TT5JAjT+AY7VuRPWWPRhZHwygXgRQnJmNdDhhcP9/IlthATA5nevamyU1J011BOX84QiOVDfAH460/pNJoLLRj1SnE8WZWYAuAG4QRGQLLAAmx53tmictPwsQSMpjaiOajpI6D2p9AcT6Mb6IrqPE50V2WioKUjM5LUBkAywAJscC0DwOlwOpOemIeEOqoySMYUgcd/tQ7vbGfZjeH47AH46gXWYmcp0p0LUkbFpENsECYHJaMAbDuEkmvV1WUhQACYl6fxDH6twIJ3j73rpAAA1woDgnG6mG4PMBRBbEAmByRkSHoRlwuLgjYFOl52fCe6ROdYy48ocjOFrjhi+k7rQ+AwbKfV6ku1wozsyCocmknHoxu+ziXHQf17vJH5+Wl97ia6XlpGHQ1ee2+PVf1ZoVPQOuHNysbcEPbdiPYMO3L5G1KxYAC9Aaw0jNy1AdwzIyO+SqjhA3EV1HWZ0XVT6/aW62IU3DUa8HeenpyE9Nh879A0ylba92GHvfpIRcK6NdVsKudTpj7rmkWR9ftaucBYDMKewJsQA0Q07XfNURYk5KiUpPI0rrPdANc95gPaEQfKEICrIykCFcMLiJFZGpsQBYQMQTBNBWdQzLyOlmr7+rhkAIR6rrEbbAQUf/va2w0MFlg0QmxQJgARGP/R9oiyW7jAA0npzn9yqc52+pU9sKZ6S4UMRthYlMiQXAAsKeoOoIlpLWNgOpudZdCqgZBkrrvajy+CEt/u45+OW2wunIc6Vz/wAiE+Gj5RYQTsKHU1qrbb9C1RGaTUKiwu3H9qMVqHT7LH/z/6r6YAhH/G5EHAYcDh7ZTGQGLAAWEKzxq45gOfkDO6iO0CyeQAg7S6pwtLbBtA/5tdrJbYXLQ36IFAdYA4jU4hSABQSrWQCaK3+QNQpAMKLhaJ0b7sbkmeaJ6DqOed3cVphIMRYAC2ABaL62/QrhSHXCMOlhSppuoNztQ7nNhvqb49S2wgWZWchycNkgUaJxCsACAjU+02z6YhWOFCfa9jXfcwASQJXXj09LKnC8wZu0N/+vqgk0osTvg+YCnw8gSiAWAAswIjpCfBCw2QpHdFMd4T94giHsKq3E4eoGRHUOe3/VqW2FK8ONcKQI8AEBovhjAbCIxuNu1REsp3iUOQpAKKrhQGUd9h6vQSDM0x1P59S2wl49AifPvyCKK/6EWYS/jAWguXK65SOrU56y6+tSorTei50llajzcwSnOdzhEI75vAg7dDicHA4gigcWAIvwH/eojmBJxed1T/xFJVDjC2DH0QqU1XtgcJ6/RU5tK1zW6IN0CUCwCBDFElcBWEQjRwBapMOYnjj06s6EXe/EMb0N8IUiCbum3WnS4LbCreAr82DnXz9u8senZKViwJVDWnStsCeE/St3tei1/23g1efC1cIjgXc99wlkM56zCdQ2tug6VscCYBG+Y/WqI1hS/oBiZHXKQ2OcR1Aimo6SOg9qfQFILtmIi1PbCrfLyESuMxU6H6RsEvexenzw8NtN/vicjnktLgDBhkCzrnU6/Wae3eIC8NFj/4IW4vM2Z8IpAItorPRCC/BdZbMJoMsl/eL26Q3jxDz/jpIK1PgaefNPgLpgAEf9bmhOyWWDRK3AAmAVEvAe5ShAS3Sd1B8ixjcKCYk6fwCflp6c5zd4408kCaDc7+O2wkStwAJgId7DdaojWFJ6uywUDO0cs8/nD0fwWVkNDlTWIRw1506DyeLUtsL1RgjOFP46I2oO/sRYiPdwreoIltVj5tmt/hwRXcfh6gbsLquCLxSOQSqKFV84giNeN4JCh5PLBomahA8BWoj7ixrVESyraEQ35HRtC19JQ7NfK6VEpacRpfUe+57UZxM1gUbUCYHi7BykGAKSUzNE34ojABbiPVwHPaypjmFNAuh5xeBmv6whEMKnxyrtfUyvzRhSotznRVWI2woTnQ4LgIUYmgEPRwFarMuEvkjPz2zSxzaGI/jseDX2l9cgpLF0WVFI57bCRKfDnwqLadhfrTqCZTlSnGccBdAMA0dq3dhdVg1vkPP8dnBqW+GIw+CyQaKvYAGwmIb9VaojWFqPywYho3321/69hESF24/tRytQ6fbxmF6bMWCgstGPsgC3FSY6JfEFQHJGrjXqdpeDe820nDPVhb7fG/Yf/84TCGFnSRXn+ZPAqW2F66IBLhskUzEU3Bq5CsBiwu4gfKUNyOnaVnUUy+o6qT8OvbITNYdrcbTODXdjUHUkSrDGaBRHTm0r7EqFrrH4naIFozj27qEWvdZf6Y1ZjtIPjiA1O61Fr5Us8k3CAmBBtTuPswC0gnA60P2aYdh401851J/k6oIBTF16ObS6ILYvfR8hN8tgsCGA1+e9pDoGNt6zWnUE2+MYmAXV7SpXHcHyeo7ri/7j43dGAFnDgIkDMHDSQAz+7nBcvfZmnHPtCDic/LVIyYHf6RZUu/M437nGwIxfzkBKRorqGKRISkYKZtw//ct/zsjLwJifTsDl/7wWXUZ3VxeMKEFYACwo4g3Bc5D7AbRW285tcfG88apjkCIXz7sYbTq1+dq/L+xXhOnLr8bkJ7+Dtt3yFSQjSgwWAIuq+rhEdQRbGPvDsSjuX6w6BiVYx4EdMfbGC077MT0v6oMrX7kBw+dfiJSs1AQlI0ocFgCLqv6EBSAWnC4nrn70KqSkcyogWbjSXJizaDacKc4mfeyIm0bjqtU3YeBVQ2N+rDSRSiwAFuX+vBphPrEcE0V9ijD5J5NUx6AEmXbvVBT1LWrWa3IKc3Dh/ZMx8/nvo+O5sTtamkglFgCLklJyFCCGRl83Gn3H9lEdg+Ks79g+GHXNqBa/vsOgjrjs2e/hwt9MRXbh13eUJLISFgALq3j/iOoItiGEwJV/uBI5BTmqo1Cc5Bbl4so/XgnRym2AhUNg4KzBmLPqJgy5cRScqWeeSiAyIxYAC6veVgItGFUdwzZyCnNwzdLvwZXK/bHsxpXqwjVLvxfTgpeWnYbzF4zDlStuRJ9pZ8Xs8xIlCguAhRkRHdVbOQ0QS12HdsXlD85SHYNi7LKFM9BlcJe4fO78rvm45A8zcenTV6GgX2FcrkEUDywAFle+uWV7dtO3O/eKczHqey2fJyZzOf+aURgxZ0Tcr9P1vB64/IVrcf69E5Celx736xG1FguAxVV9zGmAeJj+i0vR5wI+FGh1/S/uj+m/mH7mD4wRp8uJId8bgTmrb8LAq8/lskEyNRYAi9NDUVR+wIcBY83pcuL7y65B9+HdVUehFuoyuAu++9jVSvb2z8rPwoX3TcLsFTeg+4W9En59oqZgAbCBsrcPqI5gSykZKbj2zz9Ah7M6qI5CzVTUpwjX/e91SM1Qu4Nfu54FmLpkNiY/+R204QmeZDIsADZQs6MMofqA6hi2lJ6Tjuv+91q07cxf3laR3yUfN/zlemS2yVAd5Utfbiv847FIUVxKiE5hAbABaUgc33RQdQzbyi3Mxc1/vwntu7dTHYXOoKBXAW554WbkFuWqjvI1KekpGHHzGMxZfSP6Th8I8PEAUowFwCaOrdsL8ITguGnTsQ1ueeEWHhxkYoW9C3HT335oypv/V+UW52HC72dg1vPfR4eh3FaY1GEBsAl/qRt1n1WojmFr2e2zcfPzN6HrkPisJ6eW6zSoE27+x03IKbTOTo4dzu6EmX/9Hsb/fjqyCritMCUeC4CNHHt9r+oItpeRl4Eb/nID+l7YV3UUOqn/xf1x899vQlbbLNVRmk0Igf7TB2HOqh9i8PXnwZnCX8mUOPxus5HyzYcQ8YVVx7C9tOw0XPvnH+CiWy5SHSXpjbx6JL6/7BqkZlr7wbr0nHSMvnM8rlxxI3pzW2FKEBYAGzEiOkrf2K86RlJwOB2YctdkXPHby+F08TCYRHM4Hbhs4WW4/MFZStb5x0t+t3aY+IeZmPbnq9C+X4HqOGRz9vnJIQDAkdW7IQ0+DZgoI64agRv+cr2l5p6tLrcoFz/82404vxXH+ppdt1E9cMUL12HU3RcjLYfbClN8sADYTKDKh8oPj6qOkVR6juqJ29fOR//x/VRHsb3eY3rjRyvnocfIHqqjxJ3T5cTQ74/E1a/fjHOuHcFthSnmWABs6PCKXaojJJ2s/Cz84E8/wIxfTIczhVMCseZwOnDJ/Am44dnrY3qkrxVktsnEmJ9OwOUvXItOI7uqjkM2wgJgQ3W7y+H5okZ1jKQjhMDoa0dj7su3oeOAjqrj2EbHgR3xo5XzMGH+hKR+F1x0VjFmPP1dXLzoMuR2zFMdh2wg4W9Vvtv70hsBcCF1nEX9YXQcy0NIVMgpzMGIOcOR1TYTRz85Cj2qq45kSSnpKbh47njMfni26Tf3SRQhBNr3LsBZs4cgJTcNNbsq+P1lEw6nI7ym4s2HEnrNRF6MEqdi82E0HveojpG0HE4HRl87GvPXzkfvMb1Vx7Gc3mN64/bX5mPC/AlcZfENUtJTcO51o3DlihvQZ9oA1XHIojgCYFcSMCIaikd1V50kqWXmZeDcy4ei+7BuqNhfAX+tX3UkUyvo2R6zfj0TU+6agsw2marjmF56Tjp6TuyHThf0gO9IHXyVPtWRqIVUjACwANiY72g9ukzqjxSLb5JiB/ld8zHyqhHILcrF8T3HEQlEVEcylZyCHFz682m44ndXoLgvz1torpyiXPS97GxkFmWjdk8losGo6kjUTCwAFFPSkDAiBopGdlMdhQAIh0DnszvhvP85D5l5Gag6UI1wY3Lv3JhblItLbp+A2Ytmo+vQrkn9kF9rCYdA4YAO6H/FYBi6jtq9ldwTxEJUFICE/7Stmrz0fQCjE33dZOVwOXDx099FZjEfojIbPapj12u7sGnZv1B9qFp1nITK75KPMdeNxsirR8KV5lIdx5bqj9bh40ffwZG3v1AdhZrAlery3rz9roQu7+AIgM1JQ0ILaig+v7vqKPRfHE4HOvTvgFHfOw8dB3REuDGMhtIGSGnPd20OpwP9xvfD1HumYObCy9B1aFc4XHwOOV4y2mSi99QByB9YhIb91Qg2BFVHotNQMQKQ8OotIYVI/MBDUit9cz96zx6C7M5tVEehbyAcAgMmDsCAiQPgrfZix4od2PrPragrqVcdLSbyivMwZOYQjPqf89CmE78HE63XRX3QfUxP7HlpB7Y9sRlhX0h1JPoGAkbCb4wJv+DKyUs+EBDnJ/q6ya7TRb0x7GcTVcegJpKGRMmOEnz25l7sfeMzy5WBdt3aYeDkgRg4cQC6DO7CuX2T8Nf48cnS97D/1V18PsBkUlIdvpu235PQuVoWgGQhgLGLv4O2/QpVJ6EWqPy8Ens37sMXm79A6a5SaGFNdaT/kJKegi6Du6DX6F4YOHEAivoWqY5Ep1HxWTk+XvQOyreVqo5CJ7EAUFy1G9QBYx6epToGtZIW0VC2qwxHth7F0a1HUbGvAr6axK7/zi3MRYezitFteHf0HNkDnc/pzDMQLEZKic/X7cW2x96Ft5ybhqmmogDw8dskUrenAhUfHEGH0fY/Sc3OXKkudB/eHd2HdwduO/HvAu4AKj+vRPUX1ag6UAV3hQeeCg/8tX74a/3NfrBQCIHs9tnIbp+NvOJc5HVog6K+RSjqU4jifh2Q2SYj9v9hlFBCCPSfNhA9x/fBjmc/xO5nPkbUZCNLFF8sAElE0w289fAbuPqFG+FK5ZfeTjLbZKLneT3R87yeX/szXdPhr/Uj5A1Bi2iIBCLQozrC/hN7EKRlp8GZ4kRqZipcqS6k56Yju302t+BNEqkZqRh242h8tGo70moMGFFDdSRKEN4FkoEEavwBHKttQFQ38N7/bsb428apTkUJ4nQ5kVech7xiniBH3+zzLUHcAAAgAElEQVRff3oXFSf3osjPSEeeKx26xiJgd1yEa3OeYAg7yyrxRVUdovqJH+h3lr6DhrIGxcmIyAzc5W68+6d3v/zn+mAIR/xuRBwGHFy9YWssADYVimo4UFmHvcdrEAj/577g0WAU6/6wXlEyIjKTNb9Zi0jwv86mkEBlox9lIe+JcWLBImBHLAA2o0uJ0novdpZUos4f+NaP271uNw5uPpjAZERkNvvf+Rx739z7rX+u6RIlPi/q9AB3bbQhfkXtQgI1vgA+PVaBsnoPjCY89b3i/pU8lY4oSUWCEaz+1eomfWxjOIqjPjcahQYni4Bt8CtpA/5QBHuOV+GLqjpENL3Jr2soa8DGx9+KYzIiMqsNizY0+1mgukAAx3xeaC7w+QAbYAGwsIim44uqeuwpq4Yv1LJ38u8/+z7Kdh+PcTIiMrPSnWX48PmPWvRaAwbKfV6UB/0QKbyFWBm/ehZkGBLHG7zYcawCNb5GSLR8T29DN/Dqz1+F3oyRAyKyLi2i4ZV7X4Ght26ZX8TQcczrhluG4GQRsCR+1SxEQqLOH8CnpRUoqWvaPH9TVOyrwNtPvB2Tz0VE5vbGI2+i6mBVzD6fNxTBMa8XYYcOp5O3FCvhV8siGsMRfFZWgwOVdQhHY/9ufdNT/0LJpzwYhMjOjm07hveffT/mn9eAgarGRpQEPZAuwWWDFsECYHJRTcfh6gbsKquCLxSO23UM3cCLd/6TqwKIbCoSjOClu19u9dD/6ei6RKnPg5poIxycFjA9foVMSkqJCrcfO0oqUOX1oxXT/E1WV1LPDYKIbGrtb15D3bG6hFwrGNVw1OuGH1w2aGb8yphQQyCET49V4mhtA3QjAXf+r/jo7x+ddmMQIrKePev3YOuLWxN+3fpggNsKmxgLgIkEo1HsK6/B/vIahDQ1x3JKKfHyva/Afdyt5PpEFFvucjdevW+FugAntxUuD/m5rbDJsACYgGYYOFLrxs6SKrgDIdVxEPQE8ff5/+DSQCKLM3QD/7j9BQQ9QdVRENF1lPi8qNeDnBYwCX4VFJI4Mc+//WgFKt0+yBgt64uF0p2leOsx7hJIZGXr/7geJTtKVMf4D/5wBEd8bjRCg8PJ0QCVWAAU8QRC2FVSdXKe35znbm966l/Ys36P6hhE1AJ739yLzc/EfslfrNQFAyjx+7itsEIsAAkWjGjYX1GDveU1CESiZ36BQlJKvHzPK6g+VK06ChE1Q83hWrx410umGlX8Jqe2Fa4MN8KRIgD2gIRiAUgQTTdQUufBztJKNDSqn+dvqnBjGM/d9hzC/vjtQUBEsWPFn9mQpuGo1wOPEeG2wgnEv+l4O3VMb0kljjd4Td/Iv0nN4Vq8fO8rlsxOlEykIfHPO/5p2VE7Tyj05bbCfD4g/lgA4sgTDGFnWSW+qKpDVLf2E/V71u/BWzw6mMjU1i9aj31v71cdo1VObStcGvRyW+E4YwGIg1BUw4HKOuw9XoNA2Nzz/M3x9pPv4NNVn6qOQUTfYPuKHXj3z++pjhEz3FY4/vi3GkO6lCit92JnSSXq/AHVcWJOSolXfv6q6ZYVESW7Y9uOYYXKzX7i6N/bCke4f0CM8W8zBiTkiXn+YxUoq4/dMb1mpIU1/O2251BXUq86ChHhxDM6f7v1OWgRNbuHJkp9MMRthWOMBaCV/KEIPiurxhdVdYgkyc55/lo/nrn2Gfhr/aqjECU1X7UPz97wLBobGlVHSYyvbCssUhxcNdhKLAAtFNF0fFFVjz1l1fCFku8I3frSevzlh3/l8cFEioT9Yfzlh39FQ1mD6igJF9F1HPO6UW9wW+HW4N9cMxmGxPEGL3Ycq0CNrxEyEef0mtTxPcfx/Lzn/397dx4lRXnvDfxXVb1U9TLTg4CCSyJqIuINMCPiEi8Y4/KGqyIxSrjJeYMbYZ/ByDLga4cZ4AZ92YZFXK6KiEQwYsy9aq4LuCDbLKBsXvZhdWB6r7Wr6v6B5GqCOgPd/VR3fz//iOdI19dz5nR9p56nnh9mBgDkWFpP04sjltLhbYdZR2EqoRm0NxElhTNJwGuD7YYC0EY22XQiKVNT8xE6cKKw1/nb4/MP/5teHrucLNOZxxkDFBrLtOiVh1fQ7rW7WUdxjBY5RfuTcRwr3E4oAG2Q0nTaerCFPj96gjQDv+3+va1vb6WVE14l20IpAsgm27JpxSMr6NM3P2UdxXEssulwIk5HcKxwm7lyfUGOuLy5Sxhpk5pb43QskaQiftLfJo2rGklw8zRo+iDicHAHQMbZtk2r/t/r1PTnzayjOJr25bHCIVGkMrdIZhpPJ79JzgsA2WQ4vZnZtk1HYylqbo2Sid9q22zTinry+Lz0L1MGoAQAZJBt2/Tn8Bu0YfkG1lHyRlRVKa7q1MkvkcS5Hb9MyRGf8/c4c14AbJ40Jz8DiMgq7fsiQmq6sN+pzZa1L6yltJamgVPvJA5rcQBnzbZteuP3b9C6l9axjpJ3Th0r7OJ46hIIEmcSkWP3b9mFXwA4mxw5Ck8xDNrXEqWo7Mh4eWXD8g1kWzbdVTsQJQDgLNjWydM361fWs46S19K2Rc2JGEkuF53rC5BlOPJpQM7Pjc/9EwDiWjkHLainTYuaI3E6Fkti2l0GbXxlI1mWRYOm3UW8gL2mAO1lmRatHL+SGjF/I2OU9Mljhc+RfFQieMh00LIAz/PxXF+TwRMAu8UJewBssuloFOv82VS/sp6UqEK/nDuYXN7cbzcByFdpPU3Lq/5IW9/eyjpKQTqhyNRKMnUJBMlj82Q54R7A2Tk/Xz3nv5pxZDMfVB2TVdpy4BjtOx7BzT/Ltr2zjZ6773nSkhrrKAB5QZd1euHBJbj5Z5lNRIeTiZPHCrvY/1bK21zO7425fzbL8Xtzfs0vqXqadhxpoW2HW0jWC2dMr9PtWb+Hnvn1M5RqLZLzygHOUPJ4kp68dzHt+ngX6yhFQzdN2p+IUcRSSWA5dpjnct74GDwB4HL+k502LTpwIkZNzUcpksImPxYOfnqIFv58EbXsbmEdBcCRTuw/QYsHL6Yj24+wjlKUEppOe+PsjhXmeW59zq+Z6wt67MQuIsrNzgubTo7pPXCUDkXi2OTHWGtzKz1575O0dwOzh0AAjrS/fj8tuvtJOr7vBOsoRa9FTtF+OUGmQJSrl5g4Igqq3Ie5udrXr5tzf7514TabqHs2rxFTVNp3PEqyhkf9TuPyuGjQjEHU+85erKMAMNfwpwb60+TXyMQx444jCi46z+8nK21n9TRYl8CrD22eIGXvCt9w3VxfkIjIJtpIWSoAqpGmAydidCIpZ+PjIQPSeppW/G4Fndh3nG4afRPOCoCiZFs2/XXWX2nN4g/wdNKhVPPLY4W9IpV5snessODmD2Tlg78Dkx0PHGdnfK3DtG1qbo3T5gNHcfPPA7Zt07t179ELDy0hNYF9GVBctJRGS0e8RKufXIObfx6IairtS8TIEKysTBsUeH5jxj+0DZgUgDRvv5Opz7LJPrnOv/8IHWzFmN58s3P1TlowaCF9sZv526EAOXF83wla+PNFtO2dbayjQDvYZNORZJIOygmyXRxlctyJR+CeztyntR2zZ6+v37pwDxFdfDafkVR12nc8QglVz1AqYEUsEemex39B3W/K6tYQAKa2vr2VVk58FU+9CoDf7abOkp/MszxWWHDxxrCmCZ4MxWoXhi892v9xpn9TT5u061grfXbwC9z8C4QaV+nF3y6lv9T+BZuhoOBYpkVvPf42vTRqGW7+BSJlGLQ3HqUUpc/qtUGPi/80g7HahV0BsPjl7f4rlk2HInFq3H+EWhIpsh00UwDOnm3b9PHza+nJexdT5GCEdRyAjIgdidHiwU/RmsVY7y9EJxSZ9iVjlBbsM9rQzLuEeVmI1SbMlgBssrnXb120lyP6Xhv+W2pNKrT/RJQ0/HZYFHwhHw2afhf1uKUH6ygAZ+zTNz+l16asIiWmsI4COeBxCXSeFCBKt63oCQJvPLR5vMgRx2QqEbMnABxxNtn2d258SGk6bTvUQp8fPYGbfxGRozItHfESrXhkBekylnkgv2gpjV6bsoqWjX4ZN/8ioqdNOpCIUauptelYYa9X+Curmz8R0z0ARB7BfIqITrsgZqRN2vNFhLYcPEZxBYNkilXDa41Ud0cdNW8+yDoKQJscaGqmutvraMPyDayjACNJXfvKscKnv81yRGRzVlVuk/1jBqZev2XhM8TR/af+3bZtOhrDmF74Ol7gqd+wfvSTUTeSy4PRwuA8aS1N78x7lz585kOyHDRnHtjieZ66+APkMrmv7QERva5t99U/wnSNk+kTACIil8uqISKdiCgiq9S0/yjG9MI/sEyL3l/4PtXdMZ+aNzezjgPwNQeamqnujvm0ZvEa3PzhayzLokOJOH2hp4j/yrKAS/IMYxiLiBzwBICI6MX+c19uPh4dHFfwegx8N17g6fqh19PNY39KbsnNOg4UMV3R6b9mv0NrX1iLGz+0SZkoUUef2HD/xvEVrLMIrAMQEd1Y9s/bWxVlhG07o5CAs9m2TQcaDlD9nxqo7PwQdb60M+tIUIR2vLeDXnhoCX2+5nO83gdtZlimHQy4bvrLwXePs87imBvurF7TVnyRSN7NOgfkn+4/uZzueOwOCp0fYh0FikD8izi9/fjb1PBaI+sokIc6Bv0v/a5pyq9Y5yBiNA3wdOKG8a9+j/vWlG4EWWeB/LL9vR20e90eunHEjfTjodeTy+uYH2soIGktTR/++0e0etFqvJoKZ8QvumPJUPo3rHOc4pgnAEREC/tM73coknzftG1H5YL8UdqllG59+BbqdWcv4jI5rQOK2o73dtAbNX+h1uZW1lEgTwk8Z3cuKfnnsfUTP2Kd5RTHfUPO6l37zBfx1P3f/V8CfLPv9/k+DZj0M7rgRxewjgJ5rHlzM/3njDdp36Z9rKNAnusUDCx4uGnyKNY5vspxBYCI6A89pzZFkkpP1jkg/116/aU0YNLP6LzLz2MdBfJIy+4W+q8579Bnb32GDX5w1jr4xQ3jtzzWl3WOv+fIxdLOZdY1etpzKKXqHVhngfy26+NdNO+OOrry1ivptvG3UocL8SMF3yx2JEbvLXifNq3YhNf6ICOCkrdFNu0bWOc4HUc+ASAiWnTtrPNbYtGdsmb4WWeBwiC4Ber5Lz+iG0f+hDp+/xzWccBBIgcj9PHzH9P6lzdQWkuzjgMFwudxJ7uUdLj0wfWVx1hnOR3HFgAiorl9ay6LxPQtqpEWWWeBwsHxHF1565V0c+VPqdMlnVjHAYZOHGilD576AL/xQ8ZJbpdyjuTtPqpxyn7WWb6JowsAEdHMipmXqHKySdaNAOssUFh4gacet/SgGx74MV3Y80LWcSCH9tfvpw+f/Yi2vbONbBw7Dhnm97pSZR2k8lEfVX/OOsu3cXwBICJafMPsLi2tsa1JVStjnQUK0/lXnk/X/+Y66nl7T+K/YXoX5Dfbsmnn6p20+snVtL/hAOs4UKCCkrelozdwxbD63zE/6e+75EUBICJ6rn9YbIkI77cm5WtYZ4HCVXZBGfX95dVUcXcFBc7BQ6dCkDyepE0rN9GG5RspcjDCOg4UsJBP2q56rKvC9WGZdZa2yJsCcMqsXjUvHk8qv7Lwag5kkeAW6IqfXkFXD+5Dl1x3CQ4VykOHPjtEG5ZvpIbXGrCxD7KK5zjqGPA/Na5pMvMJf+2Rl99qc6+qvTOa1F5WjLTEOgsUvk7dOlLvgb2p98DeFOqKeQNOFj0UpYZVjdT4WgMd33eCdRwoAqLbpXYISL8es6l6Jess7ZWXBYCI6Lles0MtVvzdiKyV46AOyAWO56hb325UPqicetxyBXn9XtaRgIi0pEZb/7qV6v/UQHs37MWmPsgJjojKAuI6f1nHm0euHplknedM5G0BOKWuz4x7I0nlGbwlALnk8rrosusvpX/62T/RFT+9grwBlIFcMhSDdn+ymz5981P67K2tpCsYzgO5I3ncckj0/3Zs44QXWWc5G3lfAIiIwj3CnqBXWNKaUO4xLQwSgtxyeV30gxt+QN1vupx+2O+HFOyMgZbZEP8iTjvf30nb391O//3RLkrrWNeH3HILglXmF1+Kl6bvC68O5/0PYEHdLOuurrlY0WhZJCVfg1UBYIHjODr/yq50+Y2X0w/7/5C69uiK1wrPkGVadOizw7RzzU7a8d4OOrz1MM7lByY44ijkEze7RP72hzdOaWadJ1MKqgCcMq9ixi0JTVuSULRzWWeB4ubxeeii3hfRpdddQpdefyl17dEVbxR8i9bmVtr18S7a9fFu2v3JLpKjCutIUOQCoqc1KLnvG7tpyuuss2RaQX8TzS6vHR+XtamKkcYCLThC4JwAXdT7Irqo94V0UflFdMGVF5BbcrOOxYShGHTw04O0v2E/HWg4QAeaminVmmIdC4CIiES3oJf6pBlVDZPDrLNkS0EXACKicEXYV2IKiyMpbYhhmXgWC47CCzydd/l51PWKLtSle1fq2r0LdenepeA2FWpJjQ5vP0xHth2hw9uP0JFtR+jozqM4fx8cR+A5u8wvviWFzrknX3f3t1XBF4BTZlbMvMTW1VejitoT64jgZBzHUej8EHXq1ok6XdLp5D8v7kgdu3WkYKegY5cQbNumxBcJOr7vOLXsOU4te1qoZXcLtexpoeihKNbvwdk4olJR3ON3u28f01i9jXWcXHDmN0kWza6YNiCl6M8nNb0j6ywA7SW4BQp1KaXSLiEKdS2l0Pll5O/gJ38HPwU7Bf72ZzEoksvjysg103qa1IRKqdYUpVpTlDyepOSJk3+OHopQ9EiMYoejFD0SI9MwM3JNgFwKiN5IieR5KB8P8zkbRVcATplVUVsTTaoT9LRZnAuwUPB4gSdvwEtiUCSv30uCWyCikxsTT/35FNMwSZf1v/1ZS2mkJlTSUzqZadzUoTB53IIR8nnnj2t4dBzrLCwUbQEgIlrQf0FAjkaWRFLyQAvnBwAAFAWe4ygUENd0ouDAoU1VUdZ5WMFNj4hm95rZSzPVZTFF7Y51SgCAwsQRRyWSd4/kcd1V2TB5C+s8rKEAfEVdxbQhUVVbmFKNUtZZAAAgc/xeVyog+Sqr6ic9wzqLU6AAnMasitqaaEqdqBtmZnZRAQAAE26BN8t8vmfjTcbwMIXx3ulXoAB8g1nXhjtYCr+0NaneZtnYHwAAkE94nqOQT1pXJgYHPri+8hjrPE6EG9t3WNh3RkUspb8SV7RuNmF/AACA0wUl77GQJA4auXHiWtZZnAwFoI3mVkz/v3FZrUvpBka9AQA4kORxy6U+zyOV9VMWss6SD1AA2iFMYb6kXHgiklTHGKYlfPffAACAbHMLvFXmE5fFDfP+8NawzjpPvkABOAOLrgt3Tsj8K5Gk2g+vDQIAsMFxRCFJ2lwSCAwY/sm4Q6zz5BsUgLMwv2J634RmLIspajfWWQAAiklQ8h4rkzz3jthYvYZ1lnyFApABs8trKxOKNl3W0xLrLAAAhUxyu7RSyVtb2TillnWWfIcCkCHh/mFXSdS9ICLLDximhbHDAAAZ5BI4u9TnW5Uy0oOxzp8ZKAAZNr937fdky14eTSnXWNgfAABwVjjiqNQnbg+UugaO+qj6c9Z5CgkKQJbMueoPN8uq8u9xRbuAdRYAgHwUED2tQcl939hNU15nnaUQoQBk2ezy2vExWfu9aqRF1lkAAPKB1+3SyyTp3yobqx9jnaWQoQDkwHP9w2IkKjwdSWlDDMvE/gAAgNPgec7u4Bff8nitwWPWh+Os8xQ6FIAcmlkx8xJbV1+NykpP7A4AAPgSR1Qqinv8bvftYxqrt7GOUyxQABiY32v6z2Jp/fmEonVinQUAgKWA6I2Uit5ho+snrWCdpdigADA0u7x2fFzWpipG2ss6CwBALp0a0zuuafIw1lmKFQoAY+GKsM9vupZGU/JA08LYYQAobDzHUSggrulEwYFDm6qirPMUM9xwHGJu35rLVNleEVXUnpgvAACFhiOOgpLnYInXc/eo+ur1rPMACoDj1FVMGxKTjYVJXStlnQUAIBN8XncqJIpVYxqqn2adBf4XCoBDzaqorYkm1Yl62nSxzgIAcCZOrfPHm4zhYQpbrPPA16EAONisa8MdLIVfGkmqt5k29gcAQH7gOY5CfmldaUlg0LAPq46wzgOnh5tKHph31dTeskYvRRWlO2F7AAA4WFDyHgt4xbvH1k/8iHUW+HYoAHlkbu8//DquJRektHSQdRYAgK+SPG45JHnHj22YvIB1FmgbFIA8E6YwX1IuPBFN6aP1dBr7AwCAKTcvWCV+8XWM6c0/KAB5anHFEx1jprwyklT74bVBAMg1jjgK+cTNJYHAgOGfjDvEOg+0HwpAnpvTZ2ofRbGXxxWtm40NAgCQA0HJeyzgl345dv2E91lngTOHAlAg5l017b5oSpsr60aAdRYAKExet0sPSb7aqsZJNayzwNlDASgg4f5hV0nUvSAiyw8YpoWxwwCQES6Bs0t9vlUdQ+khQ1eHVdZ5IDNQAArQ033nnBvR4n+MJtV+FvYHAMAZ4oio1CdtLwu4Bg37pHoH6zyQWSgABWxun2k3pRTj+biiXcA6CwDkF7/oaT1H9N0/on7CKtZZIDtQAIrAnN7THo4pWq1iGCLrLADgbKJbMEp83vnjGh4dxzoLZBcKQJF4rn9YjESFp1tT6pC0hf0BAPB1PMfZoYD4gei17hizPhxnnQeyDwWgyNRdXXOxotGySEq+BtsDAIA4olJR3BPifXcO3/LIZ6zjQO6gABSpueUzbkvq2pKEonVinQUA2PB7PdGQX/zt6I2T/sg6C+QeCkCRm11eOz4ma1NVI+1lnQUAcsMtCGaZT8KY3iKHAgAUrgj7/KZraTQlDzQtjB0GKFQ8z1HIL67pRMGBQ5uqoqzzAFv4soe/mdu35jJVtldEFbUn5gsAFA6OOApKnoMhj/SLEQ0T1rHOA86AAgD/oK7PjHujKfXJlKaHWGcBgLPj97pSQVF6uLKhejHrLOAsKADwjWZV1NZEk+oEPW26WWcBgPY5uc7vfTkeMoeGV4fTrPOA86AAwLda0H9BQI5GlkRS8kAL+wMAHI/jiEKStDkUCv6fYR9WHWGdB5wLX+jQJvOumtpb1uilqKJ0x9RhAGcKSt5jpZJ4z6iNEz9gnQWcDwUA2mVO+bRfxVV9gazpJayzAMBJktulhPyeCWPrH61jnQXyBwoAtFuYwnxJufBEVNZG64bpYp0HoFgJPGeH/L5VKSM9OLw1rLPOA/kFBQDO2KLrwp0TKX5lNKXegLHDALnDcURlfmmj4OF//vDGKc2s80B+QgGAszanz9Q+imIvjytaNxsbBACyKiB6Wkt80m/GbJz4BusskN9QACBjZpVPH5pU1HmybgRYZwEoNKJb0Et90vSqhsm/Z50FCgMKAGRUmMJ8SS/3ooisPGCYJsYOA5wlgefsMr/4lhQ6556Rq0cmWeeBwoECAFmx6Lpw54TMvxJJqv1wrDBA+3FEVOqTtpcFXIOGfVK9g3UeKDwoAJBVc/tMuymlGM/HFe0C1lkA8kVA9EZKJM9DYzZVr2SdBQoXCgDkRF35tKoTsjpdNdIi6ywATuVxC0bI550/ruHRcayzQOFDAYCcCfcPu0qi7gXYHwDwdTzHUSggrhG91h1j1ofjrPNAcUABgJyru7rmYkWjZZGUfA22B0BR44hKRXGP5HHdVdkweQvrOFBcUACAmXkVM25JaNqShKKdyzoLQK75va5UQPJVVtVPeoZ1FihOKADA3Ozy2vFxWZuqGGkv6ywA2XZyTK/0bLzJGB6msMU6DxQvFABwhHBF2FdiCosjKW2IYWF/ABQenuco5JPWlYnBgQ+urzzGOg8ACgA4ysyKmZfYuvpqVFF74vwAKAQccRSUPAdLJfHekRsnrmWdB+AUFABwpNkV0wakFP35pKZ3ZJ0F4ExJHrdc6vM8Ulk/ZSHrLAB/DwUAHG1WRW1NNKlO0NOmm3UWgLZyC7xV5hOXxUPm0PDqcJp1HoDTQQEAx1vQf0FAjkaWRFLyQMuy8TMLjsVxRCFJ2lwSCAwY/sm4Q6zzAHwbfJlC3pjda2YvzVSXxRS1O/YHgNMEJe+xMslz74iN1WtYZwFoCxQAyDtzyqf9KqHqC1KaXsI6C4DkdmlBnzR1XEP1dNZZANoDBQDy1qyK2ppoSp2oG6aLdRYoPi6Bs0t9vlUpIz04vDWss84D0F4oAJDXFlc80TFhyktak+ptlo39AZB9HHEU8omb/S7+zlGNU/azzgNwpvCFCQVhYd8ZFbGU/kpc0brZhP0BkB0B0dMalNz3jd005XXWWQDOFgoAFJRZ5dOHphR1bko3gqyzQOHwul16mST9W2Vj9WOsswBkCgoAFJwwhfmSXu5FGDsMZ4vnObuDX3xLCp1zz8jVI5Os8wBkEgoAFKxF14U7J2T+lUhS7YfXBqFdvhzT63e7bx/TWL2NdRyAbEABgII3v2J634RmLIspajfWWcD5AqI3UiJ5HhqzqXol6ywA2YQCAEWjrnxaVURRp8l6WmKdBZzHLfBmmc/37LimycNYZwHIBRQAKCrh/mFXSdS9APsD4BSe4ygUENd0ouDAoU1VUdZ5AHIFBQCK0vzetd+TLXt5NKVcY2F/QFHiiKMSybtH8rjuqmyYvIV1HoBcQwGAojavYsYtSU17Nq5oF7DOArnj87pTIVGsGtNQ/TTrLACsoAAAENHs8trxMVn7vWqkRdZZIHtOrfPHm4zhYQpbrPMAsIQCAPClcEXYV2IKiyMpbYhhYX9AIeE5jkJ+aV2ZGBz44PrKY6zzADgBCgDA35n/4+k/SMaM12KKdgXOD8hvJ9f5PQeCXs89o+qr17POA+AkKAAA32B2xbQBsqI/n9D0jqyzQPtJHrcckrzjxzZMXsA6C4AToQAAfI2fjO4AAAPISURBVIdZFbU10aQ6UU9j7HA+cPOCVeIXX8eYXoBvhwIA0Aazrg13sBR+aSSp3mZi7LAjnRrTWxIIDBj+ybhDrPMAOB2+yADaAWOHnSkoeY8F/NIvx66f8D7rLAD5AgUA4AzMKp8+NKmo82TdCLDOUsy8bpcekny1VY2TalhnAcg3KAAAZ+h/jxWWHzBMC68N5pBL4OxSn29Vx1B6yNDVYZV1HoB8hAIAcJae7jvn3IgW/2M0qfbDscLZxRFRqU/aHih1DRz1UfXnrPMA5DMUAIAMmXPVH25OqcqLCUU7l3WWQhQQPa0dRN/9I+onrGKdBaAQoAAAZNiXxwpPVY20l3WWQiC6BaPE550/ruHRcayzABQSFACALAhXhH1+07U0mpIHmhZeGzwTPM/ZHfziWx6vNXjM+nCcdR6AQoMvJoAsmtu35jJVtldEFbUnjhVuI46oVBT3hHjfncO3PPIZ6zgAhQoFACAH6iqmDYkq+qKUppewzuJkfq8nGpLEh0bXT1rBOgtAoUMBAMiRMIX5knLhiaisjdYNHCv8VRjTC5B7KAAAOba44omOMVNeGUmq/Yp9WYDnOQr5xTWdKDhwaFNVlHUegGKCAgDAyPyK6X0TmrEspqjdWGfJNY44CkqegyGP9IsRDRPWsc4DUIxQAAAYm11eWxmTtRmqkRZZZ8kFn9edKhHFhysbqhezzgJQzHB8KQBjVQ1T5tB5QrBzMPCUi+cLdv3bLQhm56BvqdWZD+HmD8AengAAOEjd1TUXy4r9WlRWehbK7gCe4yjkl9aVlgQGDfuw6gjrPABwEgoAgAPN61MzKC6nn06qegfWWc5GieRtLpXEwSM3TlzLOgsAfB0KAICDzS6f9lhcVicpeXassM/riZd5xQmjGyc9yToLAJweCgCAw4V7hD2lHteiiKL+WjdMN+s830Z0u9RSn/j/qxomT2GdBQC+HQoAQJ4I9wh7St3uOTFVHeq0NwZ8Xk88ILnnxevTj+EgH4D8gAIAkIfm9Zk+Jqnov0so+oU2sdkuyHMcBSXPLr/bM3NMQ/XTTEIAwBlDAQDIY4uvnX55QjYfU4z0bSldD2W7C3DEkd/rOeHzuv5TEn2Thn8y7lB2rwgA2YICAFAgFv3o8SsVtz5S1dM3K5r+fcO0hEx8rugWDK/bvVcUXO+6PNbjozc8ujcTnwsAbKEAABSoeb2nX2GRNcgw6ce2bV6om1Zn07KCactyWbbNm5bN8RxHHEc2z3G2wPO62yUkBI5vdbu4nQK51hJnvVnZMHkL6/8XAMi8/wH9+xOMGJ+gkQAAAABJRU5ErkJggg==;" vertex="1" parent="WIyWlLk6GJQsqaUBKTNV-1">
          <mxGeometry x="470" y="70" width="22" height="22" as="geometry" />
        </mxCell>
        <mxCell id="Jy49ukYBbKdyJr5gnZlG-10" value="" style="shape=image;verticalLabelPosition=bottom;labelBackgroundColor=default;verticalAlign=top;aspect=fixed;imageAspect=0;image=data:image/png,iVBORw0KGgoAAAANSUhEUgAAAgAAAAIACAYAAAD0eNT6AAAABHNCSVQICAgIfAhkiAAAAAlwSFlzAAAOxAAADsQBlSsOGwAAABl0RVh0U29mdHdhcmUAd3d3Lmlua3NjYXBlLm9yZ5vuPBoAACAASURBVHic7N13nFTVwT7w58zM9gYLW+i9CCggRQRREKmCoBE0b0xssUGCaGJJNJEkJjHBn2IBJPHV5I0mxkZVQFGJoqgISBEQpO0u28u0nXrvPb8/AGOiwpaZOffeeb6fTz7vq+zsfWTLfeace84RICJbWjXxiY5CuM41YAwWAj0lHN0EZGcAeQCyAOSc/NAGADqAKkCWSziOCxj7hBS7RarYNWPtbcdV/TcQUfwI1QGIKDZemby8gxPaRCHFRAhMANAhJp9Y4LCU4l0H8Lam6a9f8daP6mLyeYlIKRYAIgtbNeHPRXBpswF5FYDRABxxvqQmIf7lEMarDqf4x/TX5jbE+XpEFCcsAEQWIyHFmklPjTeEnCuAmQBcioIEpcDLwhDLZ7552/tKMhBRi7EAEFnEO+MWujxpBf8jIO4BMEB1nv8g8aEQxkPbz69ds3DhQkN1HCI6MxYAIpM7ceMvvE4I/AwSPVXnOYO9Don7Zrwxd6XqIER0eiwARCa2avLSSwH8EWZ7x39mH8AQd3NqgMi8WACITGjtpGWDdCEfBXCJ6iytIAH5kssp77709R8dUx2GiP4TCwCRiay9dGlbIyoXSiHmQtXDfbF24mHBx0Va2m9nrr7RpzoOEZ3AAkBkAgsXLnQM2VJwjYB4GECB6jxxUi4kfrV9dPXTfFCQSD0WACLFVk1eMh4QiwGcozpLQgj5iTRw+6w35n2gOgpRMmMBIFJk5aQlXSDEbwXwfdVZFJAAXnbozp/O2HhLieowRMmIBYAowdbMWJ5pRLW7IcU9ANJV51EsACEX5YYyHxq/6fqQ6jBEyYQFgChBJKRYPWXZlZB4GEBX1XlMplRC3j9zw9y/CQipOgxRMmABIEqAFZOWDnM48BgkxqjOYmYC2KQb8o7L35z3qeosRHbHAkAUR2tmLG8vw9ovpBDzADhV57EIQwLPCy3lrplv3VSlOgyRXbEAEMXB8mHLU4rba3MB8WsAuarzWJRbAA+5HNriaevmh1WHIbIbFgCiGFs5eeklAngM1tu+16wOQuC+mevnvqQ6CJGdsAAQxcir057s69QdjwC4VHUWO5IQb7kkFkx/47Y9qrMQ2QELAFErrRj3aBuRlnavAO4AkKo6j81pEHjGkeK8b8aaW2pVhyGyMhYAohb6yva9iwAUqs6TTARQLyF/nRuuWTJ+00JNdR4iK2IBIGqB1VOXXiQNLAYwRHWW5Cb3CynuvOyNuetUJyGyGhYAomZ4ZerjnZ2G63cCuAb8+TGTtYbDueDydbccUh2EyCr4C4yoCV6c/UhGujd9vgTuB5CtOg99o6iQcpnLqf9i2rr5XtVhiMyOBYDoDFZOWjJDCPE4gO6qs1CT1ALywXBuwZNzXpqjqw5DZFYsAETfYtXUZUNhyMcAjFWdhVpCbJeQC2ZtmPue6iREZsQCQPRfXp20rNAp8CAgbwTgUJ2HWkUC4gUpjXtmvTGvVHUYIjNhASA66Svb9/4KQJ7qPBRDEkEp8HgkLB+cs2meX3UcIjNgASDCl9v3LgYwUHUWiiOJ41LIn/PYYSIWAEpyq6Ys7QeJ/wdu35tstjqE4/YZ62/dojoIkSosAJSU1l66tK2m4R5u35vUpASeS3HKuy99fV6l6jBEicYCQEnlnXELXb7UwhukwIMAClTnIVNohJAP54YyHxq/6fqQ6jBEicICQElj9aRlF0shHwVwjuosZEqlEvL+WRvm/Z/qIESJwAJAtrdq8pLegPgdgNmqs5AlvAOBBTPXz92lOghRPLEAkG1tmLQoK+TIvAtS3AsgTXUeshRDAs8bUvz0ijduq1YdhigeWADIdr5yTO8fABSrzkOW5hbAQ6Hc9o/OeWlORHUYolhiASBbWTnpyfMEHIshMEp1FrKVA0KKn1z2xm1rVQchihUWALIFHtNLCbJRwFhw2YYffaY6CFFr8RclWdqaGcszjah2NwxxNwQyVOehpBAVUi7TI5EHLt90h1t1GKKWYgEgS5KQYvWUZVdKiUUC6KY6DyUfAdRLyF/z2GGyKhYAspxVE58aDqexGBJjVGchEsA+Q4g7Zq2/bYPqLETNwQJAlrFq4hMd4XQ+AIkfgsf0kvmsdeq4ffrGuYdVByFqChYAMr0XZ7+YmuatuQ0QvwGQozoP0WlEhJRPuZz6L6atm+9VHYbodFgAyNRWTloyQwjxGIAeqrMQNUOFkFi4fXT10wsXLjRUhyH6JiwAZEqrpi4bCl0+CoGLVGchaikBbBNCLpixft5m1VmI/hsLAJnKqxOebOdyil9KIeYBcKrOQxQDEsDLLqdx16Wv/+iY6jBEp7AAkCksH7Y8pbi9NhcQvwKQpzoPURwEJPBEJCwfnLNpnl91GCIWAFJu5eSllwjgMQADVGchij9RJmHcN3PD3L8JCKk6DSUvFgBSZtWUpf2EIR+RQkxTnYVIgY+EAwsuWzf3Q9VBKDmxAFDCrb10aVtNwz0CuANAquo8RAoZEng+xSnvvvT1eZWqw1ByYQGghHln3EKXL7XwBinwIIAC1XmITKQRQj6cIvTfT1s3P6w6DCUHFgBKiNWTll0sgcUQ8mzVWYhM7AsI/Hzm+rkvqQ5C9scCQHG1avKS3oD4HYDZqrMQWYbA29KhL5j1+o93q45C9sUCQHGxYdKirJAj8y5IcS+ANNV5iCxIg8AzKUK7f9q6+TWqw5D9sABQTC1cuNAxZEvBNQL4IyCKVOchsoEGAfwhlNv+0TkvzYmoDkP2wQJAMbNy0pPnCeF4DMB5qrMQ2dDnUjjunLX+1tdVByF7YAGgVntl6uOdnYbrdwK4BvyeIoq3jdLhuH3Wulv3qg5C1sZf1tRiGyYtygoh614AP4FAhuo8REkkAonHUpzagzx2mFqKBYCaTUKK1VOWXSklFgmgm+o8REmsDpC/CecWPDnnpTm66jBkLSwA1CyrJj41HE5jMSTGqM5CRF/aAWksmPnGj95VHYSsgwWAmmTVxCc6wul8ABI/BOBQnYeIvtFaIfX5l73x4yOqg5D5sQDQab04+8XUNG/NbYD4DYAc1XmI6AwkglLgcZGW9tuZq2/0qY5D5sUCQN9q5aQlM4QQjwHooToLETVbuZD41fbR1U8vXLjQUB2GzIcFgL5m1dRlQ2FgMSAvVJ2FiFptq5Rywaw35n2gOgiZCwsAfenVCU+2cznFL6UQ8wA4VechopiRAF526M6fzth4S4nqMGQOLACE5cOWpxS31+YC4lcA8lTnIaK4CUDIRbmhzIfGb7o+pDoMqcUCkORWTl56iQAeAzBAdRYiSphSCXn/zA1z/yYgpOowpAYLQJJaNWVpP2HIR6QQ01RnISI1BLBJwLFgxoZbd6rOQonHApBk1l66tK0RlQulEHMBuFTnISLlDAk8L7SUu2a+dVOV6jCUOCwASeKdcQtdvtTCG6TAgwAKVOchItNxC+Ahl0NbPG3d/LDqMBR/LABJYM2UJycYhvNRCHm26ixEZHoHIXDfzPVzX1IdhOKLBcDG1kx8qo/hMH4LYLbqLERkORudUtwx/Y3b9qgOQvHBAmBDL45bkp2Wjp9CinsBpKnOQ0SWpUHgGUeK874Za26pVR2GYosFwEYWLlzoGLKl4BoB/BEQRarzEJE9CKBeQv46N1yzZPymhZrqPBQbLAA2sXrq0oukgcUAhqjOQkR2JfcLKe687I2561QnodZjAbC4lZOWdIEQvxXANeDXk4gSY63hcC64fN0th1QHoZbjDcOi1sxYnmlEtbshxT0A0lXnIaKkExVSLnM59V9MWzffqzoMNR8LgMVISLF6yrIrIfEwgK6q8xBR0qsF5IPh3IIn57w0R1cdhpqOBcBCVk9ZMkJKsRjAaNVZiIj+k9guIRfM2jD3PdVJqGlYACxg1cQnOsLpfAASPwTgUJ2HiOg01hpC/Pjy9bcdVR2ETo8FwMRenP1IRro3fb4E7gOQozoPEVGTSASlwOORsHxwzqZ5ftVx6JuxAJjUyklLZgghHgPQQ3UWIqIWkTguhfw5jx02JxYAk1kz+clzDTgfBeSFqrMQEcWCAD4WwrFgxvpbt6jOQv/GAmASr054sp3LKX4phZgHwKk6DxFRjEkJPJfilHdf+vq8StVhiAVAueXDlqcUt9fmAuJXAPJU5yEiirNGCPlwbijzofGbrg+pDpPMWAAUWjl56SUO4HEJnKU6CxFRgpVKyPtnbZj3f6qDJCsWAAXWTFre3xD6IwCmqs5CRKTYOxBYMHP93F2qgyQbFoAEenHy0/npMvyAFGIuAJfqPEREJmFI4HlDip9e8cZt1arDJAsWgAR4Z9xCly+18AYp8CCAAtV5iIhMyi2Ah0K57R+d89KciOowdscCEGdrpjw5QZeOxQIYpDoLEZFFHABw58wNc19THcTOWADiZM3Ep/oYDuO3AGarzkJEZFEbBYwFl2340Weqg9gRC0CMrRj3aBuRlnavABYASFOdh4jI4qJCymV6JPLA5ZvucKsOYycsADGycOFCx5AtBdcI4I+AKFKdh4jITgRQLyF/zWOHY4cFIAZWTFk2ziHlYgCDVWchIrIzAewzhLhj1vrbNqjOYnUsAK2wctKSLhDitwL4vuosRERJZq1Tx+3TN849rDqIVbEAtMCGSYuyQo7MuyDFPQDSVechIkpSESHlUy6n/otp6+Z7VYexGh460wwSUpw7pWi2htRVgJgJbuZDRKSSE0KcZ0jHdf/T61Jfv++P2LFp0yYeO9xEHAFootVTloyQUiwGMFp1FiIi+joBbJOGuH3mm7e9rzqLFbAAnMGa6cs66VH5ewFcA/59ERGZnQTwsstp3HXp6z86pjqMmfGG9i1enP1IRro3fb4E7gOQozoPERE1SwBCLgrnhP8w56U7g6rDmBELwDdYOWnJDCHE4wC6q85CREStIcokjPtmbpj7NwHB5wO+ggXgK9ZMfvJcA47FAMaqzkJERDH1kXBgwWXr5n6oOohZsAAAWDNjeXsZ1n4hhZgHrowgIrIrQwLPCy3lrplv3VSlOoxqSV0Alg9bnlLcXpsLiF8DyFWdh4iIEqIRQj6cIvTfT1s3P6w6jCpJWwBOzvM/CqCX6ixE8eBMdcGVlQJnegoAwJWWAkeK48T/n5UG8ZWffikltMYTx68bugEtGIXWGIEWjMKIctt1sq0vIPDzmevnvqQ6iApJVwDWTFre3xD6IwCmqs5C1FzCIZDePhuZRTnILM5BZlEuUnPTkZqbhtTcDKTmpZ/853Q402KzT5XUDUQbIwi7g4h4goh4Qgi7Awi7QwhW+xCo9iNY40Ow2s+yQNYk8LZ06Atmvf7j3aqjJFLSFIAXJz+dny7DD0gh5oI7+JHJZbTPRk6PfOT2aIfsTm2+vOGnt8+Gw+VQHe9bheoDaDzuhr/s5P9KT/zfQIUXUvIBbDI1DQLPpAjt/mnr5teoDpMIti8A74xb6PKlFt4gBX4LoL3qPERf5XA5kNuzPfJ6tUdu93zk9GiH3B7tkJqTpjpaTGnBKLxH6uA9XAvPoTp4DtXAe7gOhmaojkb03xoE8IdQbvtH57w0J6I6TDzZugCsnLz0EgCPCmCQ6ixEAJCSnYb8AcUn/jewGG36FsZsqN5q9IgGz8EaNOyrQv3eSjTsr0KoPqA6FtEpn0vhuHPW+ltfVx0kXmxZAF6d9mRfp+54EMBs1VkouaVkp6FgaGcUDO2M/IHFyO7aFkLY8scuJnwlDajdeRy1nx5H3a7jiPiS9gFtMo+N0uG4fda6W/eqDhJrtvpNtGLco21EWtq9AlgAwF5jqGQNAsjrVYDC4V1QNKIr2vYvgnCad87ezKSU8BysRdXHx1D18TF4DtbwOQJSJSqkXBYyXL+cs/EWj+owsWKLArBw4ULH0C2FNwP4DTjPTwnmSHWiaHhXFJ/fA4XDuyKtbYbqSLYUbgiiausxVH14FNWflEKPaKojUdKRVULgvu2jap5duHCh5R9gsXwBWDFxyRCHEMsgMEp1FkoejhQnCod1QcexvVB8fne4MlNVR0oqekRD7Y7jKH/vECrePwwtGFUdiZLIiWOHHbfOfPPWT1RnaQ3LFoB3xj2b7ksP/U5KOR/cvpcSwOFyoGBoZ3S8sDeKz++OlGzOMpmBHoqi4oMjKH3rAGp3lEEanCaghNCEkA+HcgoesOpqAUsWgNWTnxwo4XgewGDVWcj+sjrmoevks9B1Uj+ktc1UHYdOI1TXiLK3D6D0zc/hK2lQHYeSgAT2CIHvzVw/d5fqLM1luQKwavKSmwDxBPiQH8WRw+VA8fk90G3aABQM6WzBnxRyH6zBsXV7UfbWAehhPi9AcSQRhAM3z1w/9znVUZrDMr/W3hm30OVJK3xQAPeozkL2ldkhFz1mDEKXS/ohNTdddRyKgYg3hNI39uPIa58hUOFVHYfsTOBPlTXOH92y7RZLPJRiiQKwYdKirKAj61UhMUl1FrKnNn0K0HPWOeg0rjeX7dmUlBLVH5fg8MpdqNlRpjoO2dfGcFhePmfTPL/qIGdi+gLw+tTHC6LS+TqkGK46C9mLEALF53dHr+8MQf7AYtVxKIHcB6px6JWdKH/vEB8apHj4wOnC9OmvzTX1gyimLgArxj3axpGW9jaAoaqzkH04UpzoOrk/el0xGFkd81THIYUayz04+M/tKHvrAM8loFj71OnCxWYuAaYtAK9PfTw3arg2AhihOgvZg8PlQJeJ/dH3u8OQUZitOg6ZSLDajy9e2oFj6/fxSGOKHYkPwxE50azTAaYsAMuHLU8pLtDXQ+Ji1VnI+oQQ6HBBT5x13XnI6sR3/PTtgrV+HPj7NpRs2A+pc0SAYmLtjvOrZ5px50BTFoCVk5YtEULOVZ2DrO3Ujb//tSOR3bmN6jhkIYEqHw7+cztK1u3j+QPUehKLZr4x927VMf6b6QrAyslLrxfAM6pzkLW1G9QBg24dg7zeBaqjkIW5D9bgsz99gLrd5aqjkMUJiKsu23Dbi6pzfJWpCsCKqct7OQx9B4Ac1VnImjLaZ+Os689D54v7muy7m6ys6qNj2PPUZjRyHwFqOY8hxJDL1992VHWQU1yqA5zy4uwXnQ5v7T/Amz+1gDM9BX2uGope3xkMZ6ppvq3JJorO64aCczvj8IpdOPCPbTx8iFoizyHl/0nIiwSEKeaVTHOIzve6XvxjAdyoOgdZT+fxfXDer6aiaGQ3OLiJD8WJcDqQP7ADOk/oi2C1H/5S067uIvPqtr/3J2UvHHptu+oggEkGSV+btqRY08V+AHxEm5osvV0Wzpk3FsWje6iOQkmo9tPj2LXkXfhL3aqjkIUIoN6tR4f+YOPtJaqzmOLtkq5hIXjzpyYSQqDnzLNx8dPf5c2flGk/pBMuWjIbvWcPhXCY4r0UmVwkrKGq2p+vuyMrVGcBTDACsGLKsu4OKT8HkKo6C5lfTvd8DFkwDm37F6mOQvQl7+E67Ph/b8NzqFZ1FDIhXTfg9YYRCERO/AshkJ3lHPWDD+/6SGUu5SMADmn8Arz50xkIpwP9rhmBi56czZs/mU5uz3YY+9h30Pd/hvEwKfqSlBJebwhVVf5/3/xP/AE0TfxZXbITlI4AvD718YKo4SoBwHNX6VtlFuXg3Lsv4YE9ZAnuA9XY/oe34D/OZwOSWTAYhccTgv4tO0oKIZCRk9n7ug/mH0pwtC8praoR3XkzePOn0+hyST+Me+oq3vzJMtr0LcRFy2aj56xzTDDJSokWiWiorvGjvj7wrTd/4MToAKKRxQmM9jXKCoCEFEIILvujb5Sak4bh903C0J9eDFdGiuo4RM3iTHVh0K1jMPKBqUjN5XucZKDrEu6GIGpqGxGNNO1AqXBEnxTnWKelbB+AoZMKRwshfqLq+mRe7Qd3wqjfTUf+WXzXT9aW3bkNOo3rA/fn1QjWmPJAOGolKQF/Yxj1DQFEmnjj//drpXN296kHVh5/Y0+c4p2WshEAB3CVqmuTSQmg56xzcP7vpiOjPY/rJXvIKMjGmEUz0e+aERCCcwJ2EgxGUVXlg9cTgjRatrmfNLAgxrGaTNmeqVKIS1Vdm8zHlZGCoT+9GB3G9FQdhSjmTqxiGY42fQqwfdFbiPrDqiNRK0SiOrzuIMLNfMf/TaKaPjgGkVpESR1dPemJHlI4D6u4NplPdqc2GPHLycjplq86ClHcNZZ78PGv18N3tF51FGomw5Dw+sJojHGBy8/KOv/qj+Z/GNNP2gRKpgAMh0vpgw9kHsWjumPs49/hzZ+SRlbHPIx99Ap0uICjXZYhJXy+MKqqfDG/+QNAGJGbYv5Jm0BJAXBIeZ6K65KJCKD/tSMx8oGpSMniPlCUXFwZKRhx32T0u2YElwqaXPjE9r3wekMwWjjPfya6JkfF5ROfgZJnACQwUsV1yRwcLgeG3DkenS/uqzoKkToC6HfNcOR0a4sdi96GHtFUJ6Kv0DQdHncIoXD8vy66LrvH/SLfIOHd851xz6Z704J+mOgoYkqclOw0jHxgCtqd3VF1FCLTaNhfhY8XrkPYHVQdJekZhoTPF0KjP4L4vN//BgLIaBfOuH7TwlCiLgkomALwZIR7gjf/pJTZIRdjF1/Bmz/Rf2nbvwgXPHI5sjrxUFRVJIDGQATVVT74E3nzP3nx1Gjb8xN5SUBBAXAYWp9EX5PUa9u/CGMfvQLZnduojkJkSlkd8zB28Xd42JUCobCGmmof3A1B6HGa5z8TTTMuSPQ1E14ADOHsluhrklrtB3fC+b+fgbQ2GaqjEJlaak4aRj80A4XDuqiOkhQ0zUBdXQB1tY2IRr993/5EMKAPTPQ1E78KQErW2yRSdF43jPrNpdzPn6iJnOkpGPmraeh0UW/VUWzrxDG9YVRX+xAKRVXHAQBIQyZ87/OErwIQEAVI7OwKKdLpot4YetcEOFw8H52oORwuB8699xI401woeWO/6jj2IYHAyWN6DUPtO/6vkbJ9oi+Z+GWAAm15/7e/zhP6Yuid4yGcvPkTtYQQAkPuGA9nmgtH1ig5K8ZWImENbk8I0Wjrt++NB0MiN9HXTHwBkJJnY9pc9+mDcPa8C3jwCVFrCeDsuWMhHAKHV+1WncaSdN2A1xtGIBBRHeW0hETC50kVbAQk07j1lX31nHk2Bt2W8IdZiexLAINuPfEzxRLQdFJK+HwR+P1hSGn+YWep4H6s4hmAFPN/Kaglukzsj4G3jlEdg8h+TpYAQzNw9LXPVKcxvUAgCq83CF23zt1GyiQoABLCwYcA7afj2F4Ycsc4DvsTxYsAzvnRhTA0AyUb9qlOY0qRiA6PJ4hIDI7pTTShYGRcyVkAZC/Fo3tg2L2XQDh48yeKKwEMvv0iaIEIyt87pDqNaei6hM8bQmMwwveXzcACQK1SMLQzht87kU/7EyWIcAice88l0AIRVG8rVR1HKSkBf2MYPl8YUtEOflbG39rUYm37F2HkwqlwpPJoB6JEcrgcGH7/ZLTpU6A6ijKhkIbqKh+8nhBv/i3EAkAtklmci5EPTIUzjYNIRCq4MlIw6rfTkd0puc7XiEZ01Nb4UVfXCE032WY+FsMCQM2WmpOGUQ9eirS23NufSKXU3HSc9+ClSM2z/8+iYUi4PSFU1/gRtuBDfmbEAkDN4nA5MPy+yTzVj8gksjrkYuQDU+BIse9UnN8fQWWlD43+sOootsICQE0ngCF3jEf7IZ1UJyGir8gfUIxz75pguz3WwmENVdV+eDxBS2zmYzUsANRk/X8wEp0n9FUdg4i+QccLe6Hvd4epjhETmqajti6A2tpGaCbdu98OWACoSTpc0BN9r7bHLxciu+r//ZHocEFP1TFa7Mt5/io/wiY5ptfOWADojLI7t8HQO8fbbniRyHYEMPQnFyOnW77qJM0iATQGIqiuOjHPz8H+xGABoNNyZaRgxC+nwJWZqjoKETXBiZ/ZyUjJssbPbCisoabaB3dDEDrX8ycUCwB9OwEMuXM8crq2VZ2EiJohu1MbDL1rgqnP5tA0A/X1AdTVNiIa5Xp+FVgA6Fv1nj0UHcf2Uh2DiFqgeFR39Jo9RHWMr5FSwusNo7rah2CQ8/wqsQDQN2o/uBPOuu481TGIqBX6/2Ak2p5VpDrGCfLEMb2VlX74fCFwVZ96LAD0NSnZaRj6k4t5uh+RxTlcDgz/+SSk5qYrzREOa6iu8aOhIQDD4HC/WbAA0Nec8+MLkVGYrToGEcVARkE2hv7kYiWreHRdoqEhiNraRkS5nt90WADoP3Sd3B+dLuqtOgYRxVDRed3QfeqAhF3v1Dx/VZUPgUAkYdel5mEBoC9ldsjFoFsvUB2DiOJg4M2jE3JyYDAYRVXVqXl+TvSbGQsAAQCE04Fh91wCV0aK6ihEFAfO9BSce88lcLji82s/GtVRU+NHfX0AOo/ptQQWAAIA9P3uMLTtb5KnhYkoLtr0LUDv2UNj+jl1XcLdEER1jR8RHtNrKSwAhOwubdDnqtj+UiAic+p3zXDk9Wrf6s8jJeDzh1FV7UNjIALu32s9LABJTgiBIXeMt/VZ4kT0b8LpwODbL2rVMt9QSEN1lQ9eTwiS2/daFgtAkusx82zkDyhWHYOIEqhN30L0nHVOs18XjeiorfGjrq4RGuf5LY8FIIllFGaj/7UjVccgIgX6XzsSWR1ym/SxXx7TW+NHmPP8tsECkMQGz7+IT/0TJSlnmgtnzxt7xo/z+yOorDxxTC/ZCwtAkuo8vg8Kh3dVHYOIFCoc3hUdxvT8xj8LhzVUVfvh8QS5nt+mWACSkDPNhbOuH6U6BhGZwKBbx8CZ/u+RQE0zUFsXQG1tIzRu32trLABJqM/V53KvfyICcOKsgD5XDf33PH+VD+EQj+lNBi7VASixMgpz0Os7g1XHoATSwxoi3hAi3hCiJ49hNTQD+slf8inZaRACcGWlAQDS8jKQ1jaDS0OThNQNGA6B6iofdC7pSyosAElm4A/PhzOVdTwBzQAAIABJREFUX3a7Cdb64TtSD+/ROgQqvAhU+RCo8iFY7Yce0Vr0OVNz05GWn4mM9tnIKMxGTrd85HZri5xu7ZDWNiPG/wWkQuUnJdj80Juo+bxGdRRSgHeCJNJuUAd0HNtLdQxqJS0QQcO+KtTvq0T93kp4DtYg4ov9E9qnRg18R+u/9mepuenI61OAdgM7oN3ZHdC2XxEcqRwxsAr/cTc+emQTDryxX3UUUogFIEkIITDo1jFKzgSn1pFSwnOwBlVbS1C9tQTuA9XKd1+LeEOo2VaKmm2lAABHihNt+hai4NzO6HB+D+T2bKc0H32zaGMEu5/9CJ88+yF0rudPeiwASaLjRb2R17tAdQxqIikl6vdUoPzdQyjffBjhhoDqSKdlRHXUf1aB+s8q8PnftiKzOBcdRvdA8fndkT+oA4Rg81RJSonDaz/D+49sQmOtX3UcMgkFBUDyN0GCCYdAv2uGq45BTdBY7sGx9ftQ9tYBhOoaVcdpsUClF4de3YlDr+5EZlEOukzsj66T+nP1iQI1u45j80MbUbm7QnUUOq3E3xs5ApAEOk/oi+zObVTHoG8hDYmK9w/j6GufoXbncdudqhao8uHz57biwPOfoP25ndF96gAUj+nBUYE4C1T5sPWxf2Hvmj2qo5BJsQDYnMPlQL//4bt/M9KCURx/5yAOvbIT/uNu1XHiTkr55XMDmR1y0XPWOeg29SyuSokxPazhs+c+wcdPvY8o1/PTafAnz+a6TOyPzCYe+EGJoQWjOLxyFw69shPRJN1fPVDhxZ5lm3Hwhe3oOets9LjsbJ5L0VoSOPrmfrz/8NvwVnhVpyELYAGwMUeKE32/O0x1DDpJj2g4snoPvnhxByLekOo4phBuCGDfsx/h8Mrd6HfNcHSbchaEkxuUNlf9vipsfuhNHN9epjoKWQgLgI11ncyHrsyi/L1D2Pv0FgSqfKqjmFK4IYBdT7yLwyt24awbRqHD6B6qI1lCsLYR2558D7tXfAoYqtOQ1bAA2JQQAr2u4Ja/qnmP1mH3ks2o212uOool+Mvc2Prr9SgY2hnnzL+oyefVJxs9rGHfC9vx4bLNiDZGVMchi2IBsKni0T2Q1TFPdYykZWgGDr+6E/v/thUGT1RrtpodZdh0yz/Re85Q9Ln6XDhcnBY4pXzLUbz74AY0lDSojkIWxwJgU3z3r07D/ip8+sg78PEXdKvoEQ2fP7cVFe8fxpA7x6NNn+TeyMp9sAYf/HEjjn14THUUsgkWABtq07cQ+QOLVcdIOtKQOPTyp9j/fx/D0DghGyveI3V4b8Gr6PvdYej7vWFJt39AxBvCzmc+xLZnP1K+BTTZCwuADfWePUR1hKQTrPZh20MbUb+3UnUUW5K6gc+f24qG/VUY+pOLk+I0QkMz8PlLn2LLE+8i7OOqEYo9FgCbyeyQiw5jeqqOkVRqdpRh2+/f5NK+BKj+pASb5r6IYT+biPbndFQdJ27KPziCzX98C3WHalVHIRtjAbCZHjMGQTiSa4hUGQl88dIO7PsLh2YTKdwQwIc/X4Oz545Ft2kDVMeJKe+xemx5+B0c3nRQdRRKAiwANuJwOdBlQl/VMZKCoRnYuXgTSjd+rjpKUjI0Azsf/xfcX9Tg7LljLb9KIOoPY/f/bcUnT2+BzlUjlCAsADbSYUxPpObZf25Utag/jK2/2XDi4B5S6tjrexGo9GLEL6ZYcithqRs4uGo3tizehEBDUHUcSjIsADbSbepZqiPYXqiuEVt+toZL/EykZnsZtty7Guc9OB2pOWmq4zRZ1Sel2PyHN1G9v1p1FEpS1h43oy9ldshFu8GdVMewtWC1H+/ftYo3fxNq+Lwa7/9kBUJ1jaqjnJH/uAebfrYGr17/PG/+pBQLgE10mzIg6dZHJ1JjuQebf7oCjeUe1VHoW/hKGvD+XasQrDbneQtaIILtT76Hv1/2J+xb+5nqOEQsAHYgnA50mdhPdQzbCtb4seVnaxCs9quOQmfQWO7B+/esNtVIgJQSRzfsx9+n/xkfLX8feoQP+ZE5sADYQOGwLkjPz1Qdw5bCDUFs+dkanuJnIYEKL7bct9YU+zLU76vEmmufx7qfrkRjDb+HyFxYAGyg49heqiPYUtQfxgf3rIK/zK06CjWT72g9Pvrl69CCUSXXD1T58K+fr8U/5/wFx3eUKclAdCYsABbnSHGi+PzuqmPYjqEZ2Prr9Xzgz8Ia9ldh62/WQ+qJO5dBD0Wx808f4O/Tl2Pvmj0Juy5RS7AAWFzhsC5IybbO0idLkMDOxZtQu6tcdRJqpZrtZfjsTx/E/0ISKN10EP+8/H/xwRPvIhrS4n9NolbiPgAW1/FCDv/H2sEXd3CHPxs5vGo3crrno9vU+GwbXL+vCu//YSPKtpXG5fMTxQsLgIU5Up0oHtVddQxbqf20DPv/+pHqGBRju5e8h+zObdDu7NgdIBSqa8Snf9qCT/+5DVLnWRBkPZwCsLCi4V3hykxVHcM2gtU+fPK7N3mwjw0ZmoFPfvcGwjHYbteI6Njz14/x3KXLsePvn/DmT5bFAmBhxaN7qI5gG1JKbF/0timWjlF8hBuC2PHwW0Ar7tflW47ixcufxnsPv41oYyRW0YiU4BSAVQmg4NwuqlPYxoHnt6FuNx/6s7vqbaU4vGoXes46p1mvcx+swQeL3sKxLUfjkotIBRYAi8rrVcDNf2KkYX8VDvxjm+oYlCB7n/kQ7Qd3Qm6Pdmf82LA7iO1PvY+d/9jGqSGyHU4BWFTRiK6qI9iCEdWx4/+9ndC14qSWEdGxfdFbp/2aG5qBfS9sx/PTluPT5z/hzZ9siSMAFlU4nAUgFg78fRv8pdzpL9l4D9fh0Ipd6H3lkK/9WdW2Urz3+zdR8zlP6iN7YwGwoJTsNLTtX6g6huV5j9bhi5d2qI5Binz+t63oOLYXMotyAADeY/XY8vA7OLzpoOJkRInBKQALKhjaGcLJL11r7V6yGYbGof9kpYc17HriXUT9YexYuhn/uOIZ3vwpqXAEwIIKhnZWHcHyyt89xKf+k5wEcOTdL7DvrQMI+cOq4xAlHAuABeUP6qA6gqXpEQ17/3eL6hikUCiswesJIhrlCBAlLxUFQCi4pm2kZKchu0sb1TEs7cjqPQhU8Wz2ZKRpBrzeEIKKjgm2gox2WZiy+IoWvdZX7sHGe1bHJMelS2cjNSe9Ra9dfePfoUf0mORIFBXrTDgCYDH5A4ohBDtUS2nBKA69/KnqGJRgUkr4fBH4/SFIrug7LVeaC8VDOrXoteltMmKWo/Dsji3+fMLhAGCtAqACC4DF5A8sVh3B0g6v3IWwu/X7wZNFSCAQjMLjCcEwONxP9FUsABaTP4AFoKW0YBSHXtmpOgYlSCSiw+MJImKxoWCiRGEBsBCHy4E2fbn+v6VK1u9DlE97256uS3i9IQQCPKyH6HRYACwkt2d7ONP4JWsJqRs4vHKX6hgUR5znJ2oe3k0sJK/nmQ8voW9W8cERPvlvY8GT8/w6z3QgajIWAAtpyull9M2Orv1MdQSKg2hUh9sdQiSiqY5CZDksABaSyxGAFglUeFG767jqGBRDui7h84bQGIyoWUBNZAMsABaS0y1fdQRLOrpuL28SdiEl/I1ReH0hHtFL1EosABaR0T4bqbkt2xUrmUkpUfbWAdUxKAZCIQ0edxAa5/mJYoIFwCJye/Ddf0vU76lAqK5RdQxqhejJ9fxhrucniikWAIvI4QOALVL+7iHVEaiFDEPC6wujkXs3tEp+7/YY/IORTf54V0ZKi6+V2T4L4389rcWv/6qUzNQWv/bC+yc1a4po67LN8Fd4W3w9q2IBsIjsTjwAqLmklCjffFh1DGoBvz8CrzcEyQX9rZZVlIP+l5+TkGulZqcl7Fqn02/m2c36+D3/2M4CQOaVWZyjOoLleA7WINwQUB2DmiEc1uD2hKBFOdxPFG8sABaRWcQC0FxVW0tUR6Am0jQDbk8I4RCP6SVKFBYACxAOgfT22apjWE41C4DpGYaE3xeGrzEC7t9LlFgsABaQ3j4bDpdDdQxL0QIRuA9Uq45B30ICCAQi8HlC0Lmen0gJFgALyOL8f7PV76viRjEmFQ5r8HiCiEa5np9IJRYAC8goylUdwXIa9laqjkD/RdMMeL0hBIOc5ycyAxYAC8gs5Px/c9WzAJgGj+klMicWAAtIbZOhOoLleA7Vqo5AEgicPKbXMDjcT2Q2LAAWwDMAmidY40fEG1IdI6lFTm7fG+H2vUSmxQJgASwAzeM9Uqc6QtLSdQmvN4RAIKI6ChGdAQuABbAANI/vWL3qCEmH8/xE1sMCYAEsAM0TSMI9vVUKBqPwekPQNM7zE1kJC4AFpOaxADRHY5VPdYSkEI3qcLtDiEQ01VGIqAVYAEzOmeqCM5VfpuYIVrIAxJOuS/i8ITQGIye29CNTq/u8GhvvWd3kj09vk4ELfjaxRddqrPZjy/97u0Wv/W8X/XIKUrJadiTw2/e/BqMZB0p5j7tbdB2r453F5Fwt/AFIZsEav+oI9iQl/I1ReH0h7rJoIYHaRhx8fW+TPz6nY16LC0A0EGnWtU7ngp9NREoLX3tow35oPFjqjFgATM6R4lQdwVL0UBQ6h6RjLhTS4HEHoemc5yeyCxYAk3OyADRLxBtWHcFWoifX84e5np/IdlgATE6k8BTA5oh4g6oj2IJhSHh9YTT6WaiI7IoFwOQcLo4ANIfGg2Zaze+PwOsNQXJBP5GtsQCYnIMjAM1icKi6xcJhDW5PCFoznp4mIutiATA5jgA0j8HNaJpN0wy4PSGE+dQ0UVJhATA5jgA0j6Hx3WtTabqBigYfUnQHdBYnIqWEgEj0NRNfAAQENw9pBpHw7wlr49/XGUkA1V4/Sus8iOoGHHCgICsDmSIFOpf5ESUNjgCYnOQv5GbhssnT8wRDOFrrRiD87+F+AwaqGhvhdAp0zMyFQ5Ps6ERJgAXA5KTOX8XN4UhlAfgmoaiGkjoP6vyBb/0YXZco9XmQnuJCcUY2jCjLJ5GdsQCYHEcAmseZxm/pr9KlRHmDD+UNXhhNXNYXimo4GnUjPyMTea5UPh9AZFP8bWlyLADNw62TT5JAjT+AY7VuRPWWPRhZHwygXgRQnJmNdDhhcP9/IlthATA5nevamyU1J011BOX84QiOVDfAH460/pNJoLLRj1SnE8WZWYAuAG4QRGQLLAAmx53tmictPwsQSMpjaiOajpI6D2p9AcT6Mb6IrqPE50V2WioKUjM5LUBkAywAJscC0DwOlwOpOemIeEOqoySMYUgcd/tQ7vbGfZjeH47AH46gXWYmcp0p0LUkbFpENsECYHJaMAbDuEkmvV1WUhQACYl6fxDH6twIJ3j73rpAAA1woDgnG6mG4PMBRBbEAmByRkSHoRlwuLgjYFOl52fCe6ROdYy48ocjOFrjhi+k7rQ+AwbKfV6ku1wozsyCocmknHoxu+ziXHQf17vJH5+Wl97ia6XlpGHQ1ee2+PVf1ZoVPQOuHNysbcEPbdiPYMO3L5G1KxYAC9Aaw0jNy1AdwzIyO+SqjhA3EV1HWZ0XVT6/aW62IU3DUa8HeenpyE9Nh879A0ylba92GHvfpIRcK6NdVsKudTpj7rmkWR9ftaucBYDMKewJsQA0Q07XfNURYk5KiUpPI0rrPdANc95gPaEQfKEICrIykCFcMLiJFZGpsQBYQMQTBNBWdQzLyOlmr7+rhkAIR6rrEbbAQUf/va2w0MFlg0QmxQJgARGP/R9oiyW7jAA0npzn9yqc52+pU9sKZ6S4UMRthYlMiQXAAsKeoOoIlpLWNgOpudZdCqgZBkrrvajy+CEt/u45+OW2wunIc6Vz/wAiE+Gj5RYQTsKHU1qrbb9C1RGaTUKiwu3H9qMVqHT7LH/z/6r6YAhH/G5EHAYcDh7ZTGQGLAAWEKzxq45gOfkDO6iO0CyeQAg7S6pwtLbBtA/5tdrJbYXLQ36IFAdYA4jU4hSABQSrWQCaK3+QNQpAMKLhaJ0b7sbkmeaJ6DqOed3cVphIMRYAC2ABaL62/QrhSHXCMOlhSppuoNztQ7nNhvqb49S2wgWZWchycNkgUaJxCsACAjU+02z6YhWOFCfa9jXfcwASQJXXj09LKnC8wZu0N/+vqgk0osTvg+YCnw8gSiAWAAswIjpCfBCw2QpHdFMd4T94giHsKq3E4eoGRHUOe3/VqW2FK8ONcKQI8AEBovhjAbCIxuNu1REsp3iUOQpAKKrhQGUd9h6vQSDM0x1P59S2wl49AifPvyCKK/6EWYS/jAWguXK65SOrU56y6+tSorTei50llajzcwSnOdzhEI75vAg7dDicHA4gigcWAIvwH/eojmBJxed1T/xFJVDjC2DH0QqU1XtgcJ6/RU5tK1zW6IN0CUCwCBDFElcBWEQjRwBapMOYnjj06s6EXe/EMb0N8IUiCbum3WnS4LbCreAr82DnXz9u8senZKViwJVDWnStsCeE/St3tei1/23g1efC1cIjgXc99wlkM56zCdQ2tug6VscCYBG+Y/WqI1hS/oBiZHXKQ2OcR1Aimo6SOg9qfQFILtmIi1PbCrfLyESuMxU6H6RsEvexenzw8NtN/vicjnktLgDBhkCzrnU6/Wae3eIC8NFj/4IW4vM2Z8IpAItorPRCC/BdZbMJoMsl/eL26Q3jxDz/jpIK1PgaefNPgLpgAEf9bmhOyWWDRK3AAmAVEvAe5ShAS3Sd1B8ixjcKCYk6fwCflp6c5zd4408kCaDc7+O2wkStwAJgId7DdaojWFJ6uywUDO0cs8/nD0fwWVkNDlTWIRw1506DyeLUtsL1RgjOFP46I2oO/sRYiPdwreoIltVj5tmt/hwRXcfh6gbsLquCLxSOQSqKFV84giNeN4JCh5PLBomahA8BWoj7ixrVESyraEQ35HRtC19JQ7NfK6VEpacRpfUe+57UZxM1gUbUCYHi7BykGAKSUzNE34ojABbiPVwHPaypjmFNAuh5xeBmv6whEMKnxyrtfUyvzRhSotznRVWI2woTnQ4LgIUYmgEPRwFarMuEvkjPz2zSxzaGI/jseDX2l9cgpLF0WVFI57bCRKfDnwqLadhfrTqCZTlSnGccBdAMA0dq3dhdVg1vkPP8dnBqW+GIw+CyQaKvYAGwmIb9VaojWFqPywYho3321/69hESF24/tRytQ6fbxmF6bMWCgstGPsgC3FSY6JfEFQHJGrjXqdpeDe820nDPVhb7fG/Yf/84TCGFnSRXn+ZPAqW2F66IBLhskUzEU3Bq5CsBiwu4gfKUNyOnaVnUUy+o6qT8OvbITNYdrcbTODXdjUHUkSrDGaBRHTm0r7EqFrrH4naIFozj27qEWvdZf6Y1ZjtIPjiA1O61Fr5Us8k3CAmBBtTuPswC0gnA60P2aYdh401851J/k6oIBTF16ObS6ILYvfR8hN8tgsCGA1+e9pDoGNt6zWnUE2+MYmAXV7SpXHcHyeo7ri/7j43dGAFnDgIkDMHDSQAz+7nBcvfZmnHPtCDic/LVIyYHf6RZUu/M437nGwIxfzkBKRorqGKRISkYKZtw//ct/zsjLwJifTsDl/7wWXUZ3VxeMKEFYACwo4g3Bc5D7AbRW285tcfG88apjkCIXz7sYbTq1+dq/L+xXhOnLr8bkJ7+Dtt3yFSQjSgwWAIuq+rhEdQRbGPvDsSjuX6w6BiVYx4EdMfbGC077MT0v6oMrX7kBw+dfiJSs1AQlI0ocFgCLqv6EBSAWnC4nrn70KqSkcyogWbjSXJizaDacKc4mfeyIm0bjqtU3YeBVQ2N+rDSRSiwAFuX+vBphPrEcE0V9ijD5J5NUx6AEmXbvVBT1LWrWa3IKc3Dh/ZMx8/nvo+O5sTtamkglFgCLklJyFCCGRl83Gn3H9lEdg+Ks79g+GHXNqBa/vsOgjrjs2e/hwt9MRXbh13eUJLISFgALq3j/iOoItiGEwJV/uBI5BTmqo1Cc5Bbl4so/XgnRym2AhUNg4KzBmLPqJgy5cRScqWeeSiAyIxYAC6veVgItGFUdwzZyCnNwzdLvwZXK/bHsxpXqwjVLvxfTgpeWnYbzF4zDlStuRJ9pZ8Xs8xIlCguAhRkRHdVbOQ0QS12HdsXlD85SHYNi7LKFM9BlcJe4fO78rvm45A8zcenTV6GgX2FcrkEUDywAFle+uWV7dtO3O/eKczHqey2fJyZzOf+aURgxZ0Tcr9P1vB64/IVrcf69E5Celx736xG1FguAxVV9zGmAeJj+i0vR5wI+FGh1/S/uj+m/mH7mD4wRp8uJId8bgTmrb8LAq8/lskEyNRYAi9NDUVR+wIcBY83pcuL7y65B9+HdVUehFuoyuAu++9jVSvb2z8rPwoX3TcLsFTeg+4W9En59oqZgAbCBsrcPqI5gSykZKbj2zz9Ah7M6qI5CzVTUpwjX/e91SM1Qu4Nfu54FmLpkNiY/+R204QmeZDIsADZQs6MMofqA6hi2lJ6Tjuv+91q07cxf3laR3yUfN/zlemS2yVAd5Utfbiv847FIUVxKiE5hAbABaUgc33RQdQzbyi3Mxc1/vwntu7dTHYXOoKBXAW554WbkFuWqjvI1KekpGHHzGMxZfSP6Th8I8PEAUowFwCaOrdsL8ITguGnTsQ1ueeEWHhxkYoW9C3HT335oypv/V+UW52HC72dg1vPfR4eh3FaY1GEBsAl/qRt1n1WojmFr2e2zcfPzN6HrkPisJ6eW6zSoE27+x03IKbTOTo4dzu6EmX/9Hsb/fjqyCritMCUeC4CNHHt9r+oItpeRl4Eb/nID+l7YV3UUOqn/xf1x899vQlbbLNVRmk0Igf7TB2HOqh9i8PXnwZnCX8mUOPxus5HyzYcQ8YVVx7C9tOw0XPvnH+CiWy5SHSXpjbx6JL6/7BqkZlr7wbr0nHSMvnM8rlxxI3pzW2FKEBYAGzEiOkrf2K86RlJwOB2YctdkXPHby+F08TCYRHM4Hbhs4WW4/MFZStb5x0t+t3aY+IeZmPbnq9C+X4HqOGRz9vnJIQDAkdW7IQ0+DZgoI64agRv+cr2l5p6tLrcoFz/82404vxXH+ppdt1E9cMUL12HU3RcjLYfbClN8sADYTKDKh8oPj6qOkVR6juqJ29fOR//x/VRHsb3eY3rjRyvnocfIHqqjxJ3T5cTQ74/E1a/fjHOuHcFthSnmWABs6PCKXaojJJ2s/Cz84E8/wIxfTIczhVMCseZwOnDJ/Am44dnrY3qkrxVktsnEmJ9OwOUvXItOI7uqjkM2wgJgQ3W7y+H5okZ1jKQjhMDoa0dj7su3oeOAjqrj2EbHgR3xo5XzMGH+hKR+F1x0VjFmPP1dXLzoMuR2zFMdh2wg4W9Vvtv70hsBcCF1nEX9YXQcy0NIVMgpzMGIOcOR1TYTRz85Cj2qq45kSSnpKbh47njMfni26Tf3SRQhBNr3LsBZs4cgJTcNNbsq+P1lEw6nI7ym4s2HEnrNRF6MEqdi82E0HveojpG0HE4HRl87GvPXzkfvMb1Vx7Gc3mN64/bX5mPC/AlcZfENUtJTcO51o3DlihvQZ9oA1XHIojgCYFcSMCIaikd1V50kqWXmZeDcy4ei+7BuqNhfAX+tX3UkUyvo2R6zfj0TU+6agsw2marjmF56Tjp6TuyHThf0gO9IHXyVPtWRqIVUjACwANiY72g9ukzqjxSLb5JiB/ld8zHyqhHILcrF8T3HEQlEVEcylZyCHFz682m44ndXoLgvz1torpyiXPS97GxkFmWjdk8losGo6kjUTCwAFFPSkDAiBopGdlMdhQAIh0DnszvhvP85D5l5Gag6UI1wY3Lv3JhblItLbp+A2Ytmo+vQrkn9kF9rCYdA4YAO6H/FYBi6jtq9ldwTxEJUFICE/7Stmrz0fQCjE33dZOVwOXDx099FZjEfojIbPapj12u7sGnZv1B9qFp1nITK75KPMdeNxsirR8KV5lIdx5bqj9bh40ffwZG3v1AdhZrAlery3rz9roQu7+AIgM1JQ0ILaig+v7vqKPRfHE4HOvTvgFHfOw8dB3REuDGMhtIGSGnPd20OpwP9xvfD1HumYObCy9B1aFc4XHwOOV4y2mSi99QByB9YhIb91Qg2BFVHotNQMQKQ8OotIYVI/MBDUit9cz96zx6C7M5tVEehbyAcAgMmDsCAiQPgrfZix4od2PrPragrqVcdLSbyivMwZOYQjPqf89CmE78HE63XRX3QfUxP7HlpB7Y9sRlhX0h1JPoGAkbCb4wJv+DKyUs+EBDnJ/q6ya7TRb0x7GcTVcegJpKGRMmOEnz25l7sfeMzy5WBdt3aYeDkgRg4cQC6DO7CuX2T8Nf48cnS97D/1V18PsBkUlIdvpu235PQuVoWgGQhgLGLv4O2/QpVJ6EWqPy8Ens37sMXm79A6a5SaGFNdaT/kJKegi6Du6DX6F4YOHEAivoWqY5Ep1HxWTk+XvQOyreVqo5CJ7EAUFy1G9QBYx6epToGtZIW0VC2qwxHth7F0a1HUbGvAr6axK7/zi3MRYezitFteHf0HNkDnc/pzDMQLEZKic/X7cW2x96Ft5ybhqmmogDw8dskUrenAhUfHEGH0fY/Sc3OXKkudB/eHd2HdwduO/HvAu4AKj+vRPUX1ag6UAV3hQeeCg/8tX74a/3NfrBQCIHs9tnIbp+NvOJc5HVog6K+RSjqU4jifh2Q2SYj9v9hlFBCCPSfNhA9x/fBjmc/xO5nPkbUZCNLFF8sAElE0w289fAbuPqFG+FK5ZfeTjLbZKLneT3R87yeX/szXdPhr/Uj5A1Bi2iIBCLQozrC/hN7EKRlp8GZ4kRqZipcqS6k56Yju302t+BNEqkZqRh242h8tGo70moMGFFDdSRKEN4FkoEEavwBHKttQFQ38N7/bsb428apTkUJ4nQ5kVech7xiniBH3+zzLUHcAAAgAElEQVRff3oXFSf3osjPSEeeKx26xiJgd1yEa3OeYAg7yyrxRVUdovqJH+h3lr6DhrIGxcmIyAzc5W68+6d3v/zn+mAIR/xuRBwGHFy9YWssADYVimo4UFmHvcdrEAj/577g0WAU6/6wXlEyIjKTNb9Zi0jwv86mkEBlox9lIe+JcWLBImBHLAA2o0uJ0novdpZUos4f+NaP271uNw5uPpjAZERkNvvf+Rx739z7rX+u6RIlPi/q9AB3bbQhfkXtQgI1vgA+PVaBsnoPjCY89b3i/pU8lY4oSUWCEaz+1eomfWxjOIqjPjcahQYni4Bt8CtpA/5QBHuOV+GLqjpENL3Jr2soa8DGx9+KYzIiMqsNizY0+1mgukAAx3xeaC7w+QAbYAGwsIim44uqeuwpq4Yv1LJ38u8/+z7Kdh+PcTIiMrPSnWX48PmPWvRaAwbKfV6UB/0QKbyFWBm/ehZkGBLHG7zYcawCNb5GSLR8T29DN/Dqz1+F3oyRAyKyLi2i4ZV7X4Ght26ZX8TQcczrhluG4GQRsCR+1SxEQqLOH8CnpRUoqWvaPH9TVOyrwNtPvB2Tz0VE5vbGI2+i6mBVzD6fNxTBMa8XYYcOp5O3FCvhV8siGsMRfFZWgwOVdQhHY/9ufdNT/0LJpzwYhMjOjm07hveffT/mn9eAgarGRpQEPZAuwWWDFsECYHJRTcfh6gbsKquCLxSO23UM3cCLd/6TqwKIbCoSjOClu19u9dD/6ei6RKnPg5poIxycFjA9foVMSkqJCrcfO0oqUOX1oxXT/E1WV1LPDYKIbGrtb15D3bG6hFwrGNVw1OuGH1w2aGb8yphQQyCET49V4mhtA3QjAXf+r/jo7x+ddmMQIrKePev3YOuLWxN+3fpggNsKmxgLgIkEo1HsK6/B/vIahDQ1x3JKKfHyva/Afdyt5PpEFFvucjdevW+FugAntxUuD/m5rbDJsACYgGYYOFLrxs6SKrgDIdVxEPQE8ff5/+DSQCKLM3QD/7j9BQQ9QdVRENF1lPi8qNeDnBYwCX4VFJI4Mc+//WgFKt0+yBgt64uF0p2leOsx7hJIZGXr/7geJTtKVMf4D/5wBEd8bjRCg8PJ0QCVWAAU8QRC2FVSdXKe35znbm966l/Ys36P6hhE1AJ739yLzc/EfslfrNQFAyjx+7itsEIsAAkWjGjYX1GDveU1CESiZ36BQlJKvHzPK6g+VK06ChE1Q83hWrx410umGlX8Jqe2Fa4MN8KRIgD2gIRiAUgQTTdQUufBztJKNDSqn+dvqnBjGM/d9hzC/vjtQUBEsWPFn9mQpuGo1wOPEeG2wgnEv+l4O3VMb0kljjd4Td/Iv0nN4Vq8fO8rlsxOlEykIfHPO/5p2VE7Tyj05bbCfD4g/lgA4sgTDGFnWSW+qKpDVLf2E/V71u/BWzw6mMjU1i9aj31v71cdo1VObStcGvRyW+E4YwGIg1BUw4HKOuw9XoNA2Nzz/M3x9pPv4NNVn6qOQUTfYPuKHXj3z++pjhEz3FY4/vi3GkO6lCit92JnSSXq/AHVcWJOSolXfv6q6ZYVESW7Y9uOYYXKzX7i6N/bCke4f0CM8W8zBiTkiXn+YxUoq4/dMb1mpIU1/O2251BXUq86ChHhxDM6f7v1OWgRNbuHJkp9MMRthWOMBaCV/KEIPiurxhdVdYgkyc55/lo/nrn2Gfhr/aqjECU1X7UPz97wLBobGlVHSYyvbCssUhxcNdhKLAAtFNF0fFFVjz1l1fCFku8I3frSevzlh3/l8cFEioT9Yfzlh39FQ1mD6igJF9F1HPO6UW9wW+HW4N9cMxmGxPEGL3Ycq0CNrxEyEef0mtTxPcfx/Lzn/397dx4lRXnvDfxXVb1U9TLTg4CCSyJqIuINMCPiEi8Y4/KGqyIxSrjJeYMbYZ/ByDLga4cZ4AZ92YZFXK6KiEQwYsy9aq4LuCDbLKBsXvZhdWB6r7Wr6v6B5GqCOgPd/VR3fz//iOdI19dz5nR9p56nnh9mBgDkWFpP04sjltLhbYdZR2EqoRm0NxElhTNJwGuD7YYC0EY22XQiKVNT8xE6cKKw1/nb4/MP/5teHrucLNOZxxkDFBrLtOiVh1fQ7rW7WUdxjBY5RfuTcRwr3E4oAG2Q0nTaerCFPj96gjQDv+3+va1vb6WVE14l20IpAsgm27JpxSMr6NM3P2UdxXEssulwIk5HcKxwm7lyfUGOuLy5Sxhpk5pb43QskaQiftLfJo2rGklw8zRo+iDicHAHQMbZtk2r/t/r1PTnzayjOJr25bHCIVGkMrdIZhpPJ79JzgsA2WQ4vZnZtk1HYylqbo2Sid9q22zTinry+Lz0L1MGoAQAZJBt2/Tn8Bu0YfkG1lHyRlRVKa7q1MkvkcS5Hb9MyRGf8/c4c14AbJ40Jz8DiMgq7fsiQmq6sN+pzZa1L6yltJamgVPvJA5rcQBnzbZteuP3b9C6l9axjpJ3Th0r7OJ46hIIEmcSkWP3b9mFXwA4mxw5Ck8xDNrXEqWo7Mh4eWXD8g1kWzbdVTsQJQDgLNjWydM361fWs46S19K2Rc2JGEkuF53rC5BlOPJpQM7Pjc/9EwDiWjkHLainTYuaI3E6Fkti2l0GbXxlI1mWRYOm3UW8gL2mAO1lmRatHL+SGjF/I2OU9Mljhc+RfFQieMh00LIAz/PxXF+TwRMAu8UJewBssuloFOv82VS/sp6UqEK/nDuYXN7cbzcByFdpPU3Lq/5IW9/eyjpKQTqhyNRKMnUJBMlj82Q54R7A2Tk/Xz3nv5pxZDMfVB2TVdpy4BjtOx7BzT/Ltr2zjZ6773nSkhrrKAB5QZd1euHBJbj5Z5lNRIeTiZPHCrvY/1bK21zO7425fzbL8Xtzfs0vqXqadhxpoW2HW0jWC2dMr9PtWb+Hnvn1M5RqLZLzygHOUPJ4kp68dzHt+ngX6yhFQzdN2p+IUcRSSWA5dpjnct74GDwB4HL+k502LTpwIkZNzUcpksImPxYOfnqIFv58EbXsbmEdBcCRTuw/QYsHL6Yj24+wjlKUEppOe+PsjhXmeW59zq+Z6wt67MQuIsrNzgubTo7pPXCUDkXi2OTHWGtzKz1575O0dwOzh0AAjrS/fj8tuvtJOr7vBOsoRa9FTtF+OUGmQJSrl5g4Igqq3Ie5udrXr5tzf7514TabqHs2rxFTVNp3PEqyhkf9TuPyuGjQjEHU+85erKMAMNfwpwb60+TXyMQx444jCi46z+8nK21n9TRYl8CrD22eIGXvCt9w3VxfkIjIJtpIWSoAqpGmAydidCIpZ+PjIQPSeppW/G4Fndh3nG4afRPOCoCiZFs2/XXWX2nN4g/wdNKhVPPLY4W9IpV5snessODmD2Tlg78Dkx0PHGdnfK3DtG1qbo3T5gNHcfPPA7Zt07t179ELDy0hNYF9GVBctJRGS0e8RKufXIObfx6IairtS8TIEKysTBsUeH5jxj+0DZgUgDRvv5Opz7LJPrnOv/8IHWzFmN58s3P1TlowaCF9sZv526EAOXF83wla+PNFtO2dbayjQDvYZNORZJIOygmyXRxlctyJR+CeztyntR2zZ6+v37pwDxFdfDafkVR12nc8QglVz1AqYEUsEemex39B3W/K6tYQAKa2vr2VVk58FU+9CoDf7abOkp/MszxWWHDxxrCmCZ4MxWoXhi892v9xpn9TT5u061grfXbwC9z8C4QaV+nF3y6lv9T+BZuhoOBYpkVvPf42vTRqGW7+BSJlGLQ3HqUUpc/qtUGPi/80g7HahV0BsPjl7f4rlk2HInFq3H+EWhIpsh00UwDOnm3b9PHza+nJexdT5GCEdRyAjIgdidHiwU/RmsVY7y9EJxSZ9iVjlBbsM9rQzLuEeVmI1SbMlgBssrnXb120lyP6Xhv+W2pNKrT/RJQ0/HZYFHwhHw2afhf1uKUH6ygAZ+zTNz+l16asIiWmsI4COeBxCXSeFCBKt63oCQJvPLR5vMgRx2QqEbMnABxxNtn2d258SGk6bTvUQp8fPYGbfxGRozItHfESrXhkBekylnkgv2gpjV6bsoqWjX4ZN/8ioqdNOpCIUauptelYYa9X+Curmz8R0z0ARB7BfIqITrsgZqRN2vNFhLYcPEZxBYNkilXDa41Ud0cdNW8+yDoKQJscaGqmutvraMPyDayjACNJXfvKscKnv81yRGRzVlVuk/1jBqZev2XhM8TR/af+3bZtOhrDmF74Ol7gqd+wfvSTUTeSy4PRwuA8aS1N78x7lz585kOyHDRnHtjieZ66+APkMrmv7QERva5t99U/wnSNk+kTACIil8uqISKdiCgiq9S0/yjG9MI/sEyL3l/4PtXdMZ+aNzezjgPwNQeamqnujvm0ZvEa3PzhayzLokOJOH2hp4j/yrKAS/IMYxiLiBzwBICI6MX+c19uPh4dHFfwegx8N17g6fqh19PNY39KbsnNOg4UMV3R6b9mv0NrX1iLGz+0SZkoUUef2HD/xvEVrLMIrAMQEd1Y9s/bWxVlhG07o5CAs9m2TQcaDlD9nxqo7PwQdb60M+tIUIR2vLeDXnhoCX2+5nO83gdtZlimHQy4bvrLwXePs87imBvurF7TVnyRSN7NOgfkn+4/uZzueOwOCp0fYh0FikD8izi9/fjb1PBaI+sokIc6Bv0v/a5pyq9Y5yBiNA3wdOKG8a9+j/vWlG4EWWeB/LL9vR20e90eunHEjfTjodeTy+uYH2soIGktTR/++0e0etFqvJoKZ8QvumPJUPo3rHOc4pgnAEREC/tM73coknzftG1H5YL8UdqllG59+BbqdWcv4jI5rQOK2o73dtAbNX+h1uZW1lEgTwk8Z3cuKfnnsfUTP2Kd5RTHfUPO6l37zBfx1P3f/V8CfLPv9/k+DZj0M7rgRxewjgJ5rHlzM/3njDdp36Z9rKNAnusUDCx4uGnyKNY5vspxBYCI6A89pzZFkkpP1jkg/116/aU0YNLP6LzLz2MdBfJIy+4W+q8579Bnb32GDX5w1jr4xQ3jtzzWl3WOv+fIxdLOZdY1etpzKKXqHVhngfy26+NdNO+OOrry1ivptvG3UocL8SMF3yx2JEbvLXifNq3YhNf6ICOCkrdFNu0bWOc4HUc+ASAiWnTtrPNbYtGdsmb4WWeBwiC4Ber5Lz+iG0f+hDp+/xzWccBBIgcj9PHzH9P6lzdQWkuzjgMFwudxJ7uUdLj0wfWVx1hnOR3HFgAiorl9ay6LxPQtqpEWWWeBwsHxHF1565V0c+VPqdMlnVjHAYZOHGilD576AL/xQ8ZJbpdyjuTtPqpxyn7WWb6JowsAEdHMipmXqHKySdaNAOssUFh4gacet/SgGx74MV3Y80LWcSCH9tfvpw+f/Yi2vbONbBw7Dhnm97pSZR2k8lEfVX/OOsu3cXwBICJafMPsLi2tsa1JVStjnQUK0/lXnk/X/+Y66nl7T+K/YXoX5Dfbsmnn6p20+snVtL/hAOs4UKCCkrelozdwxbD63zE/6e+75EUBICJ6rn9YbIkI77cm5WtYZ4HCVXZBGfX95dVUcXcFBc7BQ6dCkDyepE0rN9GG5RspcjDCOg4UsJBP2q56rKvC9WGZdZa2yJsCcMqsXjUvHk8qv7Lwag5kkeAW6IqfXkFXD+5Dl1x3CQ4VykOHPjtEG5ZvpIbXGrCxD7KK5zjqGPA/Na5pMvMJf+2Rl99qc6+qvTOa1F5WjLTEOgsUvk7dOlLvgb2p98DeFOqKeQNOFj0UpYZVjdT4WgMd33eCdRwoAqLbpXYISL8es6l6Jess7ZWXBYCI6Lles0MtVvzdiKyV46AOyAWO56hb325UPqicetxyBXn9XtaRgIi0pEZb/7qV6v/UQHs37MWmPsgJjojKAuI6f1nHm0euHplknedM5G0BOKWuz4x7I0nlGbwlALnk8rrosusvpX/62T/RFT+9grwBlIFcMhSDdn+ymz5981P67K2tpCsYzgO5I3ncckj0/3Zs44QXWWc5G3lfAIiIwj3CnqBXWNKaUO4xLQwSgtxyeV30gxt+QN1vupx+2O+HFOyMgZbZEP8iTjvf30nb391O//3RLkrrWNeH3HILglXmF1+Kl6bvC68O5/0PYEHdLOuurrlY0WhZJCVfg1UBYIHjODr/yq50+Y2X0w/7/5C69uiK1wrPkGVadOizw7RzzU7a8d4OOrz1MM7lByY44ijkEze7RP72hzdOaWadJ1MKqgCcMq9ixi0JTVuSULRzWWeB4ubxeeii3hfRpdddQpdefyl17dEVbxR8i9bmVtr18S7a9fFu2v3JLpKjCutIUOQCoqc1KLnvG7tpyuuss2RaQX8TzS6vHR+XtamKkcYCLThC4JwAXdT7Irqo94V0UflFdMGVF5BbcrOOxYShGHTw04O0v2E/HWg4QAeaminVmmIdC4CIiES3oJf6pBlVDZPDrLNkS0EXACKicEXYV2IKiyMpbYhhmXgWC47CCzydd/l51PWKLtSle1fq2r0LdenepeA2FWpJjQ5vP0xHth2hw9uP0JFtR+jozqM4fx8cR+A5u8wvviWFzrknX3f3t1XBF4BTZlbMvMTW1VejitoT64jgZBzHUej8EHXq1ok6XdLp5D8v7kgdu3WkYKegY5cQbNumxBcJOr7vOLXsOU4te1qoZXcLtexpoeihKNbvwdk4olJR3ON3u28f01i9jXWcXHDmN0kWza6YNiCl6M8nNb0j6ywA7SW4BQp1KaXSLiEKdS2l0Pll5O/gJ38HPwU7Bf72ZzEoksvjysg103qa1IRKqdYUpVpTlDyepOSJk3+OHopQ9EiMYoejFD0SI9MwM3JNgFwKiN5IieR5KB8P8zkbRVcATplVUVsTTaoT9LRZnAuwUPB4gSdvwEtiUCSv30uCWyCikxsTT/35FNMwSZf1v/1ZS2mkJlTSUzqZadzUoTB53IIR8nnnj2t4dBzrLCwUbQEgIlrQf0FAjkaWRFLyQAvnBwAAFAWe4ygUENd0ouDAoU1VUdZ5WMFNj4hm95rZSzPVZTFF7Y51SgCAwsQRRyWSd4/kcd1V2TB5C+s8rKEAfEVdxbQhUVVbmFKNUtZZAAAgc/xeVyog+Sqr6ic9wzqLU6AAnMasitqaaEqdqBtmZnZRAQAAE26BN8t8vmfjTcbwMIXx3ulXoAB8g1nXhjtYCr+0NaneZtnYHwAAkE94nqOQT1pXJgYHPri+8hjrPE6EG9t3WNh3RkUspb8SV7RuNmF/AACA0wUl77GQJA4auXHiWtZZnAwFoI3mVkz/v3FZrUvpBka9AQA4kORxy6U+zyOV9VMWss6SD1AA2iFMYb6kXHgiklTHGKYlfPffAACAbHMLvFXmE5fFDfP+8NawzjpPvkABOAOLrgt3Tsj8K5Gk2g+vDQIAsMFxRCFJ2lwSCAwY/sm4Q6zz5BsUgLMwv2J634RmLIspajfWWQAAiklQ8h4rkzz3jthYvYZ1lnyFApABs8trKxOKNl3W0xLrLAAAhUxyu7RSyVtb2TillnWWfIcCkCHh/mFXSdS9ICLLDximhbHDAAAZ5BI4u9TnW5Uy0oOxzp8ZKAAZNr937fdky14eTSnXWNgfAABwVjjiqNQnbg+UugaO+qj6c9Z5CgkKQJbMueoPN8uq8u9xRbuAdRYAgHwUED2tQcl939hNU15nnaUQoQBk2ezy2vExWfu9aqRF1lkAAPKB1+3SyyTp3yobqx9jnaWQoQDkwHP9w2IkKjwdSWlDDMvE/gAAgNPgec7u4Bff8nitwWPWh+Os8xQ6FIAcmlkx8xJbV1+NykpP7A4AAPgSR1Qqinv8bvftYxqrt7GOUyxQABiY32v6z2Jp/fmEonVinQUAgKWA6I2Uit5ho+snrWCdpdigADA0u7x2fFzWpipG2ss6CwBALp0a0zuuafIw1lmKFQoAY+GKsM9vupZGU/JA08LYYQAobDzHUSggrulEwYFDm6qirPMUM9xwHGJu35rLVNleEVXUnpgvAACFhiOOgpLnYInXc/eo+ur1rPMACoDj1FVMGxKTjYVJXStlnQUAIBN8XncqJIpVYxqqn2adBf4XCoBDzaqorYkm1Yl62nSxzgIAcCZOrfPHm4zhYQpbrPPA16EAONisa8MdLIVfGkmqt5k29gcAQH7gOY5CfmldaUlg0LAPq46wzgOnh5tKHph31dTeskYvRRWlO2F7AAA4WFDyHgt4xbvH1k/8iHUW+HYoAHlkbu8//DquJRektHSQdRYAgK+SPG45JHnHj22YvIB1FmgbFIA8E6YwX1IuPBFN6aP1dBr7AwCAKTcvWCV+8XWM6c0/KAB5anHFEx1jprwyklT74bVBAMg1jjgK+cTNJYHAgOGfjDvEOg+0HwpAnpvTZ2ofRbGXxxWtm40NAgCQA0HJeyzgl345dv2E91lngTOHAlAg5l017b5oSpsr60aAdRYAKExet0sPSb7aqsZJNayzwNlDASgg4f5hV0nUvSAiyw8YpoWxwwCQES6Bs0t9vlUdQ+khQ1eHVdZ5IDNQAArQ033nnBvR4n+MJtV+FvYHAMAZ4oio1CdtLwu4Bg37pHoH6zyQWSgABWxun2k3pRTj+biiXcA6CwDkF7/oaT1H9N0/on7CKtZZIDtQAIrAnN7THo4pWq1iGCLrLADgbKJbMEp83vnjGh4dxzoLZBcKQJF4rn9YjESFp1tT6pC0hf0BAPB1PMfZoYD4gei17hizPhxnnQeyDwWgyNRdXXOxotGySEq+BtsDAIA4olJR3BPifXcO3/LIZ6zjQO6gABSpueUzbkvq2pKEonVinQUA2PB7PdGQX/zt6I2T/sg6C+QeCkCRm11eOz4ma1NVI+1lnQUAcsMtCGaZT8KY3iKHAgAUrgj7/KZraTQlDzQtjB0GKFQ8z1HIL67pRMGBQ5uqoqzzAFv4soe/mdu35jJVtldEFbUn5gsAFA6OOApKnoMhj/SLEQ0T1rHOA86AAgD/oK7PjHujKfXJlKaHWGcBgLPj97pSQVF6uLKhejHrLOAsKADwjWZV1NZEk+oEPW26WWcBgPY5uc7vfTkeMoeGV4fTrPOA86AAwLda0H9BQI5GlkRS8kAL+wMAHI/jiEKStDkUCv6fYR9WHWGdB5wLX+jQJvOumtpb1uilqKJ0x9RhAGcKSt5jpZJ4z6iNEz9gnQWcDwUA2mVO+bRfxVV9gazpJayzAMBJktulhPyeCWPrH61jnQXyBwoAtFuYwnxJufBEVNZG64bpYp0HoFgJPGeH/L5VKSM9OLw1rLPOA/kFBQDO2KLrwp0TKX5lNKXegLHDALnDcURlfmmj4OF//vDGKc2s80B+QgGAszanz9Q+imIvjytaNxsbBACyKiB6Wkt80m/GbJz4BusskN9QACBjZpVPH5pU1HmybgRYZwEoNKJb0Et90vSqhsm/Z50FCgMKAGRUmMJ8SS/3ooisPGCYJsYOA5wlgefsMr/4lhQ6556Rq0cmWeeBwoECAFmx6Lpw54TMvxJJqv1wrDBA+3FEVOqTtpcFXIOGfVK9g3UeKDwoAJBVc/tMuymlGM/HFe0C1lkA8kVA9EZKJM9DYzZVr2SdBQoXCgDkRF35tKoTsjpdNdIi6ywATuVxC0bI550/ruHRcayzQOFDAYCcCfcPu0qi7gXYHwDwdTzHUSggrhG91h1j1ofjrPNAcUABgJyru7rmYkWjZZGUfA22B0BR44hKRXGP5HHdVdkweQvrOFBcUACAmXkVM25JaNqShKKdyzoLQK75va5UQPJVVtVPeoZ1FihOKADA3Ozy2vFxWZuqGGkv6ywA2XZyTK/0bLzJGB6msMU6DxQvFABwhHBF2FdiCosjKW2IYWF/ABQenuco5JPWlYnBgQ+urzzGOg8ACgA4ysyKmZfYuvpqVFF74vwAKAQccRSUPAdLJfHekRsnrmWdB+AUFABwpNkV0wakFP35pKZ3ZJ0F4ExJHrdc6vM8Ulk/ZSHrLAB/DwUAHG1WRW1NNKlO0NOmm3UWgLZyC7xV5hOXxUPm0PDqcJp1HoDTQQEAx1vQf0FAjkaWRFLyQMuy8TMLjsVxRCFJ2lwSCAwY/sm4Q6zzAHwbfJlC3pjda2YvzVSXxRS1O/YHgNMEJe+xMslz74iN1WtYZwFoCxQAyDtzyqf9KqHqC1KaXsI6C4DkdmlBnzR1XEP1dNZZANoDBQDy1qyK2ppoSp2oG6aLdRYoPi6Bs0t9vlUpIz04vDWss84D0F4oAJDXFlc80TFhyktak+ptlo39AZB9HHEU8omb/S7+zlGNU/azzgNwpvCFCQVhYd8ZFbGU/kpc0brZhP0BkB0B0dMalNz3jd005XXWWQDOFgoAFJRZ5dOHphR1bko3gqyzQOHwul16mST9W2Vj9WOsswBkCgoAFJwwhfmSXu5FGDsMZ4vnObuDX3xLCp1zz8jVI5Os8wBkEgoAFKxF14U7J2T+lUhS7YfXBqFdvhzT63e7bx/TWL2NdRyAbEABgII3v2J634RmLIspajfWWcD5AqI3UiJ5HhqzqXol6ywA2YQCAEWjrnxaVURRp8l6WmKdBZzHLfBmmc/37LimycNYZwHIBRQAKCrh/mFXSdS9APsD4BSe4ygUENd0ouDAoU1VUdZ5AHIFBQCK0vzetd+TLXt5NKVcY2F/QFHiiKMSybtH8rjuqmyYvIV1HoBcQwGAojavYsYtSU17Nq5oF7DOArnj87pTIVGsGtNQ/TTrLACsoAAAENHs8trxMVn7vWqkRdZZIHtOrfPHm4zhYQpbrPMAsIQCAPClcEXYV2IKiyMpbYhhYX9AIeE5jkJ+aV2ZGBz44PrKY6zzADgBCgDA35n/4+k/SMaM12KKdgXOD8hvJ9f5PQeCXs89o+qr17POA+AkKAAA32B2xbQBsqI/n9D0jqyzQPtJHrcckrzjxzZMXsA6C4AToQAAfI2fjO4AAAPISURBVIdZFbU10aQ6UU9j7HA+cPOCVeIXX8eYXoBvhwIA0Aazrg13sBR+aSSp3mZi7LAjnRrTWxIIDBj+ybhDrPMAOB2+yADaAWOHnSkoeY8F/NIvx66f8D7rLAD5AgUA4AzMKp8+NKmo82TdCLDOUsy8bpcekny1VY2TalhnAcg3KAAAZ+h/jxWWHzBMC68N5pBL4OxSn29Vx1B6yNDVYZV1HoB8hAIAcJae7jvn3IgW/2M0qfbDscLZxRFRqU/aHih1DRz1UfXnrPMA5DMUAIAMmXPVH25OqcqLCUU7l3WWQhQQPa0dRN/9I+onrGKdBaAQoAAAZNiXxwpPVY20l3WWQiC6BaPE550/ruHRcayzABQSFACALAhXhH1+07U0mpIHmhZeGzwTPM/ZHfziWx6vNXjM+nCcdR6AQoMvJoAsmtu35jJVtldEFbUnjhVuI46oVBT3hHjfncO3PPIZ6zgAhQoFACAH6iqmDYkq+qKUppewzuJkfq8nGpLEh0bXT1rBOgtAoUMBAMiRMIX5knLhiaisjdYNHCv8VRjTC5B7KAAAOba44omOMVNeGUmq/Yp9WYDnOQr5xTWdKDhwaFNVlHUegGKCAgDAyPyK6X0TmrEspqjdWGfJNY44CkqegyGP9IsRDRPWsc4DUIxQAAAYm11eWxmTtRmqkRZZZ8kFn9edKhHFhysbqhezzgJQzHB8KQBjVQ1T5tB5QrBzMPCUi+cLdv3bLQhm56BvqdWZD+HmD8AengAAOEjd1TUXy4r9WlRWehbK7gCe4yjkl9aVlgQGDfuw6gjrPABwEgoAgAPN61MzKC6nn06qegfWWc5GieRtLpXEwSM3TlzLOgsAfB0KAICDzS6f9lhcVicpeXassM/riZd5xQmjGyc9yToLAJweCgCAw4V7hD2lHteiiKL+WjdMN+s830Z0u9RSn/j/qxomT2GdBQC+HQoAQJ4I9wh7St3uOTFVHeq0NwZ8Xk88ILnnxevTj+EgH4D8gAIAkIfm9Zk+Jqnov0so+oU2sdkuyHMcBSXPLr/bM3NMQ/XTTEIAwBlDAQDIY4uvnX55QjYfU4z0bSldD2W7C3DEkd/rOeHzuv5TEn2Thn8y7lB2rwgA2YICAFAgFv3o8SsVtz5S1dM3K5r+fcO0hEx8rugWDK/bvVcUXO+6PNbjozc8ujcTnwsAbKEAABSoeb2nX2GRNcgw6ce2bV6om1Zn07KCactyWbbNm5bN8RxHHEc2z3G2wPO62yUkBI5vdbu4nQK51hJnvVnZMHkL6/8XAMi8/wH9+xOMGJ+gkQAAAABJRU5ErkJggg==;" vertex="1" parent="WIyWlLk6GJQsqaUBKTNV-1">
          <mxGeometry x="790" y="70" width="22" height="22" as="geometry" />
        </mxCell>
        <mxCell id="Jy49ukYBbKdyJr5gnZlG-12" value="" style="shape=image;verticalLabelPosition=bottom;labelBackgroundColor=default;verticalAlign=top;aspect=fixed;imageAspect=0;image=data:image/png,iVBORw0KGgoAAAANSUhEUgAAAgAAAAIACAYAAAD0eNT6AAAABHNCSVQICAgIfAhkiAAAAAlwSFlzAAAOxAAADsQBlSsOGwAAABl0RVh0U29mdHdhcmUAd3d3Lmlua3NjYXBlLm9yZ5vuPBoAACAASURBVHic7N15lF3XXSf6395nn/EOVaVZpZKlkmzLkuIhiZ0BaBJnAB5Z/fKatboZksX8gIb1Xj+aIRDHYgoJpLvTBAIE6EAYEoaG10BIHmSGDHYSO3Y8SLKm0lSlqlKN995z75nP+0OykW1Jdavu2Wefc+73sxb/EHufX0oVne/Z+7f3JgIAAAAAAACA6mOqCwBQyfX9/yNJku9mxBqqawGQJYwS2w3DnarryFMYBKLd8ZvX/v80wVuOxd8yuWPHl1XVVSQIADCU2r5/KInjz0Zxsk11LQB5WOkFFMSJ6jJyE/sBnbs496L/v6ELumVi+wcP7Nr2wwrKKhSuugCAvPV6vT1xFD+Glz8Mk6alE8cnHwVhRFPnL/3QsfOz/6S6FtUQAGDoRCn7uzhJDNV1AOSJM0YNc3h+7dOb/GdxnNDZi7PfcvTszKO5FVRACAAwVNI0dcIkvkt1HQAqmIKTJTTVZRRCkqR0dnr+ZU+duXhSdS2qIADAUHF9/xvTNMVEKAythiVIG4q1gJvNAVz9J9KUzs1cvvWJ0xdmciiocBAAYKhwxjaprgFAJUaMRkwdHeDXuHBpYefjp84vq64jbwgAAABDRmicHEOoLkOq9Qac6dnF0cdPnmtLKaagEAAAAIZQzRBkaHgFXGt6bqn+tWemvDRNq52OrhqK/5IAAPBiDUunJdfvY7W8hDb4X+rS5RUzSc66U2k6MsmYl21RxYL4BwAwpDTGqG7iO/CF5hZXjIWjZ9oXW63NqmuRCQEAAGCI2bogvYJLASkbrM1xfrklLp6fn59ZWrolo5IKp3p/6gAAsC5NUyca8IVZRYsrbX724sLZ8+dnX6K6FhkQAAAAhpzGGdX0ah0QlFWcWW657MLy6hOnZ2buzWjIwkAAAAAAcnRBYigOCFq/lXaXTc+1vnp6eu4NqmvJEgIAAAAQY1d2BcD1td0eXZhd/OSZ+cX/oLqWrCAAAAAAERHpnJNdsaWALLk9n86dn/3LU5cWvk91LVlAAAAAgOfUTZ04lgJuqOsFdO7i3IdOXJj+GdW1DAoBAAAAnsOIqFGFswEkZhjPD+j8peX3nJxZeLe8p8iHAAAAAM9jahqZAq+Hm/GDkM5euPRzJy7Mvk91LRuFP2EAAHiRhqETK/GdgSyH842DMKKz0/P/9zPnL/2x/KdlDwEAAABehHNGjoGGwLWEUUxT0/Pf+8y5mX9QXct6IQAAAMB11XSNtJI2BOZ5wVEcJzQ1fflNx89d+lSOjx0YAgAAAFwfY1QzKtAQmIM4SWjq4tzrj52b+YrqWvqFAAAAADdkCY10rZyzAHlL0pSmLs7f9/TZmWOqa+kHAgAAANxUwyjfCYGq7jZK05TOXpy746kzFy+oqaB/CAAAAHBTQuNk4YTAdTk3c3niqTPTl1TXcTMIAAAAsKa6Lkq9LVCFczPzOx4/ea6tuo4bQQAAAIA1YVvgxkzPLdUfP3G+kCEAAQAAAPpSrm2Bxalzen6x/ujxs95Umlqqa7kWAgAAAPSHMarp2Ba4EbMLy+blo2faS0tLI6preRYCAAAA9M3SNRKlmQUolsvLLXFydnlxptXaoroWIgQAAABYp1oJtwUWxcJSSzt/bn7uxNzcPtW1IAAAAMC6mIKT0PD62KjF1TZfmFs9deLi/D0q68CfIAAArFsNOwIGstxy2fzi8temZmdfqaoGBAAAAFg3U9NI53iFDGK13WUXLi0/PDWz+K0qno8/PQAA2JCaiR0Bg2q7Hp2bmfvH09Oz3533sxEAAABgQwyNk45egIG5nk/nLi1+5NSF+f8rz+fiTw4AADasXtgdAeXaqtjzAjo3e/k3j0/Pvy2vZyIAAADAhukaIwOzAJnw/IAuTs//2onpuffk8Tz8qQEAwEDqBnoBsuIHIZ29MPczz0zP/w/Zz0IAAACAgQiNkymwLTArYRTT2fOzP3TiwuyfyXwOAgAAAAzM1gsWAMrVAvAiURzTmYtzbzl+/tL/J+sZCAAAADAwQ+M4FyBjcZzQ1MW5bzs6dekhGePjTwsAADLhFKgXoOQTAM9JkpTOzcy96tj5S1/NemwEAAAAyIQpOGmsGK/elFLVJWQmSVOaujB379GzM89kOS4CAAAAZMbBHQFSpGlKUxfnbn9y6uLFrMZEAAAAgMxYQiNekFmAKjo/fXnXE6cuzGUxFgIAAABkhjFGTtF2BFTMhdmFbY+fPNcedBwEAAAAyJSlC/VNeBWfhZieW6o/+sxUL03TDXdeIgAAAECmOCOy0Qsg3ezlFeuxE2c7U2lqbeTfRwAAAIDMOULtLEC1v///1aXLK+blY2faU8vLo+v9dxEAAAAgc5wzHA+ck8tLLTE/vbh4/rw7vp5/b1hCEgyhk4uLTXel9z1Jknx7EIZ3hkG4jTi3Dk2OI/gC5CBMElruBkqenYYRTZ2/pOTZqmwebSSbtjZuu3379jP9/PPFObYJYABPnp/5ljhIvjsIovv8KNgTBJFz8vgFnqbPPwzEMg1FFQIMH51zEhqnKE5UlzIUFlfaPEmSU2cuzN2zb/f2J9b65xEAoFQePXnxVVqafk+cxq/xgvAWPwgbnh9o589nsi0WADJmC05tFQFgSOe3l1sui+Lk66en5964f9f2T93sn0UAgEI6eWnxUNf1fjSIg1eHYbTP88IRPwjF7Nxl1aUBwDpYQiM3iCjJ+WRexoZ3pa/t9ujiXPrJsxcuvWnv7p0fv9E/hwAASi10u7viMLk/TtN/kyTpXVGSToZJsqnVcfXZWbzsAcqOsSvNgL0wzvfBfEinAK7qdD06O7/8seMX5t56x+7tH77eP4MAALmYn0/ridV9PaXpa6IkeVmcJPujON16ebVrqq4NAORydJF/AGCMbMuknufn+9wCcXs+zcwu/tmZS/Nj+3Zue/8L/3MEAMjUVJpa9U7nlXFCb4jS9OVJkh4Io2TXYrxokqu6OgBQQeOMdI1TmHMvwGijNtQBgIio5/t05uL8b528ON+4bWLbu6/9zxAAYMPmXfelcZy+MU3SV0VJcncUJzv8uSXHS6tzDScAZMPRBa3G+W4JtOs2EVYSyfdDOjcz/64T03Njt+/a/rPP/v8RAGBNsyu9ScaS/y1OkzdESXpHlMS7wihpLrZ6qksDgJIwBCfOGCV5fiBwTls3NenyUiu/ZxaUH4R07sL8z5y4eLlx+8TW/0iEAADXeO5Fn8SvjlO6M06S3UGcjC733OFtpwWATDAisvUrOwLy1BhtUrcXkNvzcn1uEQVRRFMXLv3YM+dnxw7csuO7EACG0I0675d7rq66NgCoLkto1A0iynWRkDHavnMLzc8uUKeLEBDFMZ2dnv/Ok9PzLgJAhaHzHgCKROOMDE0jP85/R8C2nVtp1O3S3MIKhVHOzy+YKI5p9vLyDyAAVAA67wGgLCxdQQC4yqg5tNtxKA4C6vU8arW75AWhklpUa7s9hgBQMui8B4AyMzVGnFHuJwM+hxFppkF106D6aJNYSkRJQmmSUMqIkiG6twABoKBu0HnfWGz1hvt4KwAoN8bIFIJ6Yb7NgDeSMiLSOJHGiRGRNkRvxSH6r1pM6LwHgGFjCa0wAWCYIQDkbLbd3pbE9IEgjr85iJIxvOgBYNjoGiONM4qVrQMAEQJAruZX3W9f7QV/G8UxttsBwFB79pZAUAdfnzmZbbe3rfp4+QMAEF3ZDQBqIQDkJI7S/4GXPwDAFRpjZGh4BamEn35Ogjj5JtU1AAAUiSnwClIJP/2cJEliq64BAKBILF0QMexsVgUBICca513VNQAAFAkjIktDAFAFASAnGucXVdcAAFA0aAZUBwEgJxpnT6muAQCgaAx+5QQ+yB8CQE40xr+ougYAgMJhDM2AiuCnnhOhs4+qrgEAoIhMgTPpVEAAyMlmx7kgND7cl1ADAFyHoTFiWAjIHQJAjnSNL6uuAQCgaBhjZAgEgLwhAORI4/ys6hoAAIrIFNgNkDcEgBxpjH9ddQ0AAEVkCg2HAuUMASBHGqN/UV0DAEARMSIyOV5JecJPO0cxSz6uugYAgKLCdsB84aedo/Fmc0FoWqi6DgCAIjKEhlWAHCEA5EznfFF1DQAARcQZkY4rgnODn3TOhMZOq64BAKCoTASA3OAnnTONs8dU1wAAUFSGhu2AeUEAyBnn2udU1wAAUFQaZyQ4GgHygACQs9S1/xG/2gAAN2bgUKBcIADkbMcO5uqa5quuAwCgqNAHkA/8lBUQGptXXQMAQFEJjeNqoBwgACigce2k6hoAAIqKEZYB8oAAoIDG2COqawAAKDJDwxyAbAgACnCiT6uuAQCgyExsB5QOAUCBbSO1zzGcdwkAcEMc2wGlQwBQgDEWGBrvqq4DAKDIMAsgFwKAIkLjs6prAAAoMh23A0qFn64inLNnVNcAAFBkOrYDSoUAoIjG2JdV1wAAUGSMcDeATAgAinCmfUJ1DQAARadjO6A0CACKbGvYX+aMparrAAAoMgPHAkuDn6wijLFE13hHdR0AAEUmNE7YDSiHUF3AMNM5n/YpvkN1HVA+M/OLdGFunlbaLgVBqLocAKlSIkqLNF/KiAxdUL1Wo61bNtOm0RHVFW0IAoBCnPNjRIQAAH1zex49/OQxWmlh8ghApSiKqNvzaH5hkUaaDbrj1v1kGLrqstYFSwAKcU6Pq64ByqPldukzX3kML3+AgllttenxJ4+S75frpnfMAOTsySfnts+4l9630m6/6R//5eH6q+59qeqSoATiOKaHHn+agjBSXQoAXIcfBnT0xCm65yWHqCxHvSMA5ODLx45tXlnpvm+l033zl08/Vk+uWczyfJ8s01RYHZTBqYuXqNPzVJcBADfRcbs0v7BI27duUV1KXxAAJDl58mRzZjX49aX26nc+deL8WJwk1/3n2q0OWVsRAODmzk7j5GiAMpidv4wAMIyOHz/emOvE71lqr37nPx89M5bc4KV/rU6nS1u3bs6hOigrPwip0+2pLgMA+tDuuJQmKbES7F1EABjQZ6emrHi+/astt/N9X3zm3OYbfenfiNvDX+xwcz0/UF0CAPQpTVMK4pBMbqguZU0IABvw8ZMnTWOp966W2/7eqSdPbonieMNj9Xys68LN6QJnoQOUieDl2GCHANCnRx55RG8nxpFl1/3hS8emdsQDvPSvhUNcYC22YZCmaZTV7xwAyKPrgjStHK/WclSpSJqmfGp6/i1PnDrza1+fWRqX8RdwkibU9XrkWHbmY0M1cI3TtrFRurSwqLoUAFjDprEx1SX0DQHgOk6eu/TvXc//qc89evTlXS8Qq52u1K+vVstFAICbumPfBAIAQMExxmhi53bVZfQNAeCq41PTb+56wU+uut1vOHFh9nnnOQohyA/lNWJ1Oi7RtnJsGwE1NjWbdOst43Tq/IzqUgDgBm6ZGCfHLs/H3FAHgONnpv/3rh/855bbe/Xp6fkbtmzqQu6PqYstXtCHO2/bR2EY07lLc6pLAYAXmNi5g27ZNa66jHUZugBwZnrujZ2u/59bbu81p2fm+4pquuSGDi8o1/nRoAZnjO49fDtt2zxGR0+fwxZSgAJwbJsmb9lNm8bKdyPgUASAY2env8H3w59ud73XH5uaaa733xea3BuegiCkJE2Jl+T8aFDrlh1b6ZYdW2l5tU3LnQ55fkhJvL7zJwDKKklT6kVqd8RonJFhGFSv1ahec5TWMojKBoATU7Ov7Abe29pd7/VnLs6v+6V/Lc6Z1G1YKaXUdXtUr5f3FwnyNzbSoLGRhuoyAHJ3ueNRuvY/BmuoVAB48syFu6IgeqDT87/t5PSlgV76L6RL3ofd6nQQAAAA+qBrnALMeg2s9AHgyRNnDwZJ8na353/7hZmFTbJS4ZVlAHk7AVy3K21sAIAq0TkCQBZKGQCOTV3aG4bBz3c8/80XLq9sT1P5k0HSdwKgoQsAoC9CY0Q4RHVgpQkAxy5e3Bx79P90er3vPzszN5Hk8NK/lpAcADwfOwEAAPqha+U4a7/oCh0ATp9eGuml3Z92Pe97zl1YnIzjRFmbvOytgEEUURonxPCLDQBwU5wx4oxR3h+CVVO4ADAzM+O4If9Pq677Q6fmL+6L4rgQe+MYYyQ0jQa5+e+m0pRarksjTXR1AwCsRWiMgggBYBCFCACfTVOx/czMj3Q9/0eevrB4ZxBGhfwM1jVdXgAgonYbAQAAoB864xQQGgEHoTQAPHv+/sojT3/jlB8WIozcjBBC5kYAcnEkMABAXzQ0Ag4s95fukyfOvTGI4p9d7fa++Wbn7xeR7D6AroetgAAA/RC8kBPFpZJLAHji5NlXB2H6jla3+9rz80ulPe1G9lZAz5c4vQAAUCEaZ0SMEaERcMOkvdGOTV3a6/n+kXav9+YLc8ubZD0nT5ompP7CRVFEYRyTrmlSxgcAqApGRIIzimIEgI3KNAA8ce7cWOLT29ye95apmbmJPA7oyRNjdGUnQBRJe4bbcWl0JNNTjAEAKkkwRvL+Nq6+gQPAI488ousjW3+i54c/PjOzcqvKvfp50IWQGgBarQ4CAABAH3SNk6f4ZsAy23AAeOLkuX/vB9Hbljrdl4ZzS0PTjaFzQTJ79d0eGgEBAPqh8Up/b0q3rgBw7Mz0v+35wU+tdLrfcGFuSZdVVJEJXW4jYM/zpI4PAFAV2AkwmDXfZsfPz9zr9YK3t7ve68/MzA/93LSuyc09no+NrQAA/eDsyixAnFSr3ywv1w0Az9621+p633H6/NyWvIsqMsE5MWKUkpxfuDiOKAhDMvShnGABAFgXwTjFhD6AjXguADz99NNGYjbe1e56bz07M7cdlyzcAGMkhEah5EbALZvHpI0PAFAVgjPy8f7fEEFEdPzsxfvnFtsf6ywv2qoLKgNd6FIDQKfbRQAAAOgDjgTeOHFqenr3+ZnlT/RKcBZ/Ucg+Eth1cScAAEA/NIZGwI3iq6v+R/DyXx8h+UjgnocAAADQD2wF3Di+2u29QnURZSP7ToAgxHwWAEA/OLvyf7B+3PPDUt3IVwQa14hJnHaK45h8DxcDAQD0A8sAG8N1oSWqiygj2bMAq+2O1PEBAKoCywAbw5uOfVF1EWUkuxGw47pSxwcAqApNQwDYCO44xodVF1FGsmcAurgTAACgLwJLABvCN9vinbousAywTvJ3AvhSxwcAqAosAWwMHx8f747WnWOqCykb+TsB0AQIANAPjSEAbAQnIqpZ5vtVF1I2nHHSJN5ElSQpdXs4DwAAYC2MYSfARnAiosP7Jz7gWAY2n6+TEHIv7Gm1sBMAAKAfmqa6gvJ5LjI1687DKgspI13I/Y1ru2gEBADoB5YB1u+5AFC39V9SWUgZyd4K2OtiCQAAoB8IAOv3XAA4sGfi0w3HwubzdRCa3CUAL8BOAACAfsjsyaqq5/3EmnX7n1QVUkaytwIGYUhJmkp9BgBAFeAsoPV7XgCwdeMBhmmUvnHGpKbONE3JRR8AAMCacBbA+j3v7XVgcvz4SN25rKqYMtIl7wRot7EqAwCwFsYY4QN2fV70+dpwrL9SUUhZyT4QqI07AQAA+oJJgPV50dvLrIlfFBr/8ShO8KPsg/wjgT2p40P5xUlMcYJeEYAkiSmK5Z9szyQfBJeXF729DoyPL3z5qVNnFlba+1UUVDa65J0Avo+dAPB8cZLQ2Zk5mp67TMutdi5/4QHA8wlNo3qjRts2b6ZtWzaXcvnhup+vddv64MJK+115F1NGQvLxU2EUUpIkxCuQNmFwK60OPfzEMXIxMwSgVBTHtLLSopWVFl28NEuHbr+VbMtSXda6XPetMr9v138xdRHnXUwZMcakhoA0JWp30AcARIurLfrco0/g5Q9QMN1ujx578ljp7m+5bgC4n7FotOE8nncxZSX7QCDsBIAwiunhJ45RHCOXAxRRHEd09JlTpTq75YbzyrZpvzfPQsrMkHwnQAdHAg+9k+cukufjimiAIut5Hs3Ozasuo283DACH949/pGaZmGvsg/ydADgMaNidv1Sev1QAhtn8wqLqEvp2086ykYb9+bwKKTPZ1wL7+PIbap4fYN0foCQ6bpfStBw7c24aAExDP1K+jQ35E1wQSdwCEkYRhVj7HVpegAAIUBZpmlIQRqrL6MtNA8ChyYmHG3VnJa9iyoox+VcDt1toBBxWuuQeEwDIluzt4VlZc3N5s2Z9NI9Cyk72H3jHbUsdH4rLNk0SGs6BACgDUzdIq0oAqDnigSoceSib7BkA18VOgGHFOacdWzarLgMA+rB586jqEvq25pv91l27LozUnek8iikzocsNAF00gQ21OyZ3l/KoUYBhwjmjifGdqsvoW1+f9jXb+jPZhZSd7DsBAjSCDbWReo0O7rtFdRkAcBP79u4h0zBUl9G3vgKANmK+0xCiPMcbKSA4J0byvtCiOKYgDKWND8V3cPIWOrB3t+oyAOAFGGO0b89u2rltq+pS1qWvAHB427bOSMM+JruYUmOMdMkHArVaHanjQ/G95Na99M0vv4s2jzRUlwIw9BhjNDrSpLsPH6RdO3eoLmfd+n5jObb9O7Tcfr/MYspOCEFBJO8rvd1xacvmMWnjQzlsHRuh1953D/U8n1Y6HRwRDHCNNCXqBHL34TMi0nWD6jWHDEPu8q9MfQeAw5Pjvzu/uPwbPT+U+5lbYrJnAMp20xTIZVsm2ZapugyAwrnc8Qhr1mvre38fYywZrTtflllM2cm+FdDDTgAAgDVhx0x/1rXB37L1d8kqpAp0yYc/+NgJAACwJo0jAPRjXQHg0N7dH284Fq6muwFN04hLPDQpThLyPYQAAICbweu/P+t+WzVqzidlFFIVQvKJgCtt7AQAALgZrAD0Z90BoG4Zb8f6yo3JPxIYAQAA4GY45gD6su4AcNuenUdHavaCjGKqQPpOgC52AgAA3AxDD0BfNrRgXa/bf511IVUhJAeAnu9LHR8AoOzw+u/PhgJAjYxf0DSObZbXIXsGIAjRBAgAcDMcy9R92VAAuPXWHfNjdedsxrVUAmdc6k6AJEmph2UAAIAbwuu/Pxt+U9Vs8w+zLKRKDOwEAABQhsn7BquUDf+YmN9+j2HoSZbFVIXsPoCOi6MYAABuhG/81TZUNvxTOnz4cDBad76eZTFVIfssgB7uBAAAuCG0APRnoJhUs4z/nlUhVaIL2XcCYCcAAMCN4Pu/PwP9nA7tm/hTxzbxNnoBXci9EyCIQkoSrL4AAFwPzgHoz8BBaaTmfCGLQqqEMU6axJ0AaZriQCAAgBtghJ0A/Rj4LWVb+pEsCqka2csALewEAAC4IfQBrG3gAHBw764vNWt2K4tiqkT2gUBt7AQAALgJJIC1ZDJP3axZH8tinCqRfiSw50kdHwCgzPD6X1smAcA0rAc4mi6eR/atgD7uBAAAuCEsAawtkwBwx94dUyMN51IWY1WF0OT2AIRRSEkaS30GAEBpIQGsKbNW9YZtfSSrsaqAMbkHAqUpUbuNPgAAgOthhPvq1pJZAKhr8Tt1oeEnfg3ZfQBt7AQAALguhi6ANWUWACYnJ1dGG7UTWY1XBbJ3ArguzgIAALgeBIC1ZXpaTc00fifL8cpOdiNgFzsBAACuj2FCei2ZBoBD+yfebxl6lOWYZSZ7CcAPsBMAAOB6GJoA15RpAGCMJaON2lezHLPMhCakTkOFcUxxhJ0AAAAvhCWAtWV+YL1t67+a9ZhlxUjyLECa0ioaAQEArgNLAGvJPAAc2jvxsbptoTvtKqHJvRmw4yIAAAC8EMcMwJqkXFk3UrM+JWPcMpLdCIidAAAA14H3/5qkBADH1I+gAeMK2bcCdj00AgIAwPpJCQC3T048PlK3F2WMXTaydwIE2AkAAPAi+ARdm5QAQERUd6z/JWvsMhGcS+1GjeKYwjCQNj4AQCkhAaxJWgCoMfMBTZM2fHkwRroudxZgteVKHR8AAKpH2hv61lt3zI82audkjV8mMi8FIiLqdBAAAACuhU2Aa5P6iV6zzQ/JHL8shOxGwB52AgAAwPpIDQB1Hv2aoYtE5jPKwJB8FgDuBAAAeD5cBbA2qQFgcnLSG6vXnpT5jDKQvQQQBGgCBACA9ZH7ZiIi2zHfR8v0h7KfU2SaphHnnJJEzmRInCTkewGZliFlfCiuOI7JC0OiFJ87ANfygoS8UM7ddIwRCV0njZe70V16ADg8ueuPPvPI0x/oecFQv510TZCfyPtSX2l3aLu1Sdr4UBxBFNGp8zN0YXaeOl30fwCoUnMc2rp5E+3auZ14CcOA9ABARDRSd77Y84L783hWUQmhkR/KG991O0RbEQCqbm5xmb761HHyJX3ZAED/3G6X3G6XLs3O08Hb91OjUVdd0rrkEllqlv4reTynyIQmeScAvgQrb3Zhmb70+NN4+QMUjB8G9MSx49Qu2e2suQSAO/ZOfLZZs9t5PKuoDMlHAvd8NAJWmR+E9JWnjlOCtX6AQkqSlI6dOC2t10uG3BYtGo798byeVUTS7wQIcSdAlT1z7gKFEb78AYrMDwOavjSnuoy+5RYAarb1AB/iGwI541I7RpMkxTJAhV2cW1BdAgD04fLikuoS+pZbALjtlu2nRxu12byeV0SyzwNYbQ/1Kktl9Tyferj2GaAU3G6X4pIsA+S6b6Fmm3+R5/OKRpe8DOB2MANQRX4ocfsIAGQuLslyXa4BoCHiX9KFNrRdTLJnALoeAkAVyb5NEgCypUn+uz4ruQaAycnJlZGGczLPZxaJLvlSIM/HNHEV2aYpfRcJAGTDskzStHIcCpR7lXXb+v28n1kUupB7KVAQhqXaggL94YzRzq2bVZcBAH3YsmlMdQl9yz0AzE/uep9piDjv5xYBY5w0iTcDpmlKrotlgCo6uO+WUh41CjBMNE2jXTt3qi6jb7n/jXI/Y9FovfZI3s8tCtmNgK1OuU6igv7UbIteesd+1WUAwE3cvm8PGSXq2VHySVG3Wg/13gAAIABJREFUzXereG4RCC63D8B1u1LHB3X2ju+gew7sp2E+TwOgiDhndODWfbRlc7mW6pQEgDsmd/1dzbY8Fc9WTXZHd9cbyh/r0Ni/e5xe/8qX0fjWLcRL0mgEUFWcc9q2ZTO97K47aduWcr38iXK6DfB6Rur2p92e9yZVz1dFl9gDQISdAMOgWXfo1XcfpChOqOV2yPdDipOh3V0LcF3dMKIwltMUzTknw9DJsW2pJ7zKpiwAGKb+IGPsTemQXW4i+1bAKAopSWPiTG7QAPWExmlTs6m6DIBCWumFFMRD2W/eN2XR5fDeXY81a3Z5Dk3OCGNyDwRKU6J2C30AADDk2HB9XG6E0rmLZs3+W5XPV0X2zYCtkt1JDQCQtRRHoqxJaQAwLXakzOsnGyX9ToAeZgAAYLilhBmAtSh9+x7YvXt6pOGcV1mDCrrkc6J7PTQCAsBwG7L2sg1R/vndsO0/UV1D3mQvAfgBAgAADDfMAKxNeQCoaeGv6roYqtUaoQliJO8wlzCOKY7Q/QoAwwuv/7UpDwCTk5PeWMN5WnUdeWJEJGSeB5CmtIpGQAAYUmmKJYB+KA8ARES2ZfyW6hryJrsRsI07AQBgSOHd359CBICX7Nv9B7ZlBKrryJMQku8E6OJWQAAYTsN2wNxGFSIAEBGN1pyHVNeQJ9kzAJ6HRkAAGE54/fenMAGg5ui/orqGPEm/EwA7AQBgSGEHQH8KEwAO7Jn4dKNmDc3CtcY1qTsB4jimMByqVRUAACLCKYD9KkwAICJq1Ox/VF1DbhiTfjXw6urQ5CkAgOfg+78/hQoAjm48yJi8r+KikXkpEBFRx8WRwAAwfNAE2J9CBYADk+PHR+vOvOo68iJ7J0C3h50AADB8EgSAvhQqABAR1WvmX6quIS+G5EbArudJHR8AoIgSvP/7UrgA0NCSI0LThuKPT/6dAGgCBIDhMxQvkAwULgBMTk6ujDac06rryIPGNeISr0NOkoQ8DyEAAIYLlgD6U7gAQERUs8w/UF1DXmQ3ArZaLanjAwAUDZoA+1PIAHB5/8R7TV0MxXV2hvQ7AbATAACGS4wA0JdCBoD7GYvGmrWvqa4jD7JnALoedgIAwHDBDEB/ChkAiIhsy/xvqmvIg+xGQNwJAADDBrsA+lPYAHBoctdf1iyz8vvYdMkzAAGOAwaAIYKXf/8KGwCIiJp1+59V1yAb55w0mTsB0pS6uBoYAIYEpv/7V+gAYNvmA8NwMLD0nQBt3AkAAMMBMwD9K3QAOLhn/NFm3VlRXYdsso8E7mAnAAAMiQRXAfat0AGAiKhRs/5edQ2y6ZIbAbETAACGBV7//St8ALAs/naZa+RFILsR0PMr30sJAEBERCnWAPpW+Dfrgd27p0fqzkXVdcgkeytgEEaUJMjFAFB9Md7/fSt8ACAiqtfMP1Vdg0ycMRISbwZM05RcF8sAAFB9CWYA+laKALDZFu/UdVHpT1jpOwE62AkAANWX4C7AvpUiAIyPj3dH684x1XXIJLsRsONiJwAAVF+EGYC+lSIAEBHVLPP9qmuQSXYjYK+HRkAAqLY0xUFA61GaAHBo367ft009VF2HLNLvBPBxJwAAVBum/9enNAGAMZaMNGoPq65DFiEEyTz1MIpD7AQAgErDX3HrU5oAQERkG8avqK5BFkaMNInLAGlK1G670sYHAFAtxvT/upQqABzat+uTdceq7FtMF/K2AhLhTgAAqDZsAVwfuQvPEozU7E90ut6/U12HDELoRBLX6t0udgJUSZKm1PV88vwAyzsARNSLIvJD+f9b4JyTYehkGgYxVt4r60oXAGqW+Q7G2L+rYqen9J0AHhoBq6Dr+XR86gLNzF8mP4xUlwMwtHRd0LYtm2n3+Djpeulep+VaAiAium3PzqMjdeey6jpk0DW5twL6AQJA2Z2fvUyfeOhRmpq+hJc/gGJhGNH0pTl65OtP0PLKqupy1q10AYCIqOlYf626Bhk0oRGTuBcgjGOKo1ja+CDXxbkF+upTxymO8WcIUCRRFNPTz5ykpeVyhYBSBgCjJo5oGq/cGgAjIiGzETBNabXdljc+SNPzfHrk6AnVZQDADaRpSidOn6EoLs/MXCkDwIHx8YWxRm1KdR0y6ELuMkC7U9lNFJV2/OwFfPkDFFwYRTQ9M6e6jL6VMgAQETmO9UHVNcgg+1Ig3ApYPmma0vT8guoyAKAPlxeXVJfQt9IGgIXJXe8xdVG5TyLZlwLhSODy6Xk++UFlT8EGqJSe55VmW25pA8D9jEWjDefrquvImq7JPQzIw06A0gmi8qwpAgBRVJL/zZY2ABAR2ab931TXkDVNE8SYvD+WOI4pDANp40P2TF1uXwgAZEuTPJOblVIHgMP7xz9Ss8zK3XMrdScAEa2u4kjgMrFMg0wDIQCgDBzbJo2X49VajipvYqRhf151DVkzJB8I1HZxJHCZMMZoYtsW1WUAQB+2bN6kuoS+lT4AmIZ+pLwnMV+fkNwH4HaxE6BsDkzuJo3L/b0AgMHouqBdO7arLqNvpQ8AhyYnHm7WnHIdv7QGIXsngFe5VZPKs02T7j18u+oyAOAGGGN0x637pS/hZqn0AYCIqO5YH1VdQ5YMyYcB+WgCLKWJ7VvolXcexEwAQMEITdDhO26j0ZGm6lLWpRytimuwTPMI5+ytVbkLmnNOnDNpd1snSUKeF5BlGVLGB3kmtm+hzSMNeubsBbo4v4DzAQAUMnWDtm4Zo4ldO6Wf4ipDZZbPH3rixPRSyx1XXUdWLq8sUSDxS/3AvknaVuDGsm7Po9mZ7C99tEyD7rljT+bjqpCmKXl+gBAAQ68ThBTE+X4A6oYgUy/3R1QlZgCIiOqO/eGllvszquvIiiGE1ADQ7nRp2zZpw0MOGGNkWybZlqm6FAClkq5PRkVmgPNUiR4AIiLeNH/ZEKIyvwGy7wToetgJAADllxJRnFbmr/5cVSYAHN62rTPasI+rriMr8ncC4EhgACi/OEkJ7/+NqUwAICJybPN3VdeQFV3yDIDM5QUAgLzEmPrfsEoFgEOTE79tm3o5bmFYA+dc6nGSSZpSFwcCAUDJRSW5ea+IKhUAGGPJSL32FdV1ZEX2MkCrjTsBAKDcEAA2rlIBgIjItvV3qa4hK7rkOwE6HdwJAADlhiWAjatcADi0d+JjDcesxJtNlzwDgJ0AAFBmV3YAqK6ivCoXAIiIGrXaJ1XXkAXZZ0p7Pu4EAIDySpKUUmwB2LBKBoC6ZbydsfIfcigkLwEEYUQJ1s8AoKQiTP8PpJIB4LY9O4+O1OwF1XUMijMm9WrgNE3J7WAZAADKCQ2Ag6lkACAiajjW36iuIQuyTwRsudgJAADlhAbAwVQ2ADjcPKJpvPS/HbIbAV23Ev2SADCEMAMwmMoGgFtv3TE/2qidU13HoKTfCdBDIyAAlE+apugBGFBlAwARUd0y/lB1DYOSPQPgBbgTAADKJ8LH/8AqHQBqWvxfDEMv9a+JEIJk7meIopCSNJb4BACA7GH6f3CVDgCTk5PeaN15QnUdg2DESJN4HkCaErVb6AMAgHIJYwSAQVU6ABAR1W3jN1TXMCjZRwLjTgAAKBvMAAyu8gHg4OTEH9css9R338q+FMjtYQYAAEokTbEFMAOVDwBERM26/QXVNQxCl7wToNdDIyAAlEeYpoTX/+CGIgDYlvGg6hoGIXsJwMdOAAAokRA3AGViKALAwb27vtSs2S3VdWyUJjRiEvcChHFMcYSdAABQDjEaADMxFAGAiKhZsz6muoaNYiT5ZsA0pVU0AgJASUS4ATATQxMATMN6gPPy3hCoC7nLAO0OAgAAFF+aphRhBiATQxMA7ti7Y2qk4VxSXcdGyT4S2O3iVkAAKL44QQNgVoYmABARNWzrI6pr2CipSwBE5HloBASA4gux/S8zQxUA6lr8Tl1opfztMSQvAeBOAAAoA5wAmJ2hCgCTk5Mro43aCdV1bITGNWJM3h9XHMcUhqU+LwkAhkCIEwAzM1QBgIjIscwPqK5ho2QfCLTacqWODwAwiCTBCYBZGroAcHjfrt+0DD1SXcdGyO4D6HQQAACguAK8/DM1dAGAMZaMNmqPqK5jI3TJdwJ0e9gJAADFFcY4sCxLQxcAiIgc03iX6ho2QvaRwF3Pkzo+AMAgsAMgW0MZAA7u2/XRum2V7nNX9gyAH6AJEACKKaUURwBnbCgDABFRs25/WnUN68U5J5mnGSZJQr6HEAAAxRPFOAAoa0MbAAxTP8JY+Y4Glr0MsII7AQCggLD/P3tDGwAO79312EjdXlJdx3pJPxLYRQAAgOIJsP8/c0MbAIiI6o79v1TXsF66LnknAO4EAIACwgVA2RvqANDQzAc0rVw/AtkzAD0fPQAAUCxRkhI2AGRP7tuk4Pbt2z735SdPnV9Ybd+iupZ+yd4JEIS4E6AswiimVsclPwwIs6NQZUGcUC8szvltnDPShU71mkOcl+sj8lpDHQCIiBzH/CNabf+C6jr6xRknzjklkv7GT5KUet0e2Y4tZXwY3Eq7Q0dPn6e5pWVpvwcAsDaNcxobG6O9u8fJtizV5axbeaNLRuo8+jVDF6X6W1T2zYDYCVBcJ89P02e+8jhdWljEyx9AsThJaGFxkb729ado7vKC6nLWbegDwOTkpDdWrz2puo71kN0H0HG7UseHjTl1foaeOHGG0hSLoQBFkqQpnTg9RfML5dpYNvQBgIjItszfVF3DesjuA+jhToDC6XR79OSpM6rLAICbODU1RUEQqi6jbwgARHR4/64/tC2jNO3vsm8F9Dw0AhbNsakLlKANGqDQ4jih6UuXVJfRNwSAq0brzpdU19AvIfk0wCAKsb5cIEmS0qXLi6rLAIA+LCytqC6hbwgAVzmW/suqa+gXZ4w0Lm8WIE1Tcl0sAxRFL/ApjIqzBQoAbszzfYpLcm0xAsBVd+yd+GyzZrdV19EvXfJOgHYHOwGKIizQ/mcAWBsCQAk1HPvjqmvoly65DwA7AYrDNOSGPQDIlpD8gZYVBIBr1GzrAV6SGwKlHwnseVLHh/7Zpkm2ZaouAwD6UHMcqde2ZwkB4Bq33bL99EjDmVNdRz9kLwF4PnYCFMnu7VtVlwAAfdi2ZbPqEvqGAPACDcf+C9U19EMIjWRmzDAKKUnLsY41DG7fO0GG5JsgAWAwpmHQ+I5tqsvoGwLAC9S16BeFphV+wzUjRprEA4HSlKjdRh9AUZi6Tq98ycHSTC0CDBvOOR28/dZSXQ5UnkpzMjk5uTLacE6prqMfuuQ+gDbuBCiUbZtH6ZvueQmaAgEKxjQMuuvwHdSo11SXsi4IANdRt4zfV11DP4TkI4Fd7AQonK2bRulbv+E+OrTvFmrWHNXlAAy1es2hyT276eX33EmNWrle/kS4Dvi65vfv/g1zcfXX/DCSu9duQLJnALo4EriQdKHRwX176OC+PRQnCflBSGmKkxuhOlZ7AUUF/pXmnJGuC2Ks3N/QCADXcT9j0SNHzzw6t7T6CtW13Iwu+UhgP0AAKDqNc3KwRRAqJE5ScmOGl1MOyh1fJLIt47+qrmEtQmjEJJ5bEEYRRRF2AgBAfvy4wJ/+FYMAcAOH9038z5plFv40HNkHArXQCAgAOQpKcoxuFSAA3ESz7nxWdQ1rkd0I2HERAAAgH2maUhAXfhd2ZSAA3IRtGw/KnGLPguxGQNwKCAB5CZPkyiEkkAsEgJs4uGf80WbNWlZdx83okmcAsBMAAPLih1j/zxMCwBoajv33qmu4Gdk9AAF2AgBATtAAmC8EgDVYNn9AK/DRjkLTpO5FjeKYgjCUNj4AABFRGKeUYPo/V8V9sxXEgd27p0cbzkXVddyM7D6AVguNgAAglxdFqksYOggAfag55p+qruFmhJB7YGG740odHwAA0//5QwDow2ZbvFPXRWF/O6U3AvawEwAA5AnihJIE0/95QwDow/j4eHe07hxTXceNyD4S2PMKfx4SAJSYjxNHlUAA6FPNMt+vuoYbkX0YkB8EUscHgOHmF/nmnwpDAOjT4f0TH3Aso5Dt8BrnxCXuBIiThHwPIQAAshfGCbr/FUEAWIdm3XlYdQ03IrsPYAV3AgCABB6m/5VBAFgH2zB+RXUNNyL/TgDsBACA7GH6Xx0EgHU4tG/XJ+uOVcg3oewTAXu9rtTxAWD4BJj+VwoBYJ1GavYnVNdwPYbkGYAe7gQAgIzh618tBIB1qlnmO4p4Q6DsJYAgRBMgAGQnJWz/Uw0BYJ1u27Pz6Ejduay6jhfijBOXeGdBkqQ4EAgAMhPGMab/FUMA2ICmY/216hquxxByDwRaxZ0AAJCRHq7+VQ4BYAOMmjgiNF646Cp/JwAaAQFgcElKFMSY/lcNAWADDoyPL4w2alOq63ghocm9FKiHJQAAyIAXxoTZf/UQADao7lgfVF3DCxmy7wTwsRMAAAbn4+u/EBAANmh+ctd7TF0U6rdY6IJI4g6FIAzRtAMAAwnjhEJc/VsICAAbdD9j0WjDeVx1HddixEjj8pYB0jSlLvoAAGAAOPq3OBAABmCb9ntV1/BCuuQ+gFa7kAchAkAJpCkO/ykSBIABHN4//pGaZXqq67iW7EuB2rgTAAA2CEf/FgsCwIBGGvbnVddwLSH5LICeV6i8AwAl4oWY/i8SBIABmYZ+pEgHA+uSLwXysRMAADYgTVPs/S8YBIABHZqceLhZc1ZV1/EsITSSGUjCKKQkwRoeAKxPL4oJk//FggCQgbpjfVR1Dc9ixEiT2AeQpkTtDvoAAGB9egG+/osGASADlmke4bw4CwGylwHa2AkAAOvgRzHFaP4rHASADNyxd8fUaN2ZUV3Hs2QHgE4XRwIDQP96aP4rJASAjNQd+8Oqa3iW/J0AOAwIAPoTpykFOPmvkBAAMsKb5i8bQhRijksXcg8D8v1A6vgAUB3dIFJdAtwAAkBGDm/b1hlt2MdV10FEJDRBTOKdAGEUUYjtPACwhpSw97/IEAAy5Njm76qu4VlCdh8AGgEBYA29EFv/igwBIEOHJid+2zb1Qsx3CdlHArc7UscHgPLzwkL8dQg3gACQIcZYMlKvfUV1HUTYCQAAaoVxQlGC7/8iQwDImG3r71JdA5H8S4E8HwEAAG6si6//wkMAyNihvRMfazim8n1ysnsAPD+UOj4AlFecphTg2t/CQwCQoFGvfUp1DULTiEvcCRDHEQUhQgAAvFg3iND8VwIIABLUdO0XZG7D65fsRsBWC42AAPB8SUrkhfj6LwMEAAlun5x4fKRuL6quQ34joPKVDgAomF4YUYrv/1JAAJCkYVt/o7oG2TMArotGQAD4Vyml1EPzX2kgAEjicPNBTeNKY7Au/U4ABAAA+Fe9ICHs/CsPBABJbr11x/xoo3ZOZQ2ydwKgCRAAnpUSUS/C13+ZIABI1LDND6l8vsY5cS7vjziOY/I9XAwEAER+FFOMz/9SQQCQyOHRrxu6UNoOK7sRcBVHAgMA4da/MkIAkGhyctIbq9eeVFmD7EbAjotLgQCGXRDHOPa3hBAAJLMd830qny+7D6Dbw1ZAgGHn+vj6LyMEAMkOT+76I9sylC2UG5JnAHqeL3V8ACi2IE4oxNd/KSEA5GCk7nxR1bNlLwEEAXYCAAwzfP2XFwJADuq2eUTVsznjpHFN2vhJmlAX5wEADCU/iilMcOxvWSEA5ODAnvEvNGt2W9Xz5d8JgEZAgGHkBrHqEmAACAA5aTj2x1U929DkzQAQEXU6CAAAw8aPYorw9V9qCAA5qdnWAzKv570ZIflI4G4XSwAAw6Yb4uu/7BAAcnLbLdtPjzZqsyqeLXsroBdgJwDAMPGjhMIYX/9lhwCQo5pt/rmK5+pCEEmcfQjCkJIU24AAhoWL3T+VgACQo4aIf1kXWu5vSsaY1J0AaZpS18WBQADDoBdGOPWvIhAAcjQ5Obky0nBOqni2LrkRsFWSRkDMVABsXEopOv8rghECQO7qlvV7Kp6rS94K6JZkBiCKYkIEANiYbhAjRFcE5yxFAMjZ/L5dv2kaIvcILX0nQK8cOwGSJKHldjlqBSiSJE1x41+FmEJbRADI2f2MRaP12iN5P1f2DIDnl2cnwMVLlynFVwzAurgBZs+qgjMiyxRvQQBQoG6b7877mTrXZG4EoCCKKC3JtqBuz6dnzs1iKhOgT3GSkhfi678KOCMasY3/vr1e/4Sak2mAPvfosZ7b86w8nzm/tEBhLO9/xHcfuoOazUYmY3V7Hs3OXM5krBsxDZ12bBml0aZDmuSzEgDKrBtGA5/5j5eNWpzz1ND4ZcsUb9ler3+KiAh/6ykyUrc/4/a8b8/zmUIIqQFgte1mFgDy4AchnZu5TOdmVFcCANfDOSfD0BPDEF1T16dNU3/cMsQfHJjY8WnVtVUBAoAihqm/gzH27XmuReuaIJntbzgSGAA2ghEj3RSppeueYejzlmU8rDH2d4f3jv8VYwz7DiVBAFDk8N5dj33h8ePLq53eWF7PlN0I2O2VYysgACjCGBm6lhqGHliGMWsI/SlD8H9yWPAHk5OTnuryhg0CgEJNx/nb1U7vB/J6nuxrgb0gkDo+AJSHJjSyLcM3DbFoCHFCCP6Z7TXz97dv3z6nuja4AgFAIdNmD2qc/0Cc05WaQhPEGJO2BS6KIgrjWPqpgwBQHJrQyDL00DT0VV0Xpy1hfFHj7LcOTu48q7o2uDkEAIUO7N49/fCTJy8srnZ25/VMoQkKI3kXebgdl0ZHmtLGBwA1NI2TYRqJZegtUxfnuaZ9xRLsDw/unXhIdW2wMQgAitVt+48XVzvvyOt5uqZJDQCtVgcBAKDEOOckdI0456RrWlqzrYsN2zhy+y07P6S6NsgWAoBimxz+7hldvD0Mo1wOZdJ1QSTx0D4XOwEASoERI6FrpGmcGGOUJCnFcUwaY/Go4zxlWeavv2T/LiVXmEM+cBKgYuPj492xhnM0r+cJTe6dAD0fAQCgaJI0oTCJSOgaWZZ55UOAEYVhRJ4XUBhEacM2z+zcNPqg1l2w7j287x68/KsPMwAF4Njm+4noA3k8S5d84p3vYycAgCppmlJMCUVRSEEQkh8GFIYRpVdP8Td1g7aMbiIiIsYYjdSdhaZj/b82M95x22075R69CYWDAFAAhycnfu+zjzz9W10vkPt5TkSaphFnTNo5+FEcUxiGpOvS/6sADK2UiJIkpjAOyQ+vvOzDMHzuRX8jfhQSo9Qf37rp445pPHD73vFj+VQMRYQAUBAjNeehrhd8cx7PEkJQEMptBNy8ObfzjQCqi12Zvo/iiMIwpF4QUBCElKbr2zps6EY6Uq+d39pwHviml9/1YUnVQskgABREzdF/mRbpU3k8Sxe61ADQdl0EAID1SBkRTymMQwrCiILAJz8MKY43fgqupnEarTeWRmr1D73+FXf+NGMM11/C8yAAFMSBPROf/pevHXPbXa8m+1lCch+A28WJngDXw1KilKdXlsqiiDzfoyCKKIqyuaSLMUaNmtMbazT/fmRz7UdeddttrUwGhkpCACiQZt3+p3bX+w7Zz5F9J4DnDb4TAFeHQqmljBhPKU4S8qOAgiAgPwiv3MYpof+mZlnRppHmVwyj+b2vv/e205k/ACoJAaBAbN14gDH2HbJvCJQ9A+BnsLzAOXaoQvExxohxojCKKIxCCsKQ/CCgMIqkHbn9LFPX09Fm40TDsn7ida+4G9fjwrohABTIgcnx41/8+onLK213q8znaJwT55wSSXcQxHFMnu+TZZobHsMwdak1AqwX44zi5MrUfRBe2WIXBIH0F/21NE2jsXpzdqzhvPP+++767dweDJWEAFAwDcf6q5W2+xOynyM0QUEib89+u9Uha+vGAwAjRiMjDVpeXs2wKoA+cLp6Kl5EQRSS7wfkh4GyMMoZp0bN6Yw163/xxlfc82OMsY13BgJcAwGgYMya+EWh8R+P4kTqMrghBAWhvADQ6XRp69bNA40xNtYgz/Op10NTIcjAiFhK0dXOez/0yQ8G67zPrjJGdcfyR+uNzzXr4nu/8e6751XXBNWDAFAwB8bHF7781KkzCyvt/TKfI/tIYLeXwZHAjNHOnVtoeaVNrZUOxYn6v5ihfBgRpZwoiq4cnOP5HgVhdp33mWGMbMOIRxuNp2u28SOvu/fuL6suCaoNAaCA6rb1wYWV9rtkPkMXmszhqedn9NXOGI2NNWl0tEFRGFEUJ1K6qKH80jShTs+jbqdLrtejwA/ICwOK4rjQvzOGrqdjjcbZzSP1n/umew7/lep6YHhgt1UBfTZNRfyVpzw/jKS9pZMkpUuLc7KGJ844feMrXy5tfBhuvZ5Hy6stct0udXse+YFPQRjm2pA3CI1zGm00Fkdq9T9+wyvv+inV9cBwwgxAAd3PWPTI0dOPzy21pL1BOWekaZq09c4kTajreeRYlpTxYTj0eh612h3quF3q9nrk+QH5gV+aF/21rj2kx2joP3z/4cMd1TXBcEMAKCjbtN9L1JJ6ZrcuMQAQEbVabQQA6EsQBrTa6pDbufKi73keeYG6zvss1Ww73NSsfbGuj/zQv7nv9jOq6wF4FpYACuxzjxztuZ4v7Q3a6rSo3evKGp7Gt22j/fv2SBsfyicIQ+p0utRxO+S6HvX8K1/1Rei8z9Kzh/Rssp0f+zf33fk51fUAXA9mAApspGF/3vX8N8oaXwi5OwG6HrbvDaskjanT7tJq26Vur0tut0t+EBav8z5DQtNorN6Y2TRaP/Kal935QdX1AKwFAaDATEM/wojeKGu1U/aRwD0EgMpLk4TcrketTofanQ71eh75fkBBJO+2ySLBIT1QZggABXZocuLhLzz2zOqq2x2RMb4uBBFj0rZIBWFISZoSZ1hpqoKyd95n5ZpDej41Mmp97zccPrykuiaAjUAAKLhm3froqtt9q4yxGWMkOL+yT1qCNE2p6/aoXnekjA9yeL6h1BUNAAAON0lEQVRPrXaH2m239J33mbnmkJ7GWPOHX/uSA19VXRLAoBAACs5xxNs1zt8aS+qGFkJICwBERKudNgJAQVW58z4rpq6nzXr9/FjN/vnX3nf3n6uuByBLCAAFd+uuXRceeuLk9FKrs0vG+LrQyfN9GUMTEVG3k8GRwDCQYem8z4rGOY016gt12/7gt7z6ZT+nuh4AWRAASqDmWB9eanV+VsbYuuRGwK6HAJCXF3beD1tD3iAYY9RwnO5Ys/lRHNIDwwIBoAS0pvkrxoL4mSCKMu+mE5rcOwF8ibMLw+razvtnG/I8z8OLfgOePaTH0Ro/+JpX3jGluh6APCEAlMDhbds6X3361PH55fbBrMcWmi55J0BEaZIQ41zK+FV37VG4Hbc7tJ33WTJ1PRlrNo6NjDZ+/DV3HfoX1fUAqIIAUBKObf8OLbd/K+txGSPSuUZhLOeAlpRSarkujTQaUsavimcb8lqtznOd90HgU4IXfSYE12is0Zhp1mvveP0r7voj1fUAFAE2aJdEmqb8s4887ff8MPPQttRaye763uvYu3s37d61Q9r4ZRKGAa28oPPeDwKStctjmHHGqVmzV0fqzT/5llfd/ZM4pAfg+TADUBKMseRrx858ueevfmPWY+uaIJmtet3u8DUChmFE7Y77vM77qh+FWwSMMarbVw7p2eHwt770pS9dUV0TQFEhAJSIZRvvJqJ/yHpcXUjeCdCrbgBI44Tarvvizvs4ktZXAS9w9ZCekVr9McM2vv/bXnHP06pLAigDBIASObR34mP/8rVj3XbXy/RkHSE5APhh+XcCoPO+eJ47pGek8TOvfenh/6m6HoCyQQAomUbN+WS76705yzGFJogxJq2zPAwjCuOYdMlbDrNybec9jsItlmcP6anZzm9/66tf+ouq6wEoMwSAkqlbxgOMsTdn/TISmqBQ4tes23FpdKQpbfyNeOFRuG7PQ+d9AV09pMcdazb/IRDRD/7be+/tqq4JoAqwC6CEvvT1ZxaW293NWY653Fqlri9vrX7PxC66ZWJc2vg3EwQBrbbb1O50qev2yPN98kOceV9kjBHVLCfY1Kx/3qyJ77//7rsvqq4JoGowA1BCddv6m+V290eyHFMXgkjiUn2r1ZY3+FVRGNNqp02ddofcbo+6vkeBjy12ZWIZRrKpOfJkvWb8x9e+7K6HVNcDUGUIACXkcPNBTeP/Zxwnmc3gyG4EXO20yQsCsgxj4LGSNKbVVZfaHZe63S51PY9835d6qyHIows9HW3Uz29q1o+85mUv+RPV9QAMCywBlNTDT52aWlxp781qvDhJaHZxPqvhrsuxbXrpnYeI93kscJIk5Lrd5xryep5Hnh9QFIWEVfpy0zinZqO+vKle/+Dr7rvrbYwxTNMA5AwzACXVsM0/Wlxp/1JW42mcE+eMkkTeq7Xb69GjX3+K9u3ZTZs3jT3vP3O7XWq1XOq47nOd92GEM++rhDFGTafe3dSof3RMb/zovffuX1VdE8AwwwxASU1NTVmnLrtuEISZ3bJzeWWRgjCffe1C00jXdUqS5MqFQSk+ACuJMapZVjTWaHzVqDnf/4Z7Dp5QXRIAXIEAUGJfPXrmsfml1XuyGm+l0yK3hx1WMLirh/ScHqk5/+l19931cdX1AMCLYQmgxOq28RvzRB/Kajyh4dcBNk5wjUYbtYVmvf7eN7zi7nerrgcAbg4zACX3uUeO+q7nD95aT0ReENDi6lIWQ8GQ4IxRo1brNOvOX7eb1o/+h8OHA9U1AUB/8MlXcs26/QXX81+XxViG5K2AUB01yw42jdS+1Bhxvu+bDh8+r7oeAFg//I1fcrZlPEhEmQQAzjlxznFCHlyXaejJpubIU7Zh/tgbXolDegDKDksAFfD5x46vttxeJgftL6wskR9iFheu0IVIR+r1iyP1+gOvv+/OP1VdDwBkBzMAFdCsWR9vub3vymIsIQQCwJBijJMhBJmGkdZte8axjA+/7r673qa6LgCQAwGgAhzLfgfnK9+VxSE+OvoAqo8x0rlGQggSQpAuBFm6QVtGmxfrtv2hmhb+6uTkpKe6TACQC0sAFfHQEycvLbU6OwYdJwgDuryCnQBVwBgR54L0q4cu6drVFz7XiBgjxhiN1O2lhm39dV1YR/bt2z6numYAyA8+9yqiZpt/vtTq/OSg4whNz6IcyJnGOelCJ6HppOsa6ZpOQhPErhPxHdv0R2rOZxxD+7k79u1+Iv9qAaAIMANQEVNTU6Mn59pLYRQP/Gc6u3SZYtysV0ga5yQ0QbouSNcEaZogQ+jErvemv4ZlGPFow/5qzbJ+6Y7J8X/MqVwAKDAEgAr5ytOnn7m83Lp90HEWV5fIC9AIqBJn/MoavXZljV4XggwhiLH+r37QhZaO1J2pmmX+3uH9E/8VN+4BwLWwBFAhjmV+gIjeO+g4V5YBEADywDkjjWuka4J03SD96ktf6/PK5OuNN1J35uq29RFtxDpyeNu2TsYlA0BFYAagQj6bpiL+6lOeH0TaION0vR4tt3FTa6audt7r4sr0vaYJMq5O4Q88NBE1anar4VifNhztbYd27z45eMEAUHUIABXz6LEzD80urr5qkDGCKKTLy4tZlTRUGCMSXPzrFrsXdN5nybFNf8SxH7Yt6xcOTu7850wHB4DKwxJAxTim+S4i+vtBxtA1ceVllQ5+rkCVrafzPiumLuLReu0pxzJ//9D+Xb8j70kAUHWYAaigf370WLfT8+xBxphbukwRdgIQ0cY777MiNI1Gm7VzNdP8UxzSAwBZwQxABTXr9mc6Pe9Ng4yha/rQBYDrdd7rQhBfR+d9Vq49pMfh5oO33rpjPvciAKDSEAAqyDD1Bxljb0oHmMIXQlR2I8DzO++f/aI3Ntx5n6WGY3sjdfuTjmn8/G17dj6tuh4AqC4sAVTUFx5/ZnG109200X+/53m01F7JsqT8XefM+6w677NkGXo02nAesU3zyKF9uz6puh4AGA7F+psQMtOs2X+72un+4Eb/fSEG2kmYK0ZEXLvOmfcFe9FfSxdaOtZwjtcs+/0H941/AIf0AEDeivs3JAzEtNgRjfMfjJONvVeEphdyJ4CKzvuscM5ppG7P1W3rI9saxoM7duxwVdcEAMOrBH9twkY99OTJc0urnVs2+u/PLS9QFEVZltQ3jWukC42EuPJFf+Wlr+XWeZ+Vfz2kx/572+E/d2D37mnVNQEAEGEGoNIalvWhpdXOkY3++6YwpAcAzvjVaXvtuWNwhaYT5+V60b9Q3bZ6I3X704Zp/MKhveNfU10PAMALlftvWbipCxcu2MdmVjphGG2ovT2MQppfWcpkGYAzdrURT3/upDxdbPzM+/+/vTvpbasKwwB87nim69hEoihOosSx0iaxWMGeXX9Bt/wDVkhAJ2hp1VIhxAaERNkgQBWq2AALBkGoikRQUomSZihN2qrUTZvJrsd4jFnQEKdCVRrbOc4977O/97ySF/fzd+79TjvaGNLDGXs3Fg1fUJ0HAOBJUAD43MTMzcmlRPr5nV6fXcuSVHb758kYxr/vDzjWo/a9vTE8Z++8VPg0bMuqhQLitmTsglFMnY7FYj79eBIA/AZbAD7HmfsBIeT8Tq/3uEcs0yKpbJZU1zcHA22dee8Q99ED3/bpg75e/ZAeHnCPD3Z1LavOBADwtNAB0MDoleniWqHkNnqfcrVCqtV1YllmSw63aXcBwfIdkv8gGT0+2Nc1ozoPAEAj0AHQQEiKsbVC6aVG7+NYNnH8/wd/C8loOeiJccmdk/v7un9SnQcAoFlQAGhACuc0WSUNFwC6wJAeANCBXj1cjV3+YzaTyRU81TnalWmapLND3g9w/lmIG6fC4XBedSYAgFZCB0ATAcm/z+QKh1TnaCf1Q3pcKl4f6X/2vupMAAC7BQWAJoTjvmkYxqFGTgj0C8FpMSjFqEfto/sjPVdV5wEAUAFbABr57c8bi8lMbp/qHCpsDOkRgp4biXR/qToPAIBq6ABoxBPsYjKTe0V1jt3i2FYt6InbktGPY9Ge9/AyHwDAJnQANDJ9925nPJ5cqVSrvv3dTdMgQU8seox+TT3n2IFweEV1JgCAduTbBwH8v/Gp+fnlh5mo6hzNtjGkh7vu0QOR8HXVeQAA2h22ADQjOP2EPMycU52jGSSjpQ7JxwR3Tg3194yqzgMAsJegA6CZX2o1uzo+VSiWK3typp9r27VQgF+XjH84Eu3+SHUeAIC9CgWAhiZmb00sraZeVJ1juyzTJKGAiHucf9opzHcwpAcAoHHYAtCQx+j7S4S09Xn19UN6gi5/LRLZ90B1JgAAP0EHQFOXrsys5QpFpjrH4zaG9AjXOjw00DupOg8AgF+hA6CpoMcv5wrFg6pzEEIIde1qSMopzt2zsYGei6rzAADoAAWApih1ThiEHFQ1GBhDegAA1MIWgMZ+vfpXMp3Nh3ZrvfohPRY3j8R6exO7tTYAAGyFDoDGOiT7Np3Nv9zKNTZf5mM/U9s+PBztudHK9QAAYHvQAdDY/L17vfN3Vv6urje/+y4YLQYl/50zdnI40nWp6QsAAEBDUABobmxyLp5IZ7ubcS/XddafkeKaYPQ8hvQAALQ3bAFoTnL2RSKdfWOn19cP6ZFW+UwkEik0Mx8AALQGOgCaW1hYELPxRKpQKm+7GDQMgwQ9nghw9pVns7cGBp5bbGVGAABoPhQAQKZvxo/cebBytlZ78keBAcFyAY9/51F6YrCva2aX4gEAQAugAABCCCHXbsWPLS4n3378kCBOnXLIk2Oc0jPDA+EfVeUDAIDmQgEA/5mbW+0omPlXK5XqC4ZBStSxvxnq7/4cQ3oAAAAAAAAAAAAA9qJ/ACWlFJWv2AAVAAAAAElFTkSuQmCC;" vertex="1" parent="WIyWlLk6GJQsqaUBKTNV-1">
          <mxGeometry x="150" y="71.5" width="19" height="19" as="geometry" />
        </mxCell>
      </root>
    </mxGraphModel>
  </diagram>
</mxfile>
